<?xml version="1.0" standalone="no"?>
<!DOCTYPE svg PUBLIC "-//W3C//DTD SVG 1.1//EN" "http://www.w3.org/Graphics/SVG/1.1/DTD/svg11.dtd" >
<svg>
<metadata>
Created by FontForge 20090622 at Tue Mar 28 10:24:34 2017
 By deploy user
Copyright (c) ParaType, Inc., 2005. All rights reserved.
</metadata>
<defs>
<font id="PragmaticaBold-Obl" horiz-adv-x="2" >
  <font-face 
    font-family="Pragmatica Bold"
    font-weight="600"
    font-style="italic"
    font-stretch="normal"
    units-per-em="1000"
    panose-1="2 11 7 3 4 5 2 9 2 4"
    ascent="800"
    descent="-200"
    x-height="508"
    cap-height="700"
    bbox="-617 -329 1848 964"
    underline-thickness="50"
    underline-position="-50"
    slope="-12"
    unicode-range="U+0020-U+F6E2"
  />
<missing-glyph horiz-adv-x="233" 
 />
    <glyph glyph-name="IJ" unicode="IJ" horiz-adv-x="860" 
d="M168 700h165l-148 -700h-165zM305 258h165l-6 -28q-6 -32 -6 -48q-5 -24 17 -47.5t50 -18.5q40 0 61 20q25 22 40 94l100 470h165l-95 -447q-24 -127 -77 -191q-37 -45 -87 -63.5t-123 -18.5q-91 0 -138 31q-75 46 -75 156q0 51 9 91z" />
    <glyph glyph-name="ij" unicode="ij" horiz-adv-x="540" 
d="M115 508h152l-108 -508h-152zM130 581l26 119h152l-26 -119h-152zM381 508h152l-113 -533q-9 -44 -26.5 -76t-36 -49t-43 -27t-43 -12.5t-40.5 -2.5q-53 0 -88 7l21 102q14 -2 15 -2q42 0 62.5 16.5t29.5 58.5zM396 581l26 119h152l-26 -119h-152z" />
    <glyph glyph-name="fi" unicode="fi" horiz-adv-x="605" 
d="M313 508h285l-108 -508h-152l86 406h-133l-87 -406h-152l87 406h-93l21 102h94l9 44q10 50 29 82.5t48 48t58.5 21t71.5 5.5q54 0 90 -9l-20 -99q-30 6 -61 6q-53 0 -65 -61zM461 581l26 119h152l-26 -119h-152z" />
    <glyph glyph-name="fl" unicode="fl" horiz-adv-x="604" 
d="M313 508h134l41 192h152l-150 -700h-152l87 406h-134l-87 -406h-152l87 406h-93l21 102h94l9 44q10 50 29 82.5t48 48t58.5 21t71.5 5.5q54 0 90 -9l-20 -99q-30 6 -61 6q-53 0 -65 -61z" />
    <glyph glyph-name="afii10017.var.accented" unicode="&#x410;`" horiz-adv-x="677" 
d="M348 700h167l114 -700h-171l-17 131h-254l-73 -131h-177zM247 250h183l-35 267zM425 898h158l-126 -132h-116z" />
    <glyph glyph-name="afii10022.var.accented" unicode="&#x415;`" horiz-adv-x="655" 
d="M275 425h342l-27 -136h-344l-32 -153h397l-28 -136h-563l148 700h554l-28 -136h-390zM414 898h158l-126 -132h-116z" />
    <glyph glyph-name="afii10026.var.accented" unicode="&#x418;`" horiz-adv-x="755" 
d="M238 248l361 452h178l-148 -700h-165l96 457l-362 -457h-178l148 700h165zM464 898h158l-126 -132h-116z" />
    <glyph glyph-name="afii10032.var.accented" unicode="&#x41e;`" horiz-adv-x="792" 
d="M364 -20q-80 0 -139.5 22.5t-91.5 54t-51.5 74.5t-24.5 74.5t-5 63.5q0 55 13.5 113.5t45.5 120t79 109t120.5 78t163.5 30.5q146 0 226.5 -76t80.5 -213q0 -55 -13 -113.5t-44.5 -120t-77.5 -109t-119.5 -78t-162.5 -30.5zM377 116q49 0 89 20.5t65 51.5t42 71t23.5 77
t6.5 72q0 176 -148 176q-61 0 -107 -29.5t-70.5 -76.5t-36 -94t-11.5 -92q0 -176 147 -176zM482 898h158l-126 -132h-116z" />
    <glyph glyph-name="afii10037.var.accented" unicode="&#x423;`" horiz-adv-x="639" 
d="M371 353l197 347h181l-346 -557q-20 -32 -37 -53t-47 -48t-72 -41t-94 -14q-51 0 -103 13l28 136q36 -11 74 -11t61.5 16t44.5 52l-159 507h179zM406 898h158l-126 -132h-116z" />
    <glyph glyph-name="afii10045.var.accented" unicode="&#x42b;`" horiz-adv-x="961" 
d="M333 700l-53 -254h145q239 0 239 -202q0 -102 -79 -173t-232 -71h-333l148 700h165zM251 310l-37 -174h157q20 0 44 5.5t49 27.5t25 57q0 84 -103 84h-135zM818 700h165l-148 -700h-165zM567 898h158l-126 -132h-116z" />
    <glyph glyph-name="afii10047.var.accented" unicode="&#x42d;`" horiz-adv-x="777" 
d="M261 467h-174q7 30 20 59.5t41 66t65 63.5t97 45.5t134 18.5q22 0 36 -0.5t51 -5.5t63.5 -15t61.5 -31.5t56.5 -51t37.5 -78t16 -109.5q0 -207 -113.5 -328t-306.5 -121q-79 0 -138 17.5t-90.5 42.5t-51 59t-24.5 60.5t-5 54.5q0 19 3 38h168q-1 -3 -1 -9v-9
q0 -57 39 -87.5t108 -30.5q45 0 81.5 13.5t57.5 32.5t36 44.5t21 43t9 34.5h-267l28 136h266q2 14 2 20q0 144 -154 144q-130 0 -173 -117zM475 898h158l-126 -132h-116z" />
    <glyph glyph-name="afii10048.var.accented" unicode="&#x42e;`" horiz-adv-x="1086" 
d="M277 435h97q16 53 45.5 100.5t76 90.5t116.5 68.5t156 25.5q21 0 40 -1.5t51.5 -7.5t59.5 -17t57 -33t51 -51.5t34.5 -75.5t13.5 -103q0 -89 -28 -170t-79.5 -144t-132 -100t-177.5 -37q-87 0 -151 26.5t-97.5 70.5t-48.5 91.5t-15 100.5v30h-98l-63 -299h-165l148 700
h165zM671 116q104 0 165 87t61 205q0 176 -148 176q-101 0 -163 -82t-62 -210q0 -176 147 -176zM629 898h158l-126 -132h-116z" />
    <glyph glyph-name="afii10049.var.accented" unicode="&#x42f;`" horiz-adv-x="710" 
d="M470 242h-98l-184 -242h-192l221 258q-60 9 -99.5 56.5t-39.5 138.5q0 117 87 182t214 65h353l-148 -700h-165zM538 564h-146q-18 0 -38 -4.5t-44 -15t-39 -33.5t-15 -56q0 -24 11.5 -41t29.5 -24t32.5 -9.5t28.5 -2.5h141zM441 898h158l-126 -132h-116z" />
    <glyph glyph-name="afii10065.var.accented" unicode="&#x430;`" horiz-adv-x="608" 
d="M236 344h-159q49 183 287 183q204 0 204 -134q0 -13 -9 -56l-51 -232q-9 -36 -9 -59q0 -31 17 -33v-13h-159l-3 50h-3q-72 -69 -175 -69q-26 0 -48.5 4t-50 16t-44 39.5t-16.5 68.5q0 32 10 58.5t24 44.5t38.5 32.5t43.5 22t49.5 14t46 9t43.5 5.5q11 1 33 3.5t31 4
t24.5 5t22 8.5t14.5 13t10.5 20t2.5 28q0 20 -15 34t-49 14q-93 0 -110 -81zM382 210l8 32q-21 -10 -107 -27q-20 -4 -35 -8.5t-33.5 -14t-29 -26.5t-10.5 -40q0 -43 69 -43q30 0 55.5 12.5t39 28t24.5 37t14 31t5 18.5zM380 700h160l-128 -132h-116z" />
    <glyph glyph-name="afii10070.var.accented" unicode="&#x435;`" horiz-adv-x="628" 
d="M396 147h154q-67 -166 -277 -166q-61 0 -106.5 15.5t-71 38t-41 54t-20 58t-4.5 55.5q0 38 9 78.5t32.5 85.5t58.5 80t93 58t129 23q59 0 104.5 -13.5t71 -34.5t41.5 -50t21 -55.5t5 -55.5q0 -34 -19 -95h-388q-4 -17 -4 -41q0 -99 102 -99q37 0 68 17.5t42 46.5z
M205 302h232q4 20 4 44q0 79 -99 79q-105 0 -137 -123zM390 700h160l-128 -132h-116z" />
    <glyph glyph-name="afii10074.var.accented" unicode="&#x438;`" horiz-adv-x="642" 
d="M197 178l258 330h180l-109 -508h-152l71 330l-258 -330h-180l109 508h152zM397 700h160l-128 -132h-116z" />
    <glyph glyph-name="afii10080.var.accented" unicode="&#x43e;`" horiz-adv-x="631" 
d="M276 -19q-61 0 -107 15t-72 37.5t-42 54.5t-21 60t-5 60q0 39 9.5 80t33.5 84.5t59.5 77.5t93 55.5t128.5 21.5q33 0 62.5 -4t65 -18.5t61 -38.5t42.5 -67t17 -100q0 -82 -36 -153t-111.5 -118t-177.5 -47zM292 83q72 0 111.5 65t39.5 161q0 116 -105 116
q-54 0 -89.5 -39t-48.5 -88t-13 -102q0 -113 105 -113zM392 700h160l-128 -132h-116z" />
    <glyph glyph-name="afii10085.var.accented" unicode="&#x443;`" horiz-adv-x="555" 
d="M2 -185l22 102q14 -7 48 -7q19 0 32.5 5t24.5 18t16 21t15 27l14 25l-116 502h163l67 -344l163 344h161l-290 -535q-51 -92 -96 -129.5t-119 -37.5q-69 0 -105 9zM354 700h160l-128 -132h-116z" />
    <glyph glyph-name="afii10093.var.accented" unicode="&#x44b;`" horiz-adv-x="796" 
d="M116 508h152l-39 -181h94q28 0 47 -1t48.5 -8.5t47.5 -21t31.5 -40.5t13.5 -65q0 -23 -5 -46t-20 -50t-38.5 -47.5t-64.5 -34t-94 -13.5h-282zM207 225l-26 -123h67q105 0 105 66q0 57 -81 57h-65zM637 508h152l-109 -508h-152zM474 700h160l-128 -132h-116z" />
    <glyph glyph-name="afii10095.var.accented" unicode="&#x44d;`" horiz-adv-x="618" 
d="M230 206l20 102h176q3 14 3 28q0 12 -2 22t-9.5 28t-29.5 28.5t-56 10.5q-35 0 -62 -11t-42 -28.5t-22.5 -31.5t-11.5 -28h-139q8 34 25 65t48.5 64t86 52.5t125.5 19.5q61 0 107 -14.5t72 -36t42 -51.5t21 -56.5t5 -56.5q0 -40 -9.5 -82t-33.5 -87.5t-60.5 -80.5
t-96.5 -58t-135 -23q-233 0 -233 185q0 8 2 26h142q-1 -3 -1 -11v-10q0 -9 2.5 -19.5t11 -28t32 -29t58.5 -11.5q50 0 84 27t57 96h-177zM385 700h160l-128 -132h-116z" />
    <glyph glyph-name="afii10096.var.accented" unicode="&#x44e;`" horiz-adv-x="868" 
d="M227 317h63q30 90 104.5 150t199.5 60q60 0 105 -15t71 -37.5t42 -54.5t21 -60.5t5 -60.5q0 -38 -9.5 -79t-33.5 -84.5t-59.5 -77t-92 -55.5t-125.5 -22q-61 0 -107.5 15.5t-72.5 38.5t-42 55.5t-20.5 62t-3.5 62.5h-67l-46 -215h-152l109 508h152zM533 83q41 0 72 24.5
t46 62t22 73t7 66.5q0 116 -101 116q-41 0 -71.5 -22t-46.5 -58t-23.5 -73.5t-7.5 -75.5t12 -63t31 -34.5t32.5 -12.5t27.5 -3zM510 700h160l-128 -132h-116z" />
    <glyph glyph-name="afii10097.var.accented" unicode="&#x44f;`" horiz-adv-x="583" 
d="M305 176l-132 -176h-182l167 187q-44 4 -75.5 35.5t-31.5 92.5q0 79 57 136t169 57h299l-109 -508h-152l38 176h-48zM402 406h-80q-35 0 -59 -8t-34.5 -20.5t-14.5 -23t-4 -20.5q0 -56 80 -56h85zM368 700h160l-128 -132h-116z" />
    <glyph glyph-name=".notdef" horiz-adv-x="233" 
 />
    <glyph glyph-name=".notdef" horiz-adv-x="233" 
 />
    <glyph glyph-name=".null" horiz-adv-x="0" 
 />
    <glyph glyph-name="nonmarkingreturn" horiz-adv-x="333" 
 />
    <glyph glyph-name="space" unicode=" " horiz-adv-x="233" 
 />
    <glyph glyph-name="space" unicode="&#xa0;" horiz-adv-x="233" 
 />
    <glyph glyph-name="exclam" unicode="!" horiz-adv-x="384" 
d="M200 700h173l-39 -183l-106 -292h-86l18 292zM56 0l33 158h166l-33 -158h-166z" />
    <glyph glyph-name="quotedbl" unicode="&#x22;" horiz-adv-x="498" 
d="M324 700l-94 -192h-66l-12 192h172zM536 700l-94 -192h-66l-12 192h172z" />
    <glyph glyph-name="numbersign" unicode="#" horiz-adv-x="650" 
d="M440 10h-80l23 155h-133l-23 -155h-80l23 155h-134l18 112h134l24 153h-134l17 112h134l24 153h80l-24 -153h133l24 153h80l-24 -153h134l-17 -112h-134l-24 -153h134l-18 -112h-134zM401 277l24 153h-133l-24 -153h133z" />
    <glyph glyph-name="dollar" unicode="$" horiz-adv-x="650" 
d="M29 225h144q-6 -33 1 -58t22.5 -37.5t31.5 -19t34 -7.5l41 194q-91 27 -142.5 73t-51.5 127q0 38 14.5 73.5t44.5 69t86.5 54.5t131.5 22l14 62h81l-13 -62q101 -5 142.5 -51.5t41.5 -113.5q0 -19 -5 -44h-140q2 14 2 16q0 69 -67 77l-37 -173q63 -16 105 -40.5t61 -55
t26 -56t7 -56.5q0 -62 -28 -109t-74 -72.5t-93.5 -38.5t-96.5 -15l-16 -79h-82l17 79q-105 2 -154 53.5t-49 152.5q0 23 1 35zM375 282l-39 -179q53 0 81.5 31t28.5 69q0 60 -71 79zM335 445l32 155q-48 -4 -74.5 -21t-26.5 -58q0 -33 21 -52.5t48 -23.5z" />
    <glyph glyph-name="percent" unicode="%" horiz-adv-x="1016" 
d="M170 0l603 700h105l-602 -700h-106zM108 529q10 56 37 95.5t61.5 57t62 24.5t53.5 7t51.5 -7t51.5 -23t42 -50t16 -81q0 -37 -12.5 -76.5t-37 -77t-69 -61.5t-101.5 -24q-27 0 -52 6.5t-51.5 23t-42 51t-15.5 82.5q0 15 6 53zM213 508q-4 -15 -4 -35q0 -37 14.5 -59
t43.5 -22q46 0 77.5 54.5t31.5 112.5q0 39 -16 57t-42 18q-31 0 -61 -28.5t-44 -97.5zM576 203q10 56 37 95.5t61.5 57t62 24.5t53.5 7t51.5 -7t51.5 -23t42 -50t16 -81q0 -37 -12.5 -76.5t-37 -77t-69 -61.5t-101.5 -24q-27 0 -52 6.5t-51.5 23t-42 51t-15.5 82.5
q0 15 6 53zM681 182q-4 -15 -4 -35q0 -37 14.5 -59t43.5 -22q46 0 77.5 54.5t31.5 112.5q0 39 -16 57t-42 18q-31 0 -61 -28.5t-44 -97.5z" />
    <glyph glyph-name="ampersand" unicode="&#x26;" horiz-adv-x="705" 
d="M532 323h132q-34 -90 -109 -170l94 -153h-176l-34 58q-52 -42 -99.5 -58.5t-118.5 -16.5q-96 0 -146 53.5t-50 131.5q0 48 17 87t50.5 67.5t65 46.5t77.5 38q-35 57 -35 115q0 27 12 57.5t35 60t65 48.5t95 19q78 0 126 -39t48 -104q0 -68 -48.5 -118.5t-111.5 -73.5
l72 -116q20 23 39 67zM383 152l-92 158q-42 -15 -74.5 -47t-32.5 -79q0 -27 19 -52t65 -25q70 0 115 45zM367 457q58 19 80 47t22 54q0 11 -3.5 22t-19 22t-41.5 11q-33 0 -52 -21.5t-19 -49.5q0 -16 4 -28t14 -29.5t15 -27.5z" />
    <glyph glyph-name="quotesingle" unicode="'" horiz-adv-x="286" 
d="M324 700l-94 -192h-66l-12 192h172z" />
    <glyph glyph-name="parenleft" unicode="(" horiz-adv-x="397" 
d="M320 700h122q-221 -321 -221 -580q0 -169 33 -305h-109q-79 196 -79 332q0 153 65 280.5t189 272.5z" />
    <glyph glyph-name="parenright" unicode=")" horiz-adv-x="409" 
d="M81 -185h-122q222 323 222 580q0 173 -34 305h115q27 -70 40.5 -109.5t26 -100.5t12.5 -121q0 -151 -66.5 -278.5t-193.5 -275.5z" />
    <glyph glyph-name="asterisk" unicode="*" horiz-adv-x="483" 
d="M302 495l-87 -88l-53 52l83 83l-105 51l35 67l102 -51l16 114l74 -8l-16 -114l119 24l13 -71l-114 -22l59 -98l-67 -37z" />
    <glyph glyph-name="plus" unicode="+" horiz-adv-x="675" 
d="M73 390h243v243h80v-243h243v-80h-243v-243h-80v243h-243v80z" />
    <glyph glyph-name="comma" unicode="," horiz-adv-x="385" 
d="M52 0l34 158h165l-34 -158q-3 -18 -8.5 -35.5t-20.5 -44.5t-36 -46.5t-57 -34.5t-81 -16l17 79q38 2 63.5 22t33 37t9.5 33l1 6h-86z" />
    <glyph glyph-name="hyphen" unicode="-" horiz-adv-x="450" 
d="M69 205l26 125h288l-26 -125h-288z" />
    <glyph glyph-name="hyphen" unicode="&#x2010;" horiz-adv-x="450" 
d="M69 205l26 125h288l-26 -125h-288z" />
    <glyph glyph-name="hyphen" unicode="&#xad;" horiz-adv-x="450" 
d="M69 205l26 125h288l-26 -125h-288z" />
    <glyph glyph-name="period" unicode="." horiz-adv-x="385" 
d="M52 0l34 158h165l-34 -158h-165z" />
    <glyph glyph-name="slash" unicode="/" horiz-adv-x="455" 
d="M-54 -185l530 885h80l-530 -885h-80z" />
    <glyph glyph-name="zero" unicode="0" horiz-adv-x="650" 
d="M281 -20q-19 0 -35 1.5t-42 8t-46 17.5t-42.5 32.5t-37.5 51t-25 75.5t-10 103q0 89 23.5 169t67.5 143.5t113.5 101t154.5 37.5q245 0 245 -277q0 -56 -11.5 -115.5t-39 -122.5t-68 -112.5t-104.5 -81t-143 -31.5zM298 102q47 0 83 33.5t55.5 79.5t31.5 101t15.5 90
t3.5 55q0 137 -96 137q-43 0 -78 -28.5t-54.5 -70.5t-33 -93.5t-18 -92.5t-4.5 -73q0 -138 95 -138z" />
    <glyph glyph-name="one" unicode="1" horiz-adv-x="650" 
d="M174 492l17 83h21q20 0 45.5 5.5t57 17.5t60 39t43.5 63h123l-148 -700h-165l104 492h-158z" />
    <glyph glyph-name="two" unicode="2" horiz-adv-x="650" 
d="M565 122l-26 -122h-537q19 99 75 158.5t164 121.5l69 37t72 41t54 40.5t44.5 54t13.5 62.5q0 33 -19 53t-39.5 25t-43.5 5q-121 0 -143 -140h-153q55 262 300 262q70 0 125 -16.5t93 -60t38 -109.5q0 -90 -51.5 -150.5t-155.5 -117.5l-74.5 -38.5l-66.5 -34t-45.5 -30.5
t-37.5 -41h344z" />
    <glyph glyph-name="three" unicode="3" horiz-adv-x="650" 
d="M36 241h156q-4 -17 -4 -40q0 -99 109 -99q40 0 69 13.5t43 34.5t20.5 41t6.5 40q0 74 -92 74h-69l24 115h53q134 0 134 98q0 32 -24.5 56t-82.5 24q-109 0 -133 -129h-150q11 65 36 112.5t54 73.5t67.5 41.5t70 19.5t68.5 4q243 0 243 -166q0 -18 -2.5 -36t-12 -43
t-26 -46t-47 -40t-71.5 -29l-1 -2q44 -5 80 -37t36 -96q0 -25 -5.5 -51.5t-25 -63t-50.5 -64t-89.5 -47t-135.5 -19.5q-75 0 -128 17.5t-78.5 47.5t-36 61t-10.5 68q0 44 4 67z" />
    <glyph glyph-name="four" unicode="4" horiz-adv-x="650" 
d="M342 157h-339l29 135l416 408h167l-89 -421h96l-27 -122h-95l-34 -157h-158zM174 279h200l54 258z" />
    <glyph glyph-name="five" unicode="5" horiz-adv-x="650" 
d="M39 203h155v-13q0 -29 12.5 -48.5t32 -27t32.5 -10t25 -2.5q72 0 110 55t38 114q0 15 -3 29.5t-12.5 33t-31 30t-53.5 11.5q-70 0 -111 -50h-155l125 375h446l-25 -122h-340l-52 -152q67 64 171 64q100 0 150.5 -59.5t50.5 -149.5q0 -34 -6.5 -69t-26.5 -78.5t-52.5 -76
t-90.5 -55t-133 -22.5q-21 0 -36.5 0.5t-45.5 5t-51.5 12.5t-47.5 24.5t-42 39.5t-25.5 59.5t-7.5 81.5z" />
    <glyph glyph-name="six" unicode="6" horiz-adv-x="650" 
d="M658 535h-143q0 30 -30.5 46.5t-67.5 16.5q-136 0 -175 -165q67 49 153 49q98 0 156.5 -50t58.5 -140q0 -39 -9 -79t-31.5 -82.5t-55.5 -75.5t-87 -54t-121 -21q-19 0 -31.5 0.5t-42 5t-51 13t-48.5 27t-44 43.5t-29 65.5t-12 91.5q0 131 40 240.5t127.5 181.5t209.5 72
q60 0 104.5 -14.5t68.5 -34.5t38.5 -47.5t18 -48t3.5 -40.5zM200 242q-3 -16 -3 -34q0 -15 4.5 -31t15 -34t34.5 -29.5t58 -11.5q41 0 72.5 18t47.5 45t24 54t8 51q0 38 -28 64t-82 26q-62 0 -100.5 -34t-50.5 -84z" />
    <glyph glyph-name="seven" unicode="7" horiz-adv-x="650" 
d="M99 578l27 122h578l-25 -116q-164 -140 -250 -276q-92 -145 -132 -308h-171q14 62 49.5 142.5t75.5 142.5q47 74 118.5 156t141.5 132v5h-412z" />
    <glyph glyph-name="eight" unicode="8" horiz-adv-x="650" 
d="M289 -20q-252 0 -252 187q0 81 49 138t119 74q-37 11 -58.5 43t-21.5 79q0 93 77 156t208 63q22 0 41.5 -1.5t56 -11.5t62.5 -27.5t46 -54t20 -87.5q0 -62 -39 -107t-94 -65q39 -15 68.5 -48.5t29.5 -85.5q0 -48 -16 -90.5t-50.5 -80t-97.5 -59.5t-148 -22zM301 102
q64 0 102 37.5t38 96.5q0 12 -3 23.5t-12 28t-32.5 27t-58.5 10.5q-65 0 -101.5 -39.5t-36.5 -91.5q0 -45 28.5 -68.5t75.5 -23.5zM367 418q35 0 60.5 12t37 30.5t16.5 35t5 31.5q0 9 -3 19.5t-12 23t-29 20.5t-49 8q-51 0 -84.5 -29t-33.5 -74q0 -77 92 -77z" />
    <glyph glyph-name="nine" unicode="9" horiz-adv-x="650" 
d="M36 164h142q2 -31 31.5 -46.5t67.5 -15.5q130 0 175 163q-66 -49 -153 -49q-89 0 -152.5 47.5t-63.5 147.5q0 81 32.5 149.5t105 114t172.5 45.5q68 0 118 -20t75 -47t39.5 -65t17.5 -62.5t3 -52.5q0 -96 -24 -183.5t-69.5 -157t-119 -111t-164.5 -41.5q-47 0 -85.5 9
t-62 22t-41 32t-25.5 35t-13 36t-5.5 29.5t-0.5 20.5zM492 452q4 15 4 31q0 50 -27 82.5t-83 32.5q-41 0 -72.5 -18t-48 -45.5t-24.5 -54.5t-8 -51q0 -45 31 -68t78 -23q52 0 95.5 29t54.5 85z" />
    <glyph glyph-name="colon" unicode=":" horiz-adv-x="379" 
d="M125 350l33 158h166l-33 -158h-166zM52 0l33 158h166l-33 -158h-166z" />
    <glyph glyph-name="semicolon" unicode=";" horiz-adv-x="379" 
d="M125 350l33 158h166l-33 -158h-166zM52 0l33 158h166l-33 -158q-11 -54 -36 -91.5t-56.5 -54.5t-58 -24t-53.5 -7l17 79q38 2 63.5 22t33 37t9.5 33l1 6h-86z" />
    <glyph glyph-name="semicolon" unicode="&#x37e;" horiz-adv-x="379" 
d="M125 350l33 158h166l-33 -158h-166zM52 0l33 158h166l-33 -158q-11 -54 -36 -91.5t-56.5 -54.5t-58 -24t-53.5 -7l17 79q38 2 63.5 22t33 37t9.5 33l1 6h-86z" />
    <glyph glyph-name="less" unicode="&#x3c;" horiz-adv-x="648" 
d="M147 357l461 -265l-41 -70l-506 293v84l506 293l41 -70z" />
    <glyph glyph-name="equal" unicode="=" horiz-adv-x="675" 
d="M73 490h566v-80h-566v80zM73 290h566v-80h-566v80z" />
    <glyph glyph-name="greater" unicode="&#x3e;" horiz-adv-x="651" 
d="M541 357l-461 265l41 70l506 -293v-84l-506 -293l-41 70z" />
    <glyph glyph-name="question" unicode="?" horiz-adv-x="584" 
d="M242 477h-155q45 235 291 235q228 0 228 -163q0 -69 -30 -108.5t-81 -70.5l-46 -25t-44 -25.5t-29.5 -23t-26 -32.5t-9.5 -39h-126q8 52 22 84.5t31 49.5t48 38q18 12 45 28t37.5 23.5t24 20.5t17.5 27.5t4 35.5q0 65 -77 65q-105 0 -124 -120zM146 0l34 158h165
l-34 -158h-165z" />
    <glyph glyph-name="at" unicode="@" horiz-adv-x="837" 
d="M593 104l38 -70q-84 -54 -194 -54q-177 0 -273.5 106.5t-96.5 263.5q0 162 106 266t264 104q161 0 265.5 -94.5t104.5 -259.5q0 -88 -50 -156t-136 -68q-65 0 -85 40q-31 -46 -120 -46q-92 0 -135 58.5t-43 142.5q0 85 47.5 143.5t124.5 58.5q68 0 102 -34l1 20h99v-254
q0 -28 5 -36.5t20 -8.5q43 0 65 42t22 98q0 71 -25 125.5t-67 87t-91.5 48.5t-103.5 16q-130 0 -209 -86.5t-79 -206.5q0 -129 79.5 -211.5t208.5 -82.5q88 0 156 48zM510 337q0 117 -83 117q-38 0 -62 -29.5t-24 -87.5q0 -23 4.5 -46t25 -47t55.5 -24q4 0 10.5 1t20.5 7
t25 17.5t19.5 35t8.5 56.5z" />
    <glyph glyph-name="A" unicode="A" horiz-adv-x="677" 
d="M348 700h167l114 -700h-171l-17 131h-254l-73 -131h-177zM247 250h183l-35 267z" />
    <glyph glyph-name="B" unicode="B" horiz-adv-x="728" 
d="M168 700h352q186 0 186 -148q0 -35 -12 -69t-48.5 -67t-92.5 -46l-1 -2q50 -11 83 -46t33 -99q0 -101 -80 -162t-234 -61h-334zM304 564l-29 -136h152q35 0 67 17.5t32 59.5q0 27 -20 43t-54 16h-148zM247 292l-33 -156h170q41 0 75 20t34 63q0 42 -24 57.5t-71 15.5
h-151z" />
    <glyph glyph-name="C" unicode="C" horiz-adv-x="729" 
d="M538 247h164q-13 -46 -36.5 -88t-64 -85t-106.5 -68.5t-149 -25.5q-146 0 -220 79.5t-74 205.5q0 52 10.5 107.5t39 119.5t72 113t117.5 82t167 33q39 0 73.5 -4t75 -17t69 -34.5t48 -60.5t19.5 -91q0 -34 -3 -51h-163q1 3 1 10v11q0 101 -127 101q-47 0 -86 -20.5
t-63.5 -52t-41 -71.5t-23.5 -77.5t-7 -72.5q0 -47 11.5 -81.5t26.5 -51.5t35.5 -27t33.5 -12t26 -2q125 0 175 131z" />
    <glyph glyph-name="D" unicode="D" horiz-adv-x="757" 
d="M168 700h296q282 0 282 -286q0 -85 -22 -153t-54.5 -110t-79 -73t-85 -45.5t-84 -22.5t-64.5 -9t-37 -1h-300zM304 564l-90 -428h106q63 0 111 23.5t73 56t40.5 75.5t19.5 74t4 60q0 139 -147 139h-117z" />
    <glyph glyph-name="E" unicode="E" horiz-adv-x="655" 
d="M275 425h342l-27 -136h-344l-32 -153h397l-28 -136h-563l148 700h554l-28 -136h-390z" />
    <glyph glyph-name="F" unicode="F" horiz-adv-x="590" 
d="M270 404h291l-28 -136h-291l-57 -268h-165l148 700h509l-29 -136h-344z" />
    <glyph glyph-name="G" unicode="G" horiz-adv-x="787" 
d="M454 380h297l-81 -380h-123l13 59h-2q-38 -45 -92 -62t-127 -17q-142 0 -215.5 79.5t-73.5 226.5q0 58 12.5 115.5t44 116t78 102.5t120.5 72t166 28q81 0 142 -22t95 -58t48 -79t8 -88h-172v19q0 47 -36.5 69.5t-87.5 22.5q-112 0 -176 -82.5t-64 -201.5
q0 -88 41.5 -136t119.5 -48q67 0 113.5 39t63.5 98h-140z" />
    <glyph glyph-name="H" unicode="H" horiz-adv-x="732" 
d="M248 301l-63 -301h-165l148 700h165l-57 -263h256l57 263h165l-148 -700h-165l63 301h-256z" />
    <glyph glyph-name="I" unicode="I" horiz-adv-x="311" 
d="M168 700h165l-148 -700h-165z" />
    <glyph glyph-name="J" unicode="J" horiz-adv-x="577" 
d="M22 258h165l-6 -28q-6 -26 -6 -39q0 -75 67 -75q48 0 68 26t33 88l100 470h165l-95 -447q-9 -41 -15.5 -65.5t-20.5 -61t-33.5 -59t-48.5 -44.5t-71 -32.5t-96 -10.5q-62 0 -106 15.5t-66.5 43.5t-32.5 58.5t-10 66.5q0 34 9 94z" />
    <glyph glyph-name="K" unicode="K" horiz-adv-x="713" 
d="M271 405l322 295h208l-343 -309l205 -391h-188l-147 305l-96 -83l-47 -222h-165l148 700h165z" />
    <glyph glyph-name="L" unicode="L" horiz-adv-x="581" 
d="M540 136l-29 -136h-491l148 700h165l-119 -564h326z" />
    <glyph glyph-name="M" unicode="M" horiz-adv-x="944" 
d="M357 0l-64 508h-2l-106 -508h-165l148 700h239l61 -481l252 481h246l-148 -700h-165l110 508h-3l-268 -508h-135z" />
    <glyph glyph-name="N" unicode="N" horiz-adv-x="758" 
d="M278 442h-2l-91 -442h-165l148 700h161l193 -440h3l90 440h165l-148 -700h-162z" />
    <glyph glyph-name="O" unicode="O" horiz-adv-x="792" 
d="M364 -20q-80 0 -139.5 22.5t-91.5 54t-51.5 74.5t-24.5 74.5t-5 63.5q0 55 13.5 113.5t45.5 120t79 109t120.5 78t163.5 30.5q146 0 226.5 -76t80.5 -213q0 -55 -13 -113.5t-44.5 -120t-77.5 -109t-119.5 -78t-162.5 -30.5zM377 116q49 0 89 20.5t65 51.5t42 71t23.5 77
t6.5 72q0 176 -148 176q-61 0 -107 -29.5t-70.5 -76.5t-36 -94t-11.5 -92q0 -176 147 -176z" />
    <glyph glyph-name="P" unicode="P" horiz-adv-x="685" 
d="M168 700h327q29 0 54 -3t56.5 -15t53.5 -31.5t37.5 -56t15.5 -85.5q0 -28 -5 -56.5t-24.5 -69t-52 -70.5t-94 -51.5t-143.5 -21.5h-157l-51 -240h-165zM304 564l-40 -188h130q78 0 110.5 29.5t32.5 73.5q0 47 -26 66t-77 19h-130z" />
    <glyph glyph-name="Q" unicode="Q" horiz-adv-x="796" 
d="M632 78l64 -78l-90 -71l-70 87q-65 -36 -171 -36q-22 0 -41 1t-52.5 7.5t-60.5 17t-58 32.5t-52 51.5t-35 75.5t-14 104q0 89 29 170t81.5 143.5t133.5 100t178 37.5q151 0 231 -75t80 -213q0 -100 -39.5 -193t-113.5 -161zM462 283l67 -89q31 30 50 75t23.5 73t4.5 48
q0 194 -145 194q-73 0 -127 -42.5t-79.5 -107.5t-25.5 -140q0 -178 148 -178q41 0 78 18l-73 88z" />
    <glyph glyph-name="R" unicode="R" horiz-adv-x="720" 
d="M22 0l148 700h339q63 0 108 -16.5t66.5 -44t30.5 -55.5t9 -59q0 -70 -43 -130.5t-114 -74.5l-1 -3q73 -25 73 -93q0 -25 -15 -99q-11 -49 -11 -80q0 -19 12 -45h-168q-11 24 -11 46q0 33 10 72q12 55 12 76t-9.5 34.5t-27.5 18.5t-30 6t-31 1h-128l-54 -254h-165z
M306 564l-37 -174h151q64 0 96 28t32 66q0 80 -103 80h-139z" />
    <glyph glyph-name="S" unicode="S" horiz-adv-x="665" 
d="M30 227h168q-4 -13 -4 -32q0 -79 117 -79q45 0 75 9.5t43 25t17.5 28t4.5 26.5q0 10 -2.5 19t-8.5 16l-11 12.5t-17 11t-19 9t-23 8t-24 6.5t-27.5 6.5t-27.5 6.5q-37 9 -57.5 15.5t-51 21.5t-46.5 33t-28.5 48.5t-12.5 69.5q0 105 79 168.5t238 63.5q251 0 251 -169
q0 -22 -3 -43h-157q1 3 1 8v9q0 59 -102 59q-18 0 -36.5 -2.5t-41.5 -9.5t-37 -23t-14 -40q0 -31 26 -47t94 -32q133 -31 184.5 -70t51.5 -117q0 -116 -80 -189.5t-240 -73.5q-284 0 -284 195q0 31 5 52z" />
    <glyph glyph-name="T" unicode="T" horiz-adv-x="608" 
d="M290 564h-211l29 136h587l-29 -136h-211l-119 -564h-165z" />
    <glyph glyph-name="U" unicode="U" horiz-adv-x="733" 
d="M158 700h165l-86 -408q-11 -53 -11 -76q0 -48 31 -74t86 -26q68 0 108 38t61 138l87 408h165l-92 -435q-10 -46 -21 -80t-36 -75t-58.5 -67.5t-90.5 -44.5t-131 -18q-278 0 -278 215q0 26 15 97z" />
    <glyph glyph-name="V" unicode="V" horiz-adv-x="614" 
d="M305 200l231 500h188l-367 -700h-183l-88 700h172z" />
    <glyph glyph-name="W" unicode="W" horiz-adv-x="938" 
d="M531 517l-208 -517h-200l-37 700h168l11 -511l217 511h163l20 -511l203 511h180l-308 -700h-195z" />
    <glyph glyph-name="X" unicode="X" horiz-adv-x="685" 
d="M344 236l-190 -236h-208l325 364l-154 336h188l85 -221l171 221h201l-299 -340l169 -360h-196z" />
    <glyph glyph-name="Y" unicode="Y" horiz-adv-x="640" 
d="M358 410l208 290h184l-340 -436l-56 -264h-165l56 264l-159 436h180z" />
    <glyph glyph-name="Z" unicode="Z" horiz-adv-x="635" 
d="M436 564h-327l31 136h542l-27 -127l-442 -437h375l-30 -136h-585l31 146z" />
    <glyph glyph-name="bracketleft" unicode="[" horiz-adv-x="419" 
d="M200 700h264l-20 -92h-132l-149 -700h132l-19 -93h-264z" />
    <glyph glyph-name="backslash" unicode="\" horiz-adv-x="447" 
d="M354 -185h-80l-179 885h80z" />
    <glyph glyph-name="bracketright" unicode="]" horiz-adv-x="422" 
d="M224 -185h-265l19 93h132l149 700h-132l20 92h264z" />
    <glyph glyph-name="asciicircum" unicode="^" horiz-adv-x="460" 
d="M277 652l-100 -170h-100l130 218h140l130 -218h-100z" />
    <glyph glyph-name="underscore" unicode="_" horiz-adv-x="497" 
d="M0 -185v80h497v-80h-497z" />
    <glyph glyph-name="grave" unicode="`" horiz-adv-x="349" 
d="M274 700l41 -132h-110l-78 132h147z" />
    <glyph glyph-name="a" unicode="a" horiz-adv-x="608" 
d="M236 344h-159q49 183 287 183q204 0 204 -134q0 -13 -9 -56l-51 -232q-9 -36 -9 -59q0 -31 17 -33v-13h-159l-3 50h-3q-72 -69 -175 -69q-26 0 -48.5 4t-50 16t-44 39.5t-16.5 68.5q0 32 10 58.5t24 44.5t38.5 32.5t43.5 22t49.5 14t46 9t43.5 5.5q11 1 33 3.5t31 4
t24.5 5t22 8.5t14.5 13t10.5 20t2.5 28q0 20 -15 34t-49 14q-93 0 -110 -81zM382 210l8 32q-21 -10 -107 -27q-20 -4 -35 -8.5t-33.5 -14t-29 -26.5t-10.5 -40q0 -43 69 -43q30 0 55.5 12.5t39 28t24.5 37t14 31t5 18.5z" />
    <glyph glyph-name="b" unicode="b" horiz-adv-x="638" 
d="M7 0l149 700h152l-50 -229q66 56 170 56q16 0 34 -3.5t46 -17.5t49 -37t36.5 -68t15.5 -104q0 -141 -83.5 -228.5t-196.5 -87.5q-58 0 -95 18t-71 62h-3l-11 -61h-142zM203 261q-6 -28 -6 -59q0 -46 22 -82.5t76 -36.5q42 0 74.5 24t49 61t24.5 72t8 66q0 119 -100 119
q-60 0 -97 -48.5t-51 -115.5z" />
    <glyph glyph-name="c" unicode="c" horiz-adv-x="596" 
d="M397 192h150q-5 -21 -14 -43.5t-30 -54.5t-49.5 -55.5t-76.5 -40.5t-106 -17q-121 0 -181 60.5t-60 156.5q0 42 9 84.5t32 87.5t57.5 79t89.5 56t124 22q67 0 114.5 -15.5t71 -42t33.5 -53.5t10 -58v-16q0 -10 -1 -15h-146q1 3 1 8v9q0 81 -83 81q-40 0 -71 -21.5
t-48.5 -56.5t-26 -72.5t-8.5 -74.5q0 -39 10.5 -65t28.5 -36t31 -13t29 -3q84 0 110 109z" />
    <glyph glyph-name="d" unicode="d" horiz-adv-x="636" 
d="M522 0h-136l11 47h-3q-69 -66 -169 -66q-89 0 -143.5 57.5t-54.5 157.5q0 59 18.5 117t52.5 106.5t89 78t121 29.5q106 0 160 -70l52 243h152zM432 246q7 35 7 60q0 57 -25.5 88t-72.5 31q-50 0 -87 -36t-53 -85t-16 -102t26 -86t74 -33q34 0 61 16.5t44 43.5t26.5 51.5
t15.5 51.5z" />
    <glyph glyph-name="e" unicode="e" horiz-adv-x="628" 
d="M396 147h154q-67 -166 -277 -166q-61 0 -106.5 15.5t-71 38t-41 54t-20 58t-4.5 55.5q0 38 9 78.5t32.5 85.5t58.5 80t93 58t129 23q59 0 104.5 -13.5t71 -34.5t41.5 -50t21 -55.5t5 -55.5q0 -34 -19 -95h-388q-4 -17 -4 -41q0 -99 102 -99q37 0 68 17.5t42 46.5z
M205 302h232q4 20 4 44q0 79 -99 79q-105 0 -137 -123z" />
    <glyph glyph-name="f" unicode="f" horiz-adv-x="381" 
d="M426 508l-20 -102h-115l-87 -406h-152l87 406h-93l21 102h94l9 44q10 50 29 82.5t48 48t58.5 21t71.5 5.5q54 0 90 -9l-20 -99q-30 6 -61 6q-53 0 -65 -61l-8 -38h113z" />
    <glyph glyph-name="g" unicode="g" horiz-adv-x="637" 
d="M19 -40h148q2 -55 90 -55q16 0 28.5 3t31.5 13t34.5 36t23.5 66l8 37h-3q-22 -22 -65 -35t-83 -13q-84 0 -140 51t-56 159q0 133 76.5 219t190.5 86q122 0 169 -75h3l12 56h143l-98 -461q-11 -50 -30 -90t-39 -65t-48 -43t-48.5 -26.5t-49 -13.5t-42 -5.5t-34.5 -0.5
q-26 0 -45 1t-48.5 5.5t-50 15t-40.5 27t-29.5 44.5t-8.5 64zM293 114q52 0 87 36.5t47.5 79t12.5 82.5q0 55 -27.5 84t-71.5 29q-67 0 -107 -63.5t-40 -142.5q0 -49 27 -77t72 -28z" />
    <glyph glyph-name="h" unicode="h" horiz-adv-x="613" 
d="M309 700l-51 -237q64 64 175 64q19 0 38.5 -4.5t45 -16.5t42 -42t16.5 -73q0 -29 -9 -72l-68 -319h-152l63 294q6 32 6 47q0 66 -74 66q-32 0 -56.5 -14.5t-37.5 -38t-18.5 -38.5t-8.5 -30l-61 -286h-152l150 700h152z" />
    <glyph glyph-name="i" unicode="i" horiz-adv-x="274" 
d="M115 508h152l-108 -508h-152zM130 581l26 119h152l-26 -119h-152z" />
    <glyph glyph-name="j" unicode="j" horiz-adv-x="274" 
d="M115 508h152l-113 -533q-9 -44 -26.5 -76t-36 -49t-43 -27t-43 -12.5t-40.5 -2.5q-53 0 -88 7l21 102q14 -2 15 -2q42 0 62.5 16.5t29.5 58.5zM130 581l26 119h152l-26 -119h-152z" />
    <glyph glyph-name="k" unicode="k" horiz-adv-x="563" 
d="M225 307l205 201h181l-236 -220l146 -288h-168l-94 209l-67 -58l-33 -151h-152l150 700h152z" />
    <glyph glyph-name="l" unicode="l" horiz-adv-x="273" 
d="M157 700h152l-150 -700h-152z" />
    <glyph glyph-name="m" unicode="m" horiz-adv-x="918" 
d="M115 508h135l-16 -74q82 93 180 93q60 0 91.5 -25.5t37.5 -66.5q92 92 197 92q64 0 100.5 -35.5t36.5 -99.5q0 -43 -10 -83l-66 -309h-152l64 299q6 32 6 47q0 79 -59 79q-84 0 -116 -127q-1 -4 -1 -6l-63 -292h-152l64 299q7 26 7 53q0 73 -57 73q-34 0 -69 -28.5
t-51 -104.5l-63 -292h-152z" />
    <glyph glyph-name="n" unicode="n" horiz-adv-x="614" 
d="M254 508l-11 -55h2q68 74 188 74q71 0 107 -38.5t36 -97.5q0 -22 -10 -72l-67 -319h-152l62 294q7 37 7 47q0 84 -74 84q-93 0 -122 -139l-61 -286h-152l108 508h139z" />
    <glyph glyph-name="o" unicode="o" horiz-adv-x="631" 
d="M276 -19q-61 0 -107 15t-72 37.5t-42 54.5t-21 60t-5 60q0 39 9.5 80t33.5 84.5t59.5 77.5t93 55.5t128.5 21.5q33 0 62.5 -4t65 -18.5t61 -38.5t42.5 -67t17 -100q0 -82 -36 -153t-111.5 -118t-177.5 -47zM292 83q72 0 111.5 65t39.5 161q0 116 -105 116
q-54 0 -89.5 -39t-48.5 -88t-13 -102q0 -113 105 -113z" />
    <glyph glyph-name="p" unicode="p" horiz-adv-x="637" 
d="M117 508h134l-12 -52h3q73 71 179 71q93 0 140 -57.5t47 -144.5q0 -43 -10 -88.5t-32.5 -91.5t-55 -81.5t-81.5 -58t-107 -22.5q-111 0 -151 69l-51 -237h-152zM205 262q-7 -33 -7 -59q0 -52 24 -85t73 -33q51 0 88 38t52 86.5t15 97.5q0 66 -29.5 92t-68.5 26
q-45 0 -87 -35.5t-60 -127.5z" />
    <glyph glyph-name="q" unicode="q" horiz-adv-x="637" 
d="M630 508l-147 -693h-152l47 223q-57 -57 -151 -57t-147 59t-53 160q0 77 30.5 150t96.5 125t154 52q110 0 166 -80h1l13 61h142zM285 83q41 0 73 24.5t48.5 62t25 74t8.5 68.5q0 61 -29 87t-69 26q-61 0 -109 -57t-48 -165q0 -120 100 -120z" />
    <glyph glyph-name="r" unicode="r" horiz-adv-x="421" 
d="M466 517l-25 -121q-17 4 -40 4q-33 0 -65 -9t-68 -43t-52 -90q-1 -3 -12 -50l-45 -208h-152l107 508h146l-15 -72q69 83 193 83q10 0 28 -2z" />
    <glyph glyph-name="s" unicode="s" horiz-adv-x="556" 
d="M10 160h156q-1 -3 -1 -9v-9q0 -59 93 -59q35 0 62.5 17t27.5 45t-20 40t-61 21q-12 3 -43 9.5t-43.5 9.5t-36.5 11t-34 16t-23 21t-18 30.5t-5 39.5q0 75 63 129.5t195 54.5q209 0 209 -130q0 -14 -3 -29h-137q1 3 1 9v10q0 38 -75 38q-95 0 -95 -55q0 -19 11.5 -31
t24 -16t31.5 -7q11 -2 39 -6.5t38.5 -6.5l33 -6.5t31.5 -8.5l24.5 -11t22 -15t14.5 -19t11 -25t3 -31q0 -20 -3 -40t-18.5 -52t-42 -55.5t-79 -41t-124.5 -17.5q-63 0 -111 11t-84 44.5t-36 87.5v18q0 6 2 18z" />
    <glyph glyph-name="t" unicode="t" horiz-adv-x="383" 
d="M45 406l22 102h91l32 152h152l-32 -152h109l-22 -102h-109l-52 -244q-5 -22 -5 -34q0 -36 53 -36q18 0 48 10l-22 -102q-63 -14 -114 -14q-72 0 -98 26.5t-26 68.5q0 26 6 53l58 272h-91z" />
    <glyph glyph-name="u" unicode="u" horiz-adv-x="609" 
d="M355 0l12 56h-3q-74 -75 -187 -75q-37 0 -64.5 11.5t-41.5 27.5t-22.5 36.5t-10.5 34t-2 26.5q0 43 6 73l68 318h152l-62 -294q-7 -37 -7 -46q0 -34 16.5 -59.5t58.5 -25.5q94 0 121 140l61 285h152l-109 -508h-138z" />
    <glyph glyph-name="v" unicode="v" horiz-adv-x="498" 
d="M238 165l170 343h157l-288 -508h-147l-85 508h162z" />
    <glyph glyph-name="w" unicode="w" horiz-adv-x="784" 
d="M411 328l-141 -328h-167l-58 508h155l24 -331l139 331h159l13 -331l147 331h169l-260 -508h-166z" />
    <glyph glyph-name="x" unicode="x" horiz-adv-x="541" 
d="M292 363l114 145h183l-233 -251l126 -257h-161l-68 153l-125 -153h-182l246 270l-125 238h166z" />
    <glyph glyph-name="y" unicode="y" horiz-adv-x="555" 
d="M2 -185l22 102q14 -7 48 -7q19 0 32.5 5t24.5 18t16 21t15 27l14 25l-116 502h163l67 -344l163 344h161l-290 -535q-51 -92 -96 -129.5t-119 -37.5q-69 0 -105 9z" />
    <glyph glyph-name="z" unicode="z" horiz-adv-x="512" 
d="M80 406l22 102h425l-23 -109l-320 -297h271l-23 -102h-459l22 107l327 299h-242z" />
    <glyph glyph-name="braceleft" unicode="{" horiz-adv-x="503" 
d="M131 249l19 93q27 1 49 15t34 31t21.5 46.5t13 46t8.5 44.5q6 43 17 76t34.5 68.5t67.5 54t106 15.5l-15 -73q-29 -8 -47 -20t-28 -34.5t-14 -39t-9 -52.5q-4 -30 -8.5 -51t-15.5 -49.5t-27 -48.5t-43.5 -40t-64.5 -32l-1 -7q41 -20 62.5 -43t21.5 -61q0 -50 -19 -117
q-17 -60 -17 -93q0 -19 15 -33.5t38 -19.5l-15 -73q-26 -1 -50 2.5t-48.5 13.5t-39 33t-14.5 56q-2 40 17 110t18 104q0 69 -66 78z" />
    <glyph glyph-name="bar" unicode="|" horiz-adv-x="469" 
d="M189 -224v1053h80v-1053h-80z" />
    <glyph glyph-name="braceright" unicode="}" horiz-adv-x="505" 
d="M383 342l-19 -93q-43 -5 -71 -35t-38 -63.5t-18 -84.5q-5 -34 -10.5 -56t-21 -56.5t-37.5 -54.5t-62 -34.5t-93 -12.5l15 73q14 3 25.5 7t20.5 12.5t15.5 14t12 18t8.5 17.5t6 20.5t4 18.5t4 21l2 17q10 83 41 134.5t118 86.5l1 7q-84 38 -84 104q0 52 19 117
q16 51 16 92q0 39 -52 54l15 73q19 2 40 -0.5t49 -11t46 -32.5t18 -61q0 -45 -19 -109q-18 -68 -18 -106q0 -34 19 -55t48 -22z" />
    <glyph glyph-name="asciitilde" unicode="~" horiz-adv-x="664" 
d="M139 268l-69 36q13 34 32 64.5t54.5 57t76.5 26.5q45 0 87 -23l103 -55q24 -13 52 -13q52 0 86 81l69 -36q-13 -34 -32 -64.5t-54.5 -57t-76.5 -26.5q-45 0 -87 23l-103 55q-23 13 -53 13q-60 0 -85 -81z" />
    <glyph glyph-name="exclamdown" unicode="&#xa1;" horiz-adv-x="388" 
d="M186 -185h-174l38 177l106 292h86l-19 -292zM329 508l-34 -158h-165l34 158h165z" />
    <glyph glyph-name="cent" unicode="&#xa2;" horiz-adv-x="650" 
d="M425 192h150q-65 -204 -257 -209l-25 -115h-79l24 117q-75 11 -128 64.5t-53 148.5q0 36 8 75.5t29 85.5t53 82t85.5 60.5t120.5 25.5l23 107h79l-22 -110q166 -27 166 -166v-16q0 -10 -1 -15h-147q1 3 1 8v9q0 13 -2 23.5t-9 25.5t-25.5 23.5t-46.5 8.5
q-71 0 -111.5 -68t-40.5 -157q0 -10 0.5 -19t6 -28.5t14.5 -33t29 -24.5t47 -11q85 0 111 108z" />
    <glyph glyph-name="sterling" unicode="&#xa3;" horiz-adv-x="650" 
d="M523 169l64 -95q-102 -89 -185 -89q-47 0 -126 32q-41 19 -77 19q-47 0 -103 -39l-64 113q75 50 99 88t24 73v20h-101l17 79h69q-20 57 -20 96q0 108 77.5 177.5t198.5 69.5q253 0 253 -179q0 -30 -10 -76h-151q10 38 10 63q0 40 -26.5 59t-63.5 19q-50 0 -90 -32.5
t-40 -98.5q0 -25 9 -51.5t12 -46.5h135l-17 -79h-114q0 -79 -78 -149l4 -6q25 16 64 16q30 0 72 -16q36 -14 65 -14q46 0 93 47z" />
    <glyph glyph-name="currency" unicode="&#xa4;" horiz-adv-x="830" 
d="M427 41q-102 0 -170 57l-111 -111l-66 66l111 111q-53 75 -53 166q0 94 53 166l-111 112l66 66l111 -112q68 57 170 57t170 -57l111 112l66 -66l-111 -112q53 -72 53 -166q0 -91 -53 -166l111 -111l-66 -66l-111 111q-68 -57 -170 -57zM427 544q-88 0 -151 -63t-63 -151
q0 -87 63 -150.5t151 -63.5t151 63.5t63 150.5q0 88 -63 151t-151 63z" />
    <glyph glyph-name="yen" unicode="&#xa5;" horiz-adv-x="650" 
d="M363 410l208 290h184l-340 -436l-8 -37h93l-8 -41h-94l-8 -36h94l-7 -42h-95l-23 -108h-165l23 108h-94l9 42h93l8 36h-94l10 41h93l8 37l-159 436h180z" />
    <glyph glyph-name="brokenbar" unicode="&#xa6;" horiz-adv-x="469" 
d="M189 176h80v-400h-80v400zM269 429h-80v400h80v-400z" />
    <glyph glyph-name="section" unicode="&#xa7;" horiz-adv-x="620" 
d="M563 530h-123q3 12 3 23q0 54 -67 54q-35 0 -55.5 -22t-20.5 -50q0 -19 17 -33t33.5 -20t57.5 -18l44.5 -15t41.5 -19t41 -29t25.5 -40.5t11.5 -56.5q0 -71 -37.5 -119t-92.5 -71q34 -37 34 -90q0 -18 -3 -38.5t-17 -50.5t-36.5 -53t-67.5 -40t-104 -17q-200 0 -200 142
q0 35 5 59h125q-3 -14 -3 -26q0 -60 83 -60q37 0 55 20t18 51q0 24 -17 37t-67 30q-37 12 -55 18.5t-45 18t-40.5 23t-27.5 28.5t-19.5 39t-5.5 50q0 52 28.5 102.5t104.5 79.5q-30 31 -30 88q0 78 56.5 133t161.5 55q108 0 150 -40.5t42 -97.5q0 -4 -4 -45zM257 215
l112 -35q77 20 77 88q0 30 -20 44.5t-54 24.5l-113 37q-37 -14 -56 -32t-19 -52q0 -30 18.5 -47t54.5 -28z" />
    <glyph glyph-name="dieresis" unicode="&#xa8;" horiz-adv-x="534" 
d="M119 581l26 119h152l-26 -119h-152zM401 581l26 119h152l-26 -119h-152z" />
    <glyph glyph-name="copyright" unicode="&#xa9;" horiz-adv-x="809" 
d="M73 350q0 145 102 247.5t248 102.5q142 0 246 -103t104 -247t-104 -247t-246 -103q-146 0 -248 102.5t-102 247.5zM158 350q0 -117 77 -197.5t188 -80.5q110 0 187.5 80.5t77.5 197.5t-77.5 197.5t-187.5 80.5q-111 0 -188 -80.5t-77 -197.5zM470 297h81
q-34 -125 -158 -125q-65 0 -104.5 33t-39.5 94q0 59 19 111.5t64 90.5t109 38q20 0 39.5 -3.5t41.5 -12.5t36 -29.5t14 -50.5q0 -5 -2 -19h-79q1 2 1 9q0 18 -13.5 29t-37.5 11q-44 0 -73.5 -49.5t-29.5 -111.5q0 -41 19.5 -57.5t45.5 -16.5q47 0 67 59z" />
    <glyph glyph-name="ordfeminine" unicode="&#xaa;" horiz-adv-x="393" 
d="M211 610h-96q31 110 172 110q123 0 123 -80q0 -10 -6 -34l-30 -139q-6 -23 -6 -35q0 -16 11 -20v-8h-96l-2 30h-1q-45 -41 -105 -41q-31 0 -52 8.5t-29.5 22t-11.5 24t-3 21.5q0 98 153 112q57 5 70 15q13 11 13 34q0 29 -38 29q-60 0 -66 -49zM298 530l5 19
q-15 -7 -64 -16q-39 -7 -52 -21t-13 -32q0 -26 41 -26q11 0 20.5 2t16.5 6.5l13.5 9t11 11l8 12t6 12t3.5 10.5t2 9zM77 293v48h298v-48h-298z" />
    <glyph glyph-name="guillemotleft" unicode="&#xab;" horiz-adv-x="470" 
d="M75 338l179 137l-30 -145l-99 -75l67 -70l-26 -125l-122 136zM266 338l179 137l-30 -145l-99 -75l68 -70l-26 -125l-122 136z" />
    <glyph glyph-name="logicalnot" unicode="&#xac;" horiz-adv-x="675" 
d="M73 390h566v-224h-85v144h-481v80z" />
    <glyph glyph-name="registered" unicode="&#xae;" horiz-adv-x="809" 
d="M73 350q0 145 102 247.5t248 102.5q142 0 246 -103t104 -247t-104 -247t-246 -103q-146 0 -248 102.5t-102 247.5zM157 350q0 -117 77 -197.5t189 -80.5q110 0 187.5 80.5t77.5 197.5t-77 197.5t-188 80.5q-112 0 -189 -80.5t-77 -197.5zM262 178l75 350h142
q110 0 110 -81q0 -34 -21.5 -62.5t-58.5 -37.5l-1 -1q37 -11 37 -51q0 -10 -7 -45q-7 -32 -7 -54q0 -8 7 -18h-86q-4 9 -4 21q0 1 7 55q2 16 2 25q0 20 -12.5 28.5t-53.5 8.5h-17l-29 -138h-83zM407 467l-19 -90h56q25 0 41 16t16 36q0 38 -58 38h-36z" />
    <glyph glyph-name="macron" unicode="&#xaf;" horiz-adv-x="484" 
d="M124 600l18 86h384l-18 -86h-384z" />
    <glyph glyph-name="macron" unicode="&#x2c9;" horiz-adv-x="484" 
d="M124 600l18 86h384l-18 -86h-384z" />
    <glyph glyph-name="degree" unicode="&#xb0;" horiz-adv-x="295" 
d="M111 605q0 46 33 79t79 33t79 -33t33 -79t-33 -79t-79 -33t-79 33t-33 79zM169 605q0 -23 15.5 -38.5t38.5 -15.5t38.5 15.5t15.5 38.5t-15.5 38.5t-38.5 15.5t-38.5 -15.5t-15.5 -38.5z" />
    <glyph glyph-name="plusminus" unicode="&#xb1;" horiz-adv-x="675" 
d="M73 450h243v220h80v-220h243v-80h-243v-180h-80v180h-243v80zM73 140h566v-80h-566v80z" />
    <glyph glyph-name="twosuperior" unicode="&#xb2;" horiz-adv-x="450" 
d="M415 353l-16 -73h-322q13 63 43.5 94.5t100.5 73.5q13 8 42 23.5t43 24.5t32 24t26 31.5t8 37.5q0 50 -61 50q-41 0 -62 -27t-24 -57h-92q33 157 180 157q14 0 28 -1t38.5 -7.5t42 -17.5t31.5 -33.5t14 -52.5q0 -54 -30 -89t-94 -71q-24 -14 -51.5 -27.5l-40 -20
t-24.5 -16.5t-19 -23h207z" />
    <glyph glyph-name="threesuperior" unicode="&#xb3;" horiz-adv-x="421" 
d="M79 425h94q-3 -12 -3 -24q0 -60 66 -60q45 0 64 24.5t19 53.5q0 44 -55 44h-42l15 69h32q80 0 80 59q0 48 -64 48q-67 0 -80 -78h-90q9 48 28 80t46 46.5t50.5 19.5t53.5 5q145 0 145 -100q0 -93 -95 -116l-1 -1q70 -13 70 -80q0 -15 -3 -31t-15 -38t-30.5 -38.5t-54 -28
t-81.5 -11.5q-151 0 -151 116v20q0 7 2 21z" />
    <glyph glyph-name="acute" unicode="&#xb4;" horiz-adv-x="345" 
d="M249 700h160l-128 -132h-116z" />
    <glyph glyph-name="mu" unicode="&#xb5;" horiz-adv-x="619" 
d="M-28 -185l148 693h152l-58 -266q-6 -25 -6 -71q0 -29 8.5 -48.5t22 -27t22.5 -10t18 -2.5q24 0 44 12.5t32 27t23 41t15 40t10 38.5l57 266h152l-108 -508h-152l16 75q-16 -39 -49.5 -66.5t-64.5 -27.5q-29 0 -53 25t-22 69l-55 -260h-152z" />
    <glyph glyph-name="mu" unicode="&#x3bc;" horiz-adv-x="619" 
d="M-28 -185l148 693h152l-58 -266q-6 -25 -6 -71q0 -29 8.5 -48.5t22 -27t22.5 -10t18 -2.5q24 0 44 12.5t32 27t23 41t15 40t10 38.5l57 266h152l-108 -508h-152l16 75q-16 -39 -49.5 -66.5t-64.5 -27.5q-29 0 -53 25t-22 69l-55 -260h-152z" />
    <glyph glyph-name="paragraph" unicode="&#xb6;" horiz-adv-x="533" 
d="M226 -185v555q-78 2 -122 52.5t-44 112.5q0 69 48.5 117t117.5 48h80v-885h-80zM386 -185v885h80v-885h-80z" />
    <glyph glyph-name="periodcentered" unicode="&#xb7;" horiz-adv-x="250" 
d="M26 189l33 158h165l-33 -158h-165z" />
    <glyph glyph-name="periodcentered" unicode="&#x22c5;" horiz-adv-x="250" 
d="M26 189l33 158h165l-33 -158h-165z" />
    <glyph glyph-name="periodcentered" unicode="&#x2219;" horiz-adv-x="250" 
d="M26 189l33 158h165l-33 -158h-165z" />
    <glyph glyph-name="cedilla" unicode="&#xb8;" horiz-adv-x="302" 
d="M30 -228l32 62q21 -9 54 -9q57 0 57 32t-51 32q-29 0 -34 -1l28 56q6 1 17 1h18q126 0 126 -87q0 -39 -37.5 -68.5t-121.5 -29.5q-39 0 -88 12z" />
    <glyph glyph-name="onesuperior" unicode="&#xb9;" horiz-adv-x="281" 
d="M77 575l11 50h12q9 0 22 2.5t33 9t39 23t30 40.5h74l-89 -420h-99l62 295h-95z" />
    <glyph glyph-name="ordmasculine" unicode="&#xba;" horiz-adv-x="415" 
d="M237 393q-148 0 -148 136q0 29 10 60t31 61.5t61 50t93 19.5q148 0 148 -137q0 -81 -53.5 -135.5t-141.5 -54.5zM247 454q27 0 46.5 15.5t28.5 39.5t12.5 44t3.5 36q0 70 -63 70q-43 0 -67 -39.5t-24 -97.5q0 -68 63 -68zM77 293v48h298v-48h-298z" />
    <glyph glyph-name="guillemotright" unicode="&#xbb;" horiz-adv-x="470" 
d="M208 196l-180 -137l30 145l100 72l-68 71l26 127l122 -136zM399 196l-179 -137l30 145l99 72l-68 71l27 127l121 -136z" />
    <glyph glyph-name="onequarter" unicode="&#xbc;" horiz-adv-x="886" 
d="M102 575l11 50h12q9 0 22 2.5t33 9t39 23t30 40.5h74l-89 -420h-99l62 295h-95zM107 0l603 700h105l-602 -700h-106zM653 94h-203l17 81l250 245h100l-53 -253h57l-16 -73h-57l-20 -94h-95zM552 167h120l33 155z" />
    <glyph glyph-name="onehalf" unicode="&#xbd;" horiz-adv-x="951" 
d="M102 575l11 50h12q9 0 22 2.5t33 9t39 23t30 40.5h74l-89 -420h-99l62 295h-95zM834 73l-16 -73h-322q13 63 43.5 94.5t100.5 73.5q13 8 42 23.5t43 24.5t32 24t26 31.5t8 37.5q0 50 -61 50q-41 0 -62 -27t-24 -57h-92q33 157 180 157q14 0 28 -1t38.5 -7.5t42 -17.5
t31.5 -33.5t14 -52.5q0 -54 -30 -89t-94 -71q-24 -14 -51.5 -27.5l-40 -20t-24.5 -16.5t-19 -23h207zM107 0l603 700h105l-602 -700h-106z" />
    <glyph glyph-name="threequarters" unicode="&#xbe;" horiz-adv-x="991" 
d="M758 94h-203l17 81l250 245h100l-53 -253h57l-16 -73h-57l-20 -94h-95zM657 167h120l33 155zM212 0l603 700h105l-602 -700h-106zM104 437h94q-3 -12 -3 -24q0 -60 66 -60q45 0 64 24.5t19 53.5q0 44 -55 44h-42l15 69h32q80 0 80 59q0 48 -64 48q-67 0 -80 -78h-90
q9 48 28 80t46 46.5t50.5 19.5t53.5 5q145 0 145 -100q0 -93 -95 -116l-1 -1q70 -13 70 -80q0 -15 -3 -31t-15 -38t-30.5 -38.5t-54 -28t-81.5 -11.5q-151 0 -151 116v20q0 7 2 21z" />
    <glyph glyph-name="questiondown" unicode="&#xbf;" horiz-adv-x="589" 
d="M342 31h155q-23 -120 -94 -176t-197 -56q-122 0 -174.5 47t-52.5 112q0 99 75 156q31 25 83 51.5t76.5 50.5t30.5 68h126q-12 -80 -41.5 -118.5t-100.5 -78.5q-51 -27 -69 -51t-18 -61q0 -61 84 -61q19 0 33.5 3.5t32 14t31 36t20.5 63.5zM437 508l-33 -158h-166l33 158
h166z" />
    <glyph glyph-name="Agrave" unicode="&#xc0;" horiz-adv-x="677" 
d="M348 700h167l114 -700h-171l-17 131h-254l-73 -131h-177zM247 250h183l-35 267zM508 898l40 -132h-109l-78 132h147z" />
    <glyph glyph-name="Aacute" unicode="&#xc1;" horiz-adv-x="677" 
d="M348 700h167l114 -700h-171l-17 131h-254l-73 -131h-177zM247 250h183l-35 267zM425 898h158l-126 -132h-116z" />
    <glyph glyph-name="Acircumflex" unicode="&#xc2;" horiz-adv-x="677" 
d="M348 700h167l114 -700h-171l-17 131h-254l-73 -131h-177zM247 250h183l-35 267zM375 898h200l83 -132h-114l-73 92l-113 -92h-122z" />
    <glyph glyph-name="Atilde" unicode="&#xc3;" horiz-adv-x="677" 
d="M348 700h167l114 -700h-171l-17 131h-254l-73 -131h-177zM247 250h183l-35 267zM600 894h93q-53 -128 -143 -128q-41 0 -94 25q-48 25 -79 25q-38 0 -53 -40h-93q19 47 55.5 86t87.5 39q46 0 92 -24q52 -27 81 -27q19 0 33 12.5t20 31.5z" />
    <glyph glyph-name="Adieresis" unicode="&#xc4;" horiz-adv-x="677" 
d="M348 700h167l114 -700h-171l-17 131h-254l-73 -131h-177zM247 250h183l-35 267zM250 766l22 106h142l-22 -106h-142zM498 766l22 106h142l-22 -106h-142z" />
    <glyph glyph-name="Aring" unicode="&#xc5;" horiz-adv-x="677" 
d="M348 700h167l114 -700h-171l-17 131h-254l-73 -131h-177zM247 250h183l-35 267zM345 863q0 41 28.5 69.5t69.5 28.5t69.5 -28.5t28.5 -69.5t-28.5 -69.5t-69.5 -28.5t-69.5 28.5t-28.5 69.5zM399 863q0 -18 13 -31t31 -13t31 13t13 31t-13 31t-31 13t-31 -13t-13 -31z
" />
    <glyph glyph-name="AE" unicode="&#xc6;" horiz-adv-x="1069" 
d="M715 425h315l-27 -136h-315l-34 -153h371l-29 -136h-536l31 144h-249l-106 -144h-206l541 700h665l-29 -136h-362zM520 280l60 284h-26l-211 -284h177z" />
    <glyph glyph-name="Ccedilla" unicode="&#xc7;" horiz-adv-x="729" 
d="M538 247h164q-13 -46 -36.5 -88t-64 -85t-106.5 -68.5t-149 -25.5q-146 0 -220 79.5t-74 205.5q0 52 10.5 107.5t39 119.5t72 113t117.5 82t167 33q39 0 73.5 -4t75 -17t69 -34.5t48 -60.5t19.5 -91q0 -34 -3 -51h-163q1 3 1 10v11q0 101 -127 101q-47 0 -86 -20.5
t-63.5 -52t-41 -71.5t-23.5 -77.5t-7 -72.5q0 -47 11.5 -81.5t26.5 -51.5t35.5 -27t33.5 -12t26 -2q125 0 175 131zM210 -228l32 62q21 -9 54 -9q57 0 57 32t-51 32q-29 0 -34 -1l28 56q6 1 17 1h18q126 0 126 -87q0 -39 -37.5 -68.5t-121.5 -29.5q-39 0 -88 12z" />
    <glyph glyph-name="Egrave" unicode="&#xc8;" horiz-adv-x="655" 
d="M275 425h342l-27 -136h-344l-32 -153h397l-28 -136h-563l148 700h554l-28 -136h-390zM497 898l40 -132h-109l-78 132h147z" />
    <glyph glyph-name="Eacute" unicode="&#xc9;" horiz-adv-x="655" 
d="M275 425h342l-27 -136h-344l-32 -153h397l-28 -136h-563l148 700h554l-28 -136h-390zM414 898h158l-126 -132h-116z" />
    <glyph glyph-name="Ecircumflex" unicode="&#xca;" horiz-adv-x="655" 
d="M275 425h342l-27 -136h-344l-32 -153h397l-28 -136h-563l148 700h554l-28 -136h-390zM364 898h200l83 -132h-114l-73 92l-113 -92h-122z" />
    <glyph glyph-name="Edieresis" unicode="&#xcb;" horiz-adv-x="655" 
d="M275 425h342l-27 -136h-344l-32 -153h397l-28 -136h-563l148 700h554l-28 -136h-390zM239 766l22 106h142l-22 -106h-142zM487 766l22 106h142l-22 -106h-142z" />
    <glyph glyph-name="Igrave" unicode="&#xcc;" horiz-adv-x="311" 
d="M168 700h165l-148 -700h-165zM325 898l40 -132h-109l-78 132h147z" />
    <glyph glyph-name="Iacute" unicode="&#xcd;" horiz-adv-x="311" 
d="M168 700h165l-148 -700h-165zM242 898h158l-126 -132h-116z" />
    <glyph glyph-name="Icircumflex" unicode="&#xce;" horiz-adv-x="311" 
d="M168 700h165l-148 -700h-165zM193 898h200l83 -132h-114l-73 92l-113 -92h-122z" />
    <glyph glyph-name="Idieresis" unicode="&#xcf;" horiz-adv-x="352" 
d="M191 700h165l-149 -700h-165zM138 766l22 106h122l-22 -106h-122zM315 766l22 106h122l-22 -106h-122z" />
    <glyph glyph-name="Eth" unicode="&#xd0;" horiz-adv-x="782" 
d="M193 700h301q277 0 277 -246q0 -53 -10.5 -107.5t-40.5 -118.5t-76.5 -113t-127.5 -82t-185 -33h-286l73 345h-98l18 86h98zM330 564l-29 -133h159l-18 -86h-159l-44 -209h105q68 0 118.5 28.5t77 75.5t38.5 96.5t12 101.5q0 126 -145 126h-115z" />
    <glyph glyph-name="Ntilde" unicode="&#xd1;" horiz-adv-x="758" 
d="M278 442h-2l-91 -442h-165l148 700h161l193 -440h3l90 440h165l-148 -700h-162zM641 894h93q-53 -128 -143 -128q-41 0 -94 25q-48 25 -79 25q-38 0 -53 -40h-93q19 47 55.5 86t87.5 39q46 0 92 -24q52 -27 81 -27q19 0 33 12.5t20 31.5z" />
    <glyph glyph-name="Ograve" unicode="&#xd2;" horiz-adv-x="792" 
d="M364 -20q-80 0 -139.5 22.5t-91.5 54t-51.5 74.5t-24.5 74.5t-5 63.5q0 55 13.5 113.5t45.5 120t79 109t120.5 78t163.5 30.5q146 0 226.5 -76t80.5 -213q0 -55 -13 -113.5t-44.5 -120t-77.5 -109t-119.5 -78t-162.5 -30.5zM377 116q49 0 89 20.5t65 51.5t42 71t23.5 77
t6.5 72q0 176 -148 176q-61 0 -107 -29.5t-70.5 -76.5t-36 -94t-11.5 -92q0 -176 147 -176zM565 898l40 -132h-109l-78 132h147z" />
    <glyph glyph-name="Oacute" unicode="&#xd3;" horiz-adv-x="792" 
d="M364 -20q-80 0 -139.5 22.5t-91.5 54t-51.5 74.5t-24.5 74.5t-5 63.5q0 55 13.5 113.5t45.5 120t79 109t120.5 78t163.5 30.5q146 0 226.5 -76t80.5 -213q0 -55 -13 -113.5t-44.5 -120t-77.5 -109t-119.5 -78t-162.5 -30.5zM377 116q49 0 89 20.5t65 51.5t42 71t23.5 77
t6.5 72q0 176 -148 176q-61 0 -107 -29.5t-70.5 -76.5t-36 -94t-11.5 -92q0 -176 147 -176zM482 898h158l-126 -132h-116z" />
    <glyph glyph-name="Ocircumflex" unicode="&#xd4;" horiz-adv-x="792" 
d="M364 -20q-80 0 -139.5 22.5t-91.5 54t-51.5 74.5t-24.5 74.5t-5 63.5q0 55 13.5 113.5t45.5 120t79 109t120.5 78t163.5 30.5q146 0 226.5 -76t80.5 -213q0 -55 -13 -113.5t-44.5 -120t-77.5 -109t-119.5 -78t-162.5 -30.5zM377 116q49 0 89 20.5t65 51.5t42 71t23.5 77
t6.5 72q0 176 -148 176q-61 0 -107 -29.5t-70.5 -76.5t-36 -94t-11.5 -92q0 -176 147 -176zM433 898h200l83 -132h-114l-73 92l-113 -92h-122z" />
    <glyph glyph-name="Otilde" unicode="&#xd5;" horiz-adv-x="792" 
d="M364 -20q-80 0 -139.5 22.5t-91.5 54t-51.5 74.5t-24.5 74.5t-5 63.5q0 55 13.5 113.5t45.5 120t79 109t120.5 78t163.5 30.5q146 0 226.5 -76t80.5 -213q0 -55 -13 -113.5t-44.5 -120t-77.5 -109t-119.5 -78t-162.5 -30.5zM377 116q49 0 89 20.5t65 51.5t42 71t23.5 77
t6.5 72q0 176 -148 176q-61 0 -107 -29.5t-70.5 -76.5t-36 -94t-11.5 -92q0 -176 147 -176zM658 894h93q-53 -128 -143 -128q-41 0 -94 25q-48 25 -79 25q-38 0 -53 -40h-93q19 47 55.5 86t87.5 39q46 0 92 -24q52 -27 81 -27q19 0 33 12.5t20 31.5z" />
    <glyph glyph-name="Odieresis" unicode="&#xd6;" horiz-adv-x="792" 
d="M364 -20q-80 0 -139.5 22.5t-91.5 54t-51.5 74.5t-24.5 74.5t-5 63.5q0 55 13.5 113.5t45.5 120t79 109t120.5 78t163.5 30.5q146 0 226.5 -76t80.5 -213q0 -55 -13 -113.5t-44.5 -120t-77.5 -109t-119.5 -78t-162.5 -30.5zM377 116q49 0 89 20.5t65 51.5t42 71t23.5 77
t6.5 72q0 176 -148 176q-61 0 -107 -29.5t-70.5 -76.5t-36 -94t-11.5 -92q0 -176 147 -176zM308 766l22 106h142l-22 -106h-142zM556 766l22 106h142l-22 -106h-142z" />
    <glyph glyph-name="multiply" unicode="&#xd7;" horiz-adv-x="675" 
d="M118 168l182 182l-182 182l56 56l182 -182l182 182l56 -56l-182 -182l182 -182l-56 -56l-182 182l-182 -182z" />
    <glyph glyph-name="Oslash" unicode="&#xd8;" horiz-adv-x="790" 
d="M842 716l-112 -106q52 -67 52 -179q0 -120 -47.5 -221t-144.5 -165.5t-226 -64.5q-160 0 -223 70l-98 -92l-41 42l100 96q-49 77 -49 173q0 89 29 170t81.5 143.5t133.5 100t178 37.5q65 0 115 -13.5t101 -51.5l109 103zM597 485l-336 -320q37 -49 116 -49q61 0 107.5 30
t71 76.5t36.5 94t12 91.5q0 50 -7 77zM236 223l335 318q-42 43 -115 43q-58 0 -103 -27t-70.5 -71t-38.5 -93.5t-13 -100.5q0 -45 5 -69z" />
    <glyph glyph-name="Ugrave" unicode="&#xd9;" horiz-adv-x="733" 
d="M158 700h165l-86 -408q-11 -53 -11 -76q0 -48 31 -74t86 -26q68 0 108 38t61 138l87 408h165l-92 -435q-10 -46 -21 -80t-36 -75t-58.5 -67.5t-90.5 -44.5t-131 -18q-278 0 -278 215q0 26 15 97zM536 898l40 -132h-109l-78 132h147z" />
    <glyph glyph-name="Uacute" unicode="&#xda;" horiz-adv-x="733" 
d="M158 700h165l-86 -408q-11 -53 -11 -76q0 -48 31 -74t86 -26q68 0 108 38t61 138l87 408h165l-92 -435q-10 -46 -21 -80t-36 -75t-58.5 -67.5t-90.5 -44.5t-131 -18q-278 0 -278 215q0 26 15 97zM453 898h158l-126 -132h-116z" />
    <glyph glyph-name="Ucircumflex" unicode="&#xdb;" horiz-adv-x="733" 
d="M158 700h165l-86 -408q-11 -53 -11 -76q0 -48 31 -74t86 -26q68 0 108 38t61 138l87 408h165l-92 -435q-10 -46 -21 -80t-36 -75t-58.5 -67.5t-90.5 -44.5t-131 -18q-278 0 -278 215q0 26 15 97zM403 898h200l83 -132h-114l-73 92l-113 -92h-122z" />
    <glyph glyph-name="Udieresis" unicode="&#xdc;" horiz-adv-x="733" 
d="M158 700h165l-86 -408q-11 -53 -11 -76q0 -48 31 -74t86 -26q68 0 108 38t61 138l87 408h165l-92 -435q-10 -46 -21 -80t-36 -75t-58.5 -67.5t-90.5 -44.5t-131 -18q-278 0 -278 215q0 26 15 97zM278 766l22 106h142l-22 -106h-142zM526 766l22 106h142l-22 -106h-142z
" />
    <glyph glyph-name="Yacute" unicode="&#xdd;" horiz-adv-x="640" 
d="M358 410l208 290h184l-340 -436l-56 -264h-165l56 264l-159 436h180zM406 898h158l-126 -132h-116z" />
    <glyph glyph-name="Thorn" unicode="&#xde;" horiz-adv-x="660" 
d="M168 700h165l-25 -120h162q29 0 54 -3t56.5 -15t53.5 -31.5t37.5 -56t15.5 -85.5q0 -28 -5 -56.5t-24.5 -69t-52 -70.5t-94 -51.5t-143.5 -21.5h-157l-26 -120h-165zM278 444l-40 -188h130q78 0 110.5 29.5t32.5 73.5q0 47 -26 66t-77 19h-130z" />
    <glyph glyph-name="germandbls" unicode="&#xdf;" horiz-adv-x="615" 
d="M7 0l93 440q6 29 9 42t11.5 43.5t17.5 47l24 42t34.5 40.5t45 30t59.5 22t75 7q103 0 155 -46t52 -110q0 -50 -28 -93t-87 -63l-1 -2q49 -13 80.5 -54.5t31.5 -109.5q0 -106 -77.5 -174.5t-190.5 -68.5q-45 0 -96 7l22 102q18 -7 41 -7q39 0 68 14.5t44 37.5t22 46t7 45
q0 98 -115 98h-17l21 102h16q14 0 29.5 3.5t35.5 13t33 32t13 54.5q0 68 -67 68q-24 0 -43 -10.5t-29.5 -23.5t-19 -36t-11.5 -36.5t-7 -36.5l-100 -466h-151z" />
    <glyph glyph-name="agrave" unicode="&#xe0;" horiz-adv-x="608" 
d="M236 344h-159q49 183 287 183q204 0 204 -134q0 -13 -9 -56l-51 -232q-9 -36 -9 -59q0 -31 17 -33v-13h-159l-3 50h-3q-72 -69 -175 -69q-26 0 -48.5 4t-50 16t-44 39.5t-16.5 68.5q0 32 10 58.5t24 44.5t38.5 32.5t43.5 22t49.5 14t46 9t43.5 5.5q11 1 33 3.5t31 4
t24.5 5t22 8.5t14.5 13t10.5 20t2.5 28q0 20 -15 34t-49 14q-93 0 -110 -81zM382 210l8 32q-21 -10 -107 -27q-20 -4 -35 -8.5t-33.5 -14t-29 -26.5t-10.5 -40q0 -43 69 -43q30 0 55.5 12.5t39 28t24.5 37t14 31t5 18.5zM403 700l41 -132h-110l-78 132h147z" />
    <glyph glyph-name="aacute" unicode="&#xe1;" horiz-adv-x="608" 
d="M236 344h-159q49 183 287 183q204 0 204 -134q0 -13 -9 -56l-51 -232q-9 -36 -9 -59q0 -31 17 -33v-13h-159l-3 50h-3q-72 -69 -175 -69q-26 0 -48.5 4t-50 16t-44 39.5t-16.5 68.5q0 32 10 58.5t24 44.5t38.5 32.5t43.5 22t49.5 14t46 9t43.5 5.5q11 1 33 3.5t31 4
t24.5 5t22 8.5t14.5 13t10.5 20t2.5 28q0 20 -15 34t-49 14q-93 0 -110 -81zM382 210l8 32q-21 -10 -107 -27q-20 -4 -35 -8.5t-33.5 -14t-29 -26.5t-10.5 -40q0 -43 69 -43q30 0 55.5 12.5t39 28t24.5 37t14 31t5 18.5zM380 700h160l-128 -132h-116z" />
    <glyph glyph-name="acircumflex" unicode="&#xe2;" horiz-adv-x="608" 
d="M236 344h-159q49 183 287 183q204 0 204 -134q0 -13 -9 -56l-51 -232q-9 -36 -9 -59q0 -31 17 -33v-13h-159l-3 50h-3q-72 -69 -175 -69q-26 0 -48.5 4t-50 16t-44 39.5t-16.5 68.5q0 32 10 58.5t24 44.5t38.5 32.5t43.5 22t49.5 14t46 9t43.5 5.5q11 1 33 3.5t31 4
t24.5 5t22 8.5t14.5 13t10.5 20t2.5 28q0 20 -15 34t-49 14q-93 0 -110 -81zM382 210l8 32q-21 -10 -107 -27q-20 -4 -35 -8.5t-33.5 -14t-29 -26.5t-10.5 -40q0 -43 69 -43q30 0 55.5 12.5t39 28t24.5 37t14 31t5 18.5zM394 660l-112 -92h-123l140 132h200l83 -132h-115z
" />
    <glyph glyph-name="atilde" unicode="&#xe3;" horiz-adv-x="608" 
d="M236 344h-159q49 183 287 183q204 0 204 -134q0 -13 -9 -56l-51 -232q-9 -36 -9 -59q0 -31 17 -33v-13h-159l-3 50h-3q-72 -69 -175 -69q-26 0 -48.5 4t-50 16t-44 39.5t-16.5 68.5q0 32 10 58.5t24 44.5t38.5 32.5t43.5 22t49.5 14t46 9t43.5 5.5q11 1 33 3.5t31 4
t24.5 5t22 8.5t14.5 13t10.5 20t2.5 28q0 20 -15 34t-49 14q-93 0 -110 -81zM382 210l8 32q-21 -10 -107 -27q-20 -4 -35 -8.5t-33.5 -14t-29 -26.5t-10.5 -40q0 -43 69 -43q30 0 55.5 12.5t39 28t24.5 37t14 31t5 18.5zM524 700h93q-53 -128 -143 -128q-27 0 -43 5t-51 22
q-52 24 -79 24q-40 0 -53 -41h-93q20 53 57.5 89.5t85.5 36.5q39 0 90 -24q49 -27 83 -27q39 0 53 43z" />
    <glyph glyph-name="adieresis" unicode="&#xe4;" horiz-adv-x="608" 
d="M236 344h-159q49 183 287 183q204 0 204 -134q0 -13 -9 -56l-51 -232q-9 -36 -9 -59q0 -31 17 -33v-13h-159l-3 50h-3q-72 -69 -175 -69q-26 0 -48.5 4t-50 16t-44 39.5t-16.5 68.5q0 32 10 58.5t24 44.5t38.5 32.5t43.5 22t49.5 14t46 9t43.5 5.5q11 1 33 3.5t31 4
t24.5 5t22 8.5t14.5 13t10.5 20t2.5 28q0 20 -15 34t-49 14q-93 0 -110 -81zM382 210l8 32q-21 -10 -107 -27q-20 -4 -35 -8.5t-33.5 -14t-29 -26.5t-10.5 -40q0 -43 69 -43q30 0 55.5 12.5t39 28t24.5 37t14 31t5 18.5zM156 581l26 119h152l-26 -119h-152zM438 581l26 119
h152l-26 -119h-152z" />
    <glyph glyph-name="aring" unicode="&#xe5;" horiz-adv-x="608" 
d="M236 344h-159q49 183 287 183q204 0 204 -134q0 -13 -9 -56l-51 -232q-9 -36 -9 -59q0 -31 17 -33v-13h-159l-3 50h-3q-72 -69 -175 -69q-26 0 -48.5 4t-50 16t-44 39.5t-16.5 68.5q0 32 10 58.5t24 44.5t38.5 32.5t43.5 22t49.5 14t46 9t43.5 5.5q11 1 33 3.5t31 4
t24.5 5t22 8.5t14.5 13t10.5 20t2.5 28q0 20 -15 34t-49 14q-93 0 -110 -81zM382 210l8 32q-21 -10 -107 -27q-20 -4 -35 -8.5t-33.5 -14t-29 -26.5t-10.5 -40q0 -43 69 -43q30 0 55.5 12.5t39 28t24.5 37t14 31t5 18.5zM270 648q0 41 28.5 69.5t69.5 28.5t69.5 -28.5
t28.5 -69.5t-28.5 -69.5t-69.5 -28.5t-69.5 28.5t-28.5 69.5zM324 648q0 -18 13 -31t31 -13t31 13t13 31t-13 31t-31 13t-31 -13t-13 -31z" />
    <glyph glyph-name="ae" unicode="&#xe6;" horiz-adv-x="953" 
d="M726 147h153q-27 -81 -103 -123.5t-174 -42.5q-133 0 -176 83q-43 -47 -90 -65t-115 -18q-102 0 -152.5 29.5t-50.5 103.5q0 23 5.5 43t13.5 35t22.5 28t27 22t34 16.5t36 12t39 9t38 6.5t39 5.5t35.5 4.5q24 3 34.5 5t26.5 7.5t23 13t12.5 21t5.5 33.5q0 49 -75 49
q-100 0 -117 -81h-145q40 183 271 183q127 0 162 -79q56 79 175 79q15 0 26.5 -0.5t38.5 -4.5t47 -11t45.5 -22.5t42 -37t28 -56t11.5 -77.5q0 -31 -14 -95h-389q-4 -17 -4 -41q0 -99 102 -99q35 0 65.5 16t45.5 48zM374 189l10 46q-21 -14 -106 -23q-106 -12 -106 -76
q0 -53 70 -53q40 0 79.5 25t52.5 81zM535 302h231q4 20 4 44q0 79 -97 79q-104 0 -138 -123z" />
    <glyph glyph-name="ccedilla" unicode="&#xe7;" horiz-adv-x="596" 
d="M397 192h150q-5 -21 -14 -43.5t-30 -54.5t-49.5 -55.5t-76.5 -40.5t-106 -17q-121 0 -181 60.5t-60 156.5q0 42 9 84.5t32 87.5t57.5 79t89.5 56t124 22q67 0 114.5 -15.5t71 -42t33.5 -53.5t10 -58v-16q0 -10 -1 -15h-146q1 3 1 8v9q0 81 -83 81q-40 0 -71 -21.5
t-48.5 -56.5t-26 -72.5t-8.5 -74.5q0 -39 10.5 -65t28.5 -36t31 -13t29 -3q84 0 110 109zM157 -228l32 62q21 -9 54 -9q57 0 57 32t-51 32q-29 0 -34 -1l28 56q6 1 17 1h18q126 0 126 -87q0 -39 -37.5 -68.5t-121.5 -29.5q-39 0 -88 12z" />
    <glyph glyph-name="egrave" unicode="&#xe8;" horiz-adv-x="628" 
d="M396 147h154q-67 -166 -277 -166q-61 0 -106.5 15.5t-71 38t-41 54t-20 58t-4.5 55.5q0 38 9 78.5t32.5 85.5t58.5 80t93 58t129 23q59 0 104.5 -13.5t71 -34.5t41.5 -50t21 -55.5t5 -55.5q0 -34 -19 -95h-388q-4 -17 -4 -41q0 -99 102 -99q37 0 68 17.5t42 46.5z
M205 302h232q4 20 4 44q0 79 -99 79q-105 0 -137 -123zM413 700l41 -132h-110l-78 132h147z" />
    <glyph glyph-name="eacute" unicode="&#xe9;" horiz-adv-x="628" 
d="M396 147h154q-67 -166 -277 -166q-61 0 -106.5 15.5t-71 38t-41 54t-20 58t-4.5 55.5q0 38 9 78.5t32.5 85.5t58.5 80t93 58t129 23q59 0 104.5 -13.5t71 -34.5t41.5 -50t21 -55.5t5 -55.5q0 -34 -19 -95h-388q-4 -17 -4 -41q0 -99 102 -99q37 0 68 17.5t42 46.5z
M205 302h232q4 20 4 44q0 79 -99 79q-105 0 -137 -123zM390 700h160l-128 -132h-116z" />
    <glyph glyph-name="ecircumflex" unicode="&#xea;" horiz-adv-x="628" 
d="M396 147h154q-67 -166 -277 -166q-61 0 -106.5 15.5t-71 38t-41 54t-20 58t-4.5 55.5q0 38 9 78.5t32.5 85.5t58.5 80t93 58t129 23q59 0 104.5 -13.5t71 -34.5t41.5 -50t21 -55.5t5 -55.5q0 -34 -19 -95h-388q-4 -17 -4 -41q0 -99 102 -99q37 0 68 17.5t42 46.5z
M205 302h232q4 20 4 44q0 79 -99 79q-105 0 -137 -123zM404 660l-112 -92h-123l140 132h200l83 -132h-115z" />
    <glyph glyph-name="edieresis" unicode="&#xeb;" horiz-adv-x="628" 
d="M396 147h154q-67 -166 -277 -166q-61 0 -106.5 15.5t-71 38t-41 54t-20 58t-4.5 55.5q0 38 9 78.5t32.5 85.5t58.5 80t93 58t129 23q59 0 104.5 -13.5t71 -34.5t41.5 -50t21 -55.5t5 -55.5q0 -34 -19 -95h-388q-4 -17 -4 -41q0 -99 102 -99q37 0 68 17.5t42 46.5z
M205 302h232q4 20 4 44q0 79 -99 79q-105 0 -137 -123zM166 581l26 119h152l-26 -119h-152zM448 581l26 119h152l-26 -119h-152z" />
    <glyph glyph-name="igrave" unicode="&#xec;" horiz-adv-x="273" 
d="M114 508h152l-107 -508h-152zM236 700l41 -132h-110l-78 132h147z" />
    <glyph glyph-name="iacute" unicode="&#xed;" horiz-adv-x="273" 
d="M114 508h152l-107 -508h-152zM213 700h160l-128 -132h-116z" />
    <glyph glyph-name="icircumflex" unicode="&#xee;" horiz-adv-x="273" 
d="M114 508h152l-107 -508h-152zM227 660l-112 -92h-123l140 132h200l83 -132h-115z" />
    <glyph glyph-name="idieresis" unicode="&#xef;" horiz-adv-x="360" 
d="M160 508h152l-108 -508h-152zM98 581l25 119h122l-25 -119h-122zM283 581l25 119h122l-25 -119h-122z" />
    <glyph glyph-name="eth" unicode="&#xf0;" horiz-adv-x="647" 
d="M246 682l27 73q110 -12 174 -43l87 47l29 -48l-60 -32q109 -81 109 -258q0 -55 -10.5 -112t-37 -116.5t-65 -106t-100 -76t-137.5 -29.5q-17 0 -32 1.5t-45.5 6t-54.5 18t-48.5 34.5t-38.5 57.5t-14 84.5q0 127 86.5 220t233.5 93q64 0 107.5 -26.5t55.5 -80.5h7
q3 67 -20.5 134t-83.5 109l-163 -88l-29 48l127 69q-56 17 -104 21zM341 394q-53 0 -89.5 -34.5t-51 -79.5t-14.5 -95q0 -51 24.5 -76.5t63.5 -25.5q60 0 108.5 54t48.5 151q0 36 -9.5 59.5t-25.5 32.5t-28 11.5t-27 2.5z" />
    <glyph glyph-name="ntilde" unicode="&#xf1;" horiz-adv-x="614" 
d="M254 508l-11 -55h2q68 74 188 74q71 0 107 -38.5t36 -97.5q0 -22 -10 -72l-67 -319h-152l62 294q7 37 7 47q0 84 -74 84q-93 0 -122 -139l-61 -286h-152l108 508h139zM527 700h93q-53 -128 -143 -128q-27 0 -43 5t-51 22q-52 24 -79 24q-40 0 -53 -41h-93
q20 53 57.5 89.5t85.5 36.5q39 0 90 -24q49 -27 83 -27q39 0 53 43z" />
    <glyph glyph-name="ograve" unicode="&#xf2;" horiz-adv-x="631" 
d="M276 -19q-61 0 -107 15t-72 37.5t-42 54.5t-21 60t-5 60q0 39 9.5 80t33.5 84.5t59.5 77.5t93 55.5t128.5 21.5q33 0 62.5 -4t65 -18.5t61 -38.5t42.5 -67t17 -100q0 -82 -36 -153t-111.5 -118t-177.5 -47zM292 83q72 0 111.5 65t39.5 161q0 116 -105 116
q-54 0 -89.5 -39t-48.5 -88t-13 -102q0 -113 105 -113zM415 700l41 -132h-110l-78 132h147z" />
    <glyph glyph-name="oacute" unicode="&#xf3;" horiz-adv-x="631" 
d="M276 -19q-61 0 -107 15t-72 37.5t-42 54.5t-21 60t-5 60q0 39 9.5 80t33.5 84.5t59.5 77.5t93 55.5t128.5 21.5q33 0 62.5 -4t65 -18.5t61 -38.5t42.5 -67t17 -100q0 -82 -36 -153t-111.5 -118t-177.5 -47zM292 83q72 0 111.5 65t39.5 161q0 116 -105 116
q-54 0 -89.5 -39t-48.5 -88t-13 -102q0 -113 105 -113zM392 700h160l-128 -132h-116z" />
    <glyph glyph-name="ocircumflex" unicode="&#xf4;" horiz-adv-x="631" 
d="M276 -19q-61 0 -107 15t-72 37.5t-42 54.5t-21 60t-5 60q0 39 9.5 80t33.5 84.5t59.5 77.5t93 55.5t128.5 21.5q33 0 62.5 -4t65 -18.5t61 -38.5t42.5 -67t17 -100q0 -82 -36 -153t-111.5 -118t-177.5 -47zM292 83q72 0 111.5 65t39.5 161q0 116 -105 116
q-54 0 -89.5 -39t-48.5 -88t-13 -102q0 -113 105 -113zM406 660l-112 -92h-123l140 132h200l83 -132h-115z" />
    <glyph glyph-name="otilde" unicode="&#xf5;" horiz-adv-x="631" 
d="M276 -19q-61 0 -107 15t-72 37.5t-42 54.5t-21 60t-5 60q0 39 9.5 80t33.5 84.5t59.5 77.5t93 55.5t128.5 21.5q33 0 62.5 -4t65 -18.5t61 -38.5t42.5 -67t17 -100q0 -82 -36 -153t-111.5 -118t-177.5 -47zM292 83q72 0 111.5 65t39.5 161q0 116 -105 116
q-54 0 -89.5 -39t-48.5 -88t-13 -102q0 -113 105 -113zM536 700h93q-53 -128 -143 -128q-27 0 -43 5t-51 22q-52 24 -79 24q-40 0 -53 -41h-93q20 53 57.5 89.5t85.5 36.5q39 0 90 -24q49 -27 83 -27q39 0 53 43z" />
    <glyph glyph-name="odieresis" unicode="&#xf6;" horiz-adv-x="631" 
d="M276 -19q-61 0 -107 15t-72 37.5t-42 54.5t-21 60t-5 60q0 39 9.5 80t33.5 84.5t59.5 77.5t93 55.5t128.5 21.5q33 0 62.5 -4t65 -18.5t61 -38.5t42.5 -67t17 -100q0 -82 -36 -153t-111.5 -118t-177.5 -47zM292 83q72 0 111.5 65t39.5 161q0 116 -105 116
q-54 0 -89.5 -39t-48.5 -88t-13 -102q0 -113 105 -113zM167 581l26 119h152l-26 -119h-152zM449 581l26 119h152l-26 -119h-152z" />
    <glyph glyph-name="divide" unicode="&#xf7;" horiz-adv-x="675" 
d="M73 390h566v-80h-566v80zM286 560q0 29 20.5 49.5t49.5 20.5t49.5 -20.5t20.5 -49.5t-20.5 -49.5t-49.5 -20.5t-49.5 20.5t-20.5 49.5zM286 140q0 29 20.5 49.5t49.5 20.5t49.5 -20.5t20.5 -49.5t-20.5 -49.5t-49.5 -20.5t-49.5 20.5t-20.5 49.5z" />
    <glyph glyph-name="oslash" unicode="&#xf8;" horiz-adv-x="628" 
d="M622 508l-66 -62q27 -33 35.5 -66t8.5 -81q0 -146 -92.5 -232t-232.5 -86q-100 0 -163 44l-66 -63l-37 38l66 61q-49 52 -49 147q0 39 9.5 80.5t34 85t60.5 77t93.5 55t128.5 21.5q103 0 166 -44l67 63zM442 338l-236 -224q4 -5 12 -11.5t28 -13t45 -6.5q71 0 110 65.5
t41 160.5v29zM186 168l236 224q-24 33 -85 33q-40 0 -71.5 -22.5t-48 -58t-25 -73t-8.5 -74.5q0 -7 2 -29z" />
    <glyph glyph-name="ugrave" unicode="&#xf9;" horiz-adv-x="609" 
d="M355 0l12 56h-3q-74 -75 -187 -75q-37 0 -64.5 11.5t-41.5 27.5t-22.5 36.5t-10.5 34t-2 26.5q0 43 6 73l68 318h152l-62 -294q-7 -37 -7 -46q0 -34 16.5 -59.5t58.5 -25.5q94 0 121 140l61 285h152l-109 -508h-138zM404 700l41 -132h-110l-78 132h147z" />
    <glyph glyph-name="uacute" unicode="&#xfa;" horiz-adv-x="609" 
d="M355 0l12 56h-3q-74 -75 -187 -75q-37 0 -64.5 11.5t-41.5 27.5t-22.5 36.5t-10.5 34t-2 26.5q0 43 6 73l68 318h152l-62 -294q-7 -37 -7 -46q0 -34 16.5 -59.5t58.5 -25.5q94 0 121 140l61 285h152l-109 -508h-138zM381 700h160l-128 -132h-116z" />
    <glyph glyph-name="ucircumflex" unicode="&#xfb;" horiz-adv-x="609" 
d="M355 0l12 56h-3q-74 -75 -187 -75q-37 0 -64.5 11.5t-41.5 27.5t-22.5 36.5t-10.5 34t-2 26.5q0 43 6 73l68 318h152l-62 -294q-7 -37 -7 -46q0 -34 16.5 -59.5t58.5 -25.5q94 0 121 140l61 285h152l-109 -508h-138zM395 660l-112 -92h-123l140 132h200l83 -132h-115z
" />
    <glyph glyph-name="udieresis" unicode="&#xfc;" horiz-adv-x="609" 
d="M355 0l12 56h-3q-74 -75 -187 -75q-37 0 -64.5 11.5t-41.5 27.5t-22.5 36.5t-10.5 34t-2 26.5q0 43 6 73l68 318h152l-62 -294q-7 -37 -7 -46q0 -34 16.5 -59.5t58.5 -25.5q94 0 121 140l61 285h152l-109 -508h-138zM156 581l26 119h152l-26 -119h-152zM438 581l26 119
h152l-26 -119h-152z" />
    <glyph glyph-name="yacute" unicode="&#xfd;" horiz-adv-x="555" 
d="M2 -185l22 102q14 -7 48 -7q19 0 32.5 5t24.5 18t16 21t15 27l14 25l-116 502h163l67 -344l163 344h161l-290 -535q-51 -92 -96 -129.5t-119 -37.5q-69 0 -105 9zM354 700h160l-128 -132h-116z" />
    <glyph glyph-name="thorn" unicode="&#xfe;" horiz-adv-x="637" 
d="M158 700h152l-49 -228h3q66 55 157 55q86 0 136.5 -53t50.5 -149q0 -43 -10 -88.5t-32.5 -91.5t-55 -81.5t-81.5 -58t-107 -22.5q-111 0 -151 69l-51 -237h-152zM205 262q-7 -33 -7 -59q0 -52 24 -85t73 -33q51 0 88 38t52 86.5t15 97.5q0 66 -29.5 92t-68.5 26
q-45 0 -87 -35.5t-60 -127.5z" />
    <glyph glyph-name="ydieresis" unicode="&#xff;" horiz-adv-x="555" 
d="M2 -185l22 102q14 -7 48 -7q19 0 32.5 5t24.5 18t16 21t15 27l14 25l-116 502h163l67 -344l163 344h161l-290 -535q-51 -92 -96 -129.5t-119 -37.5q-69 0 -105 9zM129 581l26 119h152l-26 -119h-152zM411 581l26 119h152l-26 -119h-152z" />
    <glyph glyph-name="Amacron" unicode="&#x100;" horiz-adv-x="677" 
d="M348 700h167l114 -700h-171l-17 131h-254l-73 -131h-177zM247 250h183l-35 267zM256 766l18 86h383l-18 -86h-383z" />
    <glyph glyph-name="amacron" unicode="&#x101;" horiz-adv-x="608" 
d="M236 344h-159q49 183 287 183q204 0 204 -134q0 -13 -9 -56l-51 -232q-9 -36 -9 -59q0 -31 17 -33v-13h-159l-3 50h-3q-72 -69 -175 -69q-26 0 -48.5 4t-50 16t-44 39.5t-16.5 68.5q0 32 10 58.5t24 44.5t38.5 32.5t43.5 22t49.5 14t46 9t43.5 5.5q11 1 33 3.5t31 4
t24.5 5t22 8.5t14.5 13t10.5 20t2.5 28q0 20 -15 34t-49 14q-93 0 -110 -81zM382 210l8 32q-21 -10 -107 -27q-20 -4 -35 -8.5t-33.5 -14t-29 -26.5t-10.5 -40q0 -43 69 -43q30 0 55.5 12.5t39 28t24.5 37t14 31t5 18.5zM186 600l18 86h384l-18 -86h-384z" />
    <glyph glyph-name="Abreve" unicode="&#x102;" horiz-adv-x="677" 
d="M348 700h167l114 -700h-171l-17 131h-254l-73 -131h-177zM247 250h183l-35 267zM278 904h112q-8 -25 9.5 -46t68.5 -21q81 0 94 67h112q-18 -57 -70.5 -97.5t-150.5 -40.5q-31 0 -58 4.5t-55.5 16t-45.5 36.5t-17 60v10q0 8 1 11z" />
    <glyph glyph-name="abreve" unicode="&#x103;" horiz-adv-x="608" 
d="M236 344h-159q49 183 287 183q204 0 204 -134q0 -13 -9 -56l-51 -232q-9 -36 -9 -59q0 -31 17 -33v-13h-159l-3 50h-3q-72 -69 -175 -69q-26 0 -48.5 4t-50 16t-44 39.5t-16.5 68.5q0 32 10 58.5t24 44.5t38.5 32.5t43.5 22t49.5 14t46 9t43.5 5.5q11 1 33 3.5t31 4
t24.5 5t22 8.5t14.5 13t10.5 20t2.5 28q0 20 -15 34t-49 14q-93 0 -110 -81zM382 210l8 32q-21 -10 -107 -27q-20 -4 -35 -8.5t-33.5 -14t-29 -26.5t-10.5 -40q0 -43 69 -43q30 0 55.5 12.5t39 28t24.5 37t14 31t5 18.5zM201 700h111q-5 -26 12 -46.5t67 -20.5q80 0 94 67
h112q-7 -23 -20 -43.5t-37.5 -44t-66.5 -37t-97 -13.5q-30 0 -57 4.5t-56 16t-46 36.5t-17 60v10q0 8 1 11z" />
    <glyph glyph-name="Aogonek" unicode="&#x104;" horiz-adv-x="775" 
d="M348 700h167l114 -700q-79 -54 -97 -124q-2 -12 -2 -18v-18q0 -34 42 -34q48 0 66 62h89q-17 -61 -65.5 -99t-111.5 -38q-141 0 -141 123q0 67 94 146h-49l-17 131h-254l-72 -131h-174zM244 250h182l-33 267z" />
    <glyph glyph-name="aogonek" unicode="&#x105;" horiz-adv-x="654" 
d="M236 344h-159q49 183 287 183q204 0 204 -134q0 -13 -9 -56l-51 -232q-9 -36 -9 -59q0 -31 17 -33v-13q-45 -29 -72 -75t-27 -85q0 -34 42 -34q48 0 66 62h89q-17 -61 -66 -99t-111 -38q-131 0 -131 123q0 68 94 146h-43l-3 50h-3q-72 -69 -175 -69q-26 0 -48.5 4t-50 16
t-44 39.5t-16.5 68.5q0 32 10 58.5t24 44.5t38.5 32.5t43.5 22t49.5 14t46 9t43.5 5.5q11 1 33 3.5t31 4t24.5 5t22 8.5t14.5 13t10.5 20t2.5 28q0 20 -15 34t-49 14q-93 0 -110 -81zM382 210l8 32q-21 -10 -107 -27q-20 -4 -35 -8.5t-33.5 -14t-29 -26.5t-10.5 -40
q0 -43 69 -43q30 0 55.5 12.5t39 28t24.5 37t14 31t5 18.5z" />
    <glyph glyph-name="Cacute" unicode="&#x106;" horiz-adv-x="729" 
d="M538 247h164q-13 -46 -36.5 -88t-64 -85t-106.5 -68.5t-149 -25.5q-146 0 -220 79.5t-74 205.5q0 52 10.5 107.5t39 119.5t72 113t117.5 82t167 33q39 0 73.5 -4t75 -17t69 -34.5t48 -60.5t19.5 -91q0 -34 -3 -51h-163q1 3 1 10v11q0 101 -127 101q-47 0 -86 -20.5
t-63.5 -52t-41 -71.5t-23.5 -77.5t-7 -72.5q0 -47 11.5 -81.5t26.5 -51.5t35.5 -27t33.5 -12t26 -2q125 0 175 131zM489 898h158l-126 -132h-116z" />
    <glyph glyph-name="cacute" unicode="&#x107;" horiz-adv-x="596" 
d="M397 192h150q-5 -21 -14 -43.5t-30 -54.5t-49.5 -55.5t-76.5 -40.5t-106 -17q-121 0 -181 60.5t-60 156.5q0 42 9 84.5t32 87.5t57.5 79t89.5 56t124 22q67 0 114.5 -15.5t71 -42t33.5 -53.5t10 -58v-16q0 -10 -1 -15h-146q1 3 1 8v9q0 81 -83 81q-40 0 -71 -21.5
t-48.5 -56.5t-26 -72.5t-8.5 -74.5q0 -39 10.5 -65t28.5 -36t31 -13t29 -3q84 0 110 109zM374 700h160l-128 -132h-116z" />
    <glyph glyph-name="Ccircumflex" unicode="&#x108;" horiz-adv-x="729" 
d="M538 247h164q-13 -46 -36.5 -88t-64 -85t-106.5 -68.5t-149 -25.5q-146 0 -220 79.5t-74 205.5q0 52 10.5 107.5t39 119.5t72 113t117.5 82t167 33q39 0 73.5 -4t75 -17t69 -34.5t48 -60.5t19.5 -91q0 -34 -3 -51h-163q1 3 1 10v11q0 101 -127 101q-47 0 -86 -20.5
t-63.5 -52t-41 -71.5t-23.5 -77.5t-7 -72.5q0 -47 11.5 -81.5t26.5 -51.5t35.5 -27t33.5 -12t26 -2q125 0 175 131zM401 898h200l83 -132h-114l-73 92l-113 -92h-122z" />
    <glyph glyph-name="ccircumflex" unicode="&#x109;" horiz-adv-x="596" 
d="M397 192h150q-5 -21 -14 -43.5t-30 -54.5t-49.5 -55.5t-76.5 -40.5t-106 -17q-121 0 -181 60.5t-60 156.5q0 42 9 84.5t32 87.5t57.5 79t89.5 56t124 22q67 0 114.5 -15.5t71 -42t33.5 -53.5t10 -58v-16q0 -10 -1 -15h-146q1 3 1 8v9q0 81 -83 81q-40 0 -71 -21.5
t-48.5 -56.5t-26 -72.5t-8.5 -74.5q0 -39 10.5 -65t28.5 -36t31 -13t29 -3q84 0 110 109zM388 660l-112 -92h-123l140 132h200l83 -132h-115z" />
    <glyph glyph-name="Ccaron" unicode="&#x10c;" horiz-adv-x="729" 
d="M538 247h164q-13 -46 -36.5 -88t-64 -85t-106.5 -68.5t-149 -25.5q-146 0 -220 79.5t-74 205.5q0 52 10.5 107.5t39 119.5t72 113t117.5 82t167 33q39 0 73.5 -4t75 -17t69 -34.5t48 -60.5t19.5 -91q0 -34 -3 -51h-163q1 3 1 10v11q0 101 -127 101q-47 0 -86 -20.5
t-63.5 -52t-41 -71.5t-23.5 -77.5t-7 -72.5q0 -47 11.5 -81.5t26.5 -51.5t35.5 -27t33.5 -12t26 -2q125 0 175 131zM573 764h-200l-84 132h116l72 -93l112 93h123z" />
    <glyph glyph-name="ccaron" unicode="&#x10d;" horiz-adv-x="596" 
d="M397 192h150q-5 -21 -14 -43.5t-30 -54.5t-49.5 -55.5t-76.5 -40.5t-106 -17q-121 0 -181 60.5t-60 156.5q0 42 9 84.5t32 87.5t57.5 79t89.5 56t124 22q67 0 114.5 -15.5t71 -42t33.5 -53.5t10 -58v-16q0 -10 -1 -15h-146q1 3 1 8v9q0 81 -83 81q-40 0 -71 -21.5
t-48.5 -56.5t-26 -72.5t-8.5 -74.5q0 -39 10.5 -65t28.5 -36t31 -13t29 -3q84 0 110 109zM465 568h-201l-83 132h115l73 -92l112 92h123z" />
    <glyph glyph-name="Dcaron" unicode="&#x10e;" horiz-adv-x="757" 
d="M168 700h296q282 0 282 -286q0 -85 -22 -153t-54.5 -110t-79 -73t-85 -45.5t-84 -22.5t-64.5 -9t-37 -1h-300zM304 564l-90 -428h106q63 0 111 23.5t73 56t40.5 75.5t19.5 74t4 60q0 139 -147 139h-117zM545 764h-200l-84 132h116l72 -93l112 93h123z" />
    <glyph glyph-name="dcaron" unicode="&#x10f;" horiz-adv-x="836" 
d="M522 0h-136l11 47h-3q-69 -66 -169 -66q-89 0 -143.5 57.5t-54.5 157.5q0 59 18.5 117t52.5 106.5t89 78t121 29.5q106 0 160 -70l52 243h152zM432 246q7 35 7 60q0 57 -25.5 88t-72.5 31q-50 0 -87 -36t-53 -85t-16 -102t26 -86t74 -33q34 0 61 16.5t44 43.5t26.5 51.5
t15.5 51.5zM727 542l34 158h165l-34 -158q-6 -24 -11 -40t-19.5 -43t-34.5 -44.5t-56 -32.5t-82 -18l17 79q44 2 71.5 29t34.5 64l1 6h-86z" />
    <glyph glyph-name="Dcroat" unicode="&#x110;" horiz-adv-x="782" 
d="M193 700h301q277 0 277 -246q0 -53 -10.5 -107.5t-40.5 -118.5t-76.5 -113t-127.5 -82t-185 -33h-286l73 345h-98l18 86h98zM330 564l-29 -133h159l-18 -86h-159l-44 -209h105q68 0 118.5 28.5t77 75.5t38.5 96.5t12 101.5q0 126 -145 126h-115z" />
    <glyph glyph-name="dcroat" unicode="&#x111;" horiz-adv-x="636" 
d="M522 0h-136l11 47h-3q-69 -66 -169 -66q-89 0 -143.5 57.5t-54.5 157.5q0 59 18.5 117t52.5 106.5t89 78t121 29.5q108 0 159 -70l26 123h-235l11 58h237l13 62h152l-13 -62h93l-10 -58h-96zM432 246q7 35 7 60q0 57 -25.5 88t-72.5 31q-50 0 -87 -36t-53 -85t-16 -102
t26 -86t74 -33q34 0 61 16.5t44 43.5t26.5 51.5t15.5 51.5z" />
    <glyph glyph-name="Emacron" unicode="&#x112;" horiz-adv-x="655" 
d="M275 425h342l-27 -136h-344l-32 -153h397l-28 -136h-563l148 700h554l-28 -136h-390zM245 766l18 86h383l-18 -86h-383z" />
    <glyph glyph-name="emacron" unicode="&#x113;" horiz-adv-x="628" 
d="M396 147h154q-67 -166 -277 -166q-61 0 -106.5 15.5t-71 38t-41 54t-20 58t-4.5 55.5q0 38 9 78.5t32.5 85.5t58.5 80t93 58t129 23q59 0 104.5 -13.5t71 -34.5t41.5 -50t21 -55.5t5 -55.5q0 -34 -19 -95h-388q-4 -17 -4 -41q0 -99 102 -99q37 0 68 17.5t42 46.5z
M205 302h232q4 20 4 44q0 79 -99 79q-105 0 -137 -123zM196 600l18 86h384l-18 -86h-384z" />
    <glyph glyph-name="Edotaccent" unicode="&#x116;" horiz-adv-x="655" 
d="M275 425h342l-27 -136h-344l-32 -153h397l-28 -136h-563l148 700h554l-28 -136h-390zM352 766l22 106h165l-22 -106h-165z" />
    <glyph glyph-name="edotaccent" unicode="&#x117;" horiz-adv-x="628" 
d="M396 147h154q-67 -166 -277 -166q-61 0 -106.5 15.5t-71 38t-41 54t-20 58t-4.5 55.5q0 38 9 78.5t32.5 85.5t58.5 80t93 58t129 23q59 0 104.5 -13.5t71 -34.5t41.5 -50t21 -55.5t5 -55.5q0 -34 -19 -95h-388q-4 -17 -4 -41q0 -99 102 -99q37 0 68 17.5t42 46.5z
M205 302h232q4 20 4 44q0 79 -99 79q-105 0 -137 -123zM304 581l25 119h158l-25 -119h-158z" />
    <glyph glyph-name="Eogonek" unicode="&#x118;" horiz-adv-x="655" 
d="M275 422h342l-28 -129h-342l-33 -157h398l-29 -136h-20q-45 -29 -72 -75t-27 -85q0 -34 42 -34q48 0 66 62h89q-17 -61 -66 -99t-111 -38q-131 0 -131 123q0 75 114 146h-447l149 700h553l-29 -136h-388z" />
    <glyph glyph-name="eogonek" unicode="&#x119;" horiz-adv-x="628" 
d="M396 147h154q-55 -142 -225 -162q-76 -80 -76 -145q0 -34 42 -34q48 0 66 62h89q-17 -61 -66 -99t-111 -38q-131 0 -131 123q0 59 89 129q-197 26 -197 219q0 38 9 78.5t32.5 85.5t58.5 80t93 58t129 23q59 0 104.5 -13.5t71 -34.5t41.5 -50t21 -55.5t5 -55.5
q0 -34 -19 -95h-388q-4 -17 -4 -41q0 -99 102 -99q37 0 68 17.5t42 46.5zM205 302h232q4 20 4 44q0 79 -99 79q-105 0 -137 -123z" />
    <glyph glyph-name="Ecaron" unicode="&#x11a;" horiz-adv-x="655" 
d="M275 425h342l-27 -136h-344l-32 -153h397l-28 -136h-563l148 700h554l-28 -136h-390zM536 764h-200l-84 132h116l72 -93l112 93h123z" />
    <glyph glyph-name="ecaron" unicode="&#x11b;" horiz-adv-x="628" 
d="M396 147h154q-67 -166 -277 -166q-61 0 -106.5 15.5t-71 38t-41 54t-20 58t-4.5 55.5q0 38 9 78.5t32.5 85.5t58.5 80t93 58t129 23q59 0 104.5 -13.5t71 -34.5t41.5 -50t21 -55.5t5 -55.5q0 -34 -19 -95h-388q-4 -17 -4 -41q0 -99 102 -99q37 0 68 17.5t42 46.5z
M205 302h232q4 20 4 44q0 79 -99 79q-105 0 -137 -123zM481 568h-201l-83 132h115l73 -92l112 92h123z" />
    <glyph glyph-name="Gcircumflex" unicode="&#x11c;" horiz-adv-x="787" 
d="M454 380h297l-81 -380h-123l13 59h-2q-38 -45 -92 -62t-127 -17q-142 0 -215.5 79.5t-73.5 226.5q0 58 12.5 115.5t44 116t78 102.5t120.5 72t166 28q81 0 142 -22t95 -58t48 -79t8 -88h-172v19q0 47 -36.5 69.5t-87.5 22.5q-112 0 -176 -82.5t-64 -201.5
q0 -88 41.5 -136t119.5 -48q67 0 113.5 39t63.5 98h-140zM430 898h200l83 -132h-114l-73 92l-113 -92h-122z" />
    <glyph glyph-name="gcircumflex" unicode="&#x11d;" horiz-adv-x="637" 
d="M19 -40h148q2 -55 90 -55q16 0 28.5 3t31.5 13t34.5 36t23.5 66l8 37h-3q-22 -22 -65 -35t-83 -13q-84 0 -140 51t-56 159q0 133 76.5 219t190.5 86q122 0 169 -75h3l12 56h143l-98 -461q-11 -50 -30 -90t-39 -65t-48 -43t-48.5 -26.5t-49 -13.5t-42 -5.5t-34.5 -0.5
q-26 0 -45 1t-48.5 5.5t-50 15t-40.5 27t-29.5 44.5t-8.5 64zM293 114q52 0 87 36.5t47.5 79t12.5 82.5q0 55 -27.5 84t-71.5 29q-67 0 -107 -63.5t-40 -142.5q0 -49 27 -77t72 -28zM409 660l-112 -92h-123l140 132h200l83 -132h-115z" />
    <glyph glyph-name="Gbreve" unicode="&#x11e;" horiz-adv-x="787" 
d="M454 380h297l-81 -380h-123l13 59h-2q-38 -45 -92 -62t-127 -17q-142 0 -215.5 79.5t-73.5 226.5q0 58 12.5 115.5t44 116t78 102.5t120.5 72t166 28q81 0 142 -22t95 -58t48 -79t8 -88h-172v19q0 47 -36.5 69.5t-87.5 22.5q-112 0 -176 -82.5t-64 -201.5
q0 -88 41.5 -136t119.5 -48q67 0 113.5 39t63.5 98h-140zM333 904h112q-8 -25 9.5 -46t68.5 -21q81 0 94 67h112q-18 -57 -70.5 -97.5t-150.5 -40.5q-31 0 -58 4.5t-55.5 16t-45.5 36.5t-17 60v10q0 8 1 11z" />
    <glyph glyph-name="gbreve" unicode="&#x11f;" horiz-adv-x="637" 
d="M19 -40h148q2 -55 90 -55q16 0 28.5 3t31.5 13t34.5 36t23.5 66l8 37h-3q-22 -22 -65 -35t-83 -13q-84 0 -140 51t-56 159q0 133 76.5 219t190.5 86q122 0 169 -75h3l12 56h143l-98 -461q-11 -50 -30 -90t-39 -65t-48 -43t-48.5 -26.5t-49 -13.5t-42 -5.5t-34.5 -0.5
q-26 0 -45 1t-48.5 5.5t-50 15t-40.5 27t-29.5 44.5t-8.5 64zM293 114q52 0 87 36.5t47.5 79t12.5 82.5q0 55 -27.5 84t-71.5 29q-67 0 -107 -63.5t-40 -142.5q0 -49 27 -77t72 -28zM215 700h111q-5 -26 12 -46.5t67 -20.5q80 0 94 67h112q-7 -23 -20 -43.5t-37.5 -44
t-66.5 -37t-97 -13.5q-30 0 -57 4.5t-56 16t-46 36.5t-17 60v10q0 8 1 11z" />
    <glyph glyph-name="Gcommaaccent" unicode="&#x122;" horiz-adv-x="787" 
d="M454 380h297l-81 -380h-123l13 59h-2q-38 -45 -92 -62t-127 -17q-142 0 -215.5 79.5t-73.5 226.5q0 58 12.5 115.5t44 116t78 102.5t120.5 72t166 28q81 0 142 -22t95 -58t48 -79t8 -88h-172v19q0 47 -36.5 69.5t-87.5 22.5q-112 0 -176 -82.5t-64 -201.5
q0 -88 41.5 -136t119.5 -48q67 0 113.5 39t63.5 98h-140zM256 -180l25 120h165l-25 -120q-4 -22 -13 -42.5t-29 -46t-60 -42t-95 -18.5l17 79q27 0 46 6.5t29.5 18.5t14.5 19.5t9 19.5l2 6h-86z" />
    <glyph glyph-name="gcommaaccent" unicode="&#x123;" horiz-adv-x="637" 
d="M19 -40h148q2 -55 90 -55q16 0 28.5 3t31.5 13t34.5 36t23.5 66l8 37h-3q-22 -22 -65 -35t-83 -13q-84 0 -140 51t-56 159q0 133 76.5 219t190.5 86q122 0 169 -75h3l12 56h143l-98 -461q-11 -50 -30 -90t-39 -65t-48 -43t-48.5 -26.5t-49 -13.5t-42 -5.5t-34.5 -0.5
q-26 0 -45 1t-48.5 5.5t-50 15t-40.5 27t-29.5 44.5t-8.5 64zM293 114q52 0 87 36.5t47.5 79t12.5 82.5q0 55 -27.5 84t-71.5 29q-67 0 -107 -63.5t-40 -142.5q0 -49 27 -77t72 -28zM494 703l-25 -120h-165l25 120q4 22 13 42.5t29 46t60 42t95 18.5l-17 -79q-27 0 -46 -6.5
t-29.5 -18.5t-14.5 -19.5t-9 -19.5l-2 -6h86z" />
    <glyph glyph-name="Hcircumflex" unicode="&#x124;" horiz-adv-x="732" 
d="M248 301l-63 -301h-165l148 700h165l-57 -263h256l57 263h165l-148 -700h-165l63 301h-256zM403 898h200l83 -132h-114l-73 92l-113 -92h-122z" />
    <glyph glyph-name="hcircumflex" unicode="&#x125;" horiz-adv-x="613" 
d="M309 700l-51 -237q64 64 175 64q19 0 38.5 -4.5t45 -16.5t42 -42t16.5 -73q0 -29 -9 -72l-68 -319h-152l63 294q6 32 6 47q0 66 -74 66q-32 0 -56.5 -14.5t-37.5 -38t-18.5 -38.5t-8.5 -30l-61 -286h-152l150 700h152zM404 871l-112 -92h-123l140 132h200l83 -132h-115z
" />
    <glyph glyph-name="Imacron" unicode="&#x12a;" horiz-adv-x="311" 
d="M168 700h165l-148 -700h-165zM73 766l18 86h383l-18 -86h-383z" />
    <glyph glyph-name="imacron" unicode="&#x12b;" horiz-adv-x="273" 
d="M114 508h152l-107 -508h-152zM19 600l18 86h384l-18 -86h-384z" />
    <glyph glyph-name="Iogonek" unicode="&#x12e;" horiz-adv-x="311" 
d="M168 700h165l-148 -700q-45 -29 -72 -75t-27 -85q0 -34 42 -34q48 0 66 62h89q-17 -61 -66 -99t-111 -38q-131 0 -131 123q0 75 114 146h-69z" />
    <glyph glyph-name="iogonek" unicode="&#x12f;" horiz-adv-x="274" 
d="M115 508h152l-108 -508h-152zM130 581l26 119h152l-26 -119h-152zM62 0h96q-44 -28 -72 -69t-28 -80q0 -15 5 -24q12 -21 37 -21q29 0 46 19t21 43h89q-17 -55 -55 -89q-53 -48 -130 -48q-51 0 -88 25.5t-37 76.5q0 50 34 94.5t82 72.5z" />
    <glyph glyph-name="Idotaccent" unicode="&#x130;" horiz-adv-x="310" 
d="M169 700h165l-149 -700h-165zM183 766l22 106h165l-22 -106h-165z" />
    <glyph glyph-name="dotlessi" unicode="&#x131;" horiz-adv-x="273" 
d="M114 508h152l-107 -508h-152z" />
    <glyph glyph-name="Jcircumflex" unicode="&#x134;" horiz-adv-x="577" 
d="M22 258h165l-6 -28q-6 -26 -6 -39q0 -75 67 -75q48 0 68 26t33 88l100 470h165l-95 -447q-9 -41 -15.5 -65.5t-20.5 -61t-33.5 -59t-48.5 -44.5t-71 -32.5t-96 -10.5q-62 0 -106 15.5t-66.5 43.5t-32.5 58.5t-10 66.5q0 34 9 94zM448 898h200l83 -132h-114l-73 92
l-113 -92h-122z" />
    <glyph glyph-name="jcircumflex" unicode="&#x135;" horiz-adv-x="274" 
d="M115 508h152l-113 -533q-9 -44 -26.5 -76t-36 -49t-43 -27t-43 -12.5t-40.5 -2.5q-53 0 -88 7l21 102q14 -2 15 -2q42 0 62.5 16.5t29.5 58.5zM228 660l-112 -92h-124l141 132h200l83 -132h-115z" />
    <glyph glyph-name="Kcommaaccent" unicode="&#x136;" horiz-adv-x="713" 
d="M271 405l322 295h208l-343 -309l205 -391h-188l-147 305l-96 -83l-47 -222h-165l148 700h165zM176 -180l25 120h165l-25 -120q-4 -22 -13 -42.5t-29 -46t-60 -42t-95 -18.5l17 79q27 0 46 6.5t29.5 18.5t14.5 19.5t9 19.5l2 6h-86z" />
    <glyph glyph-name="kcommaaccent" unicode="&#x137;" horiz-adv-x="563" 
d="M225 307l205 201h181l-236 -220l146 -288h-168l-94 209l-67 -58l-33 -151h-152l150 700h152zM101 -180l25 120h165l-25 -120q-4 -22 -13 -42.5t-29 -46t-60 -42t-95 -18.5l17 79q27 0 46 6.5t29.5 18.5t14.5 19.5t9 19.5l2 6h-86z" />
    <glyph glyph-name="Lacute" unicode="&#x139;" horiz-adv-x="581" 
d="M540 136l-29 -136h-491l148 700h165l-119 -564h326zM377 898h158l-126 -132h-116z" />
    <glyph glyph-name="lacute" unicode="&#x13a;" horiz-adv-x="273" 
d="M157 700h152l-150 -700h-152zM269 893h160l-128 -132h-116z" />
    <glyph glyph-name="Lcommaaccent" unicode="&#x13b;" horiz-adv-x="581" 
d="M540 136l-29 -136h-491l148 700h165l-119 -564h326zM150 -180l25 120h165l-25 -120q-4 -22 -13 -42.5t-29 -46t-60 -42t-95 -18.5l17 79q27 0 46 6.5t29.5 18.5t14.5 19.5t9 19.5l2 6h-86z" />
    <glyph glyph-name="lcommaaccent" unicode="&#x13c;" horiz-adv-x="273" 
d="M157 700h152l-150 -700h-152zM-30 -180l25 120h165l-25 -120q-4 -22 -13 -42.5t-29 -46t-60 -42t-95 -18.5l17 79q27 0 46 6.5t29.5 18.5t14.5 19.5t9 19.5l2 6h-86z" />
    <glyph glyph-name="Lcaron" unicode="&#x13d;" horiz-adv-x="601" 
d="M540 136l-29 -136h-491l148 700h165l-119 -564h326zM496 542l34 158h165l-34 -158q-6 -24 -11 -40t-19.5 -43t-34.5 -44.5t-56 -32.5t-82 -18l17 79q44 2 71.5 29t34.5 64l1 6h-86z" />
    <glyph glyph-name="lcaron" unicode="&#x13e;" horiz-adv-x="499" 
d="M157 700h152l-150 -700h-152zM383 542l34 158h165l-34 -158q-6 -24 -11 -40t-19.5 -43t-34.5 -44.5t-56 -32.5t-82 -18l17 79q44 2 71.5 29t34.5 64l1 6h-86z" />
    <glyph glyph-name="Lslash" unicode="&#x141;" horiz-adv-x="657" 
d="M616 136l-29 -136h-491l47 222l-123 -91l26 120l123 91l76 358h165l-54 -256l200 152l-26 -120l-200 -152l-40 -188h326z" />
    <glyph glyph-name="lslash" unicode="&#x142;" horiz-adv-x="456" 
d="M237 700h152l-44 -210l147 88l-19 -88l-147 -88l-85 -402h-152l67 316l-149 -88l19 88l149 88z" />
    <glyph glyph-name="Nacute" unicode="&#x143;" horiz-adv-x="758" 
d="M278 442h-2l-91 -442h-165l148 700h161l193 -440h3l90 440h165l-148 -700h-162zM465 898h158l-126 -132h-116z" />
    <glyph glyph-name="nacute" unicode="&#x144;" horiz-adv-x="614" 
d="M254 508l-11 -55h2q68 74 188 74q71 0 107 -38.5t36 -97.5q0 -22 -10 -72l-67 -319h-152l62 294q7 37 7 47q0 84 -74 84q-93 0 -122 -139l-61 -286h-152l108 508h139zM383 700h160l-128 -132h-116z" />
    <glyph glyph-name="Ncommaaccent" unicode="&#x145;" horiz-adv-x="758" 
d="M278 442h-2l-91 -442h-165l148 700h161l193 -440h3l90 440h165l-148 -700h-162zM198 -180l25 120h165l-25 -120q-4 -22 -13 -42.5t-29 -46t-60 -42t-95 -18.5l17 79q27 0 46 6.5t29.5 18.5t14.5 19.5t9 19.5l2 6h-86z" />
    <glyph glyph-name="ncommaaccent" unicode="&#x146;" horiz-adv-x="614" 
d="M254 508l-11 -55h2q68 74 188 74q71 0 107 -38.5t36 -97.5q0 -22 -10 -72l-67 -319h-152l62 294q7 37 7 47q0 84 -74 84q-93 0 -122 -139l-61 -286h-152l108 508h139zM126 -180l25 120h165l-25 -120q-4 -22 -13 -42.5t-29 -46t-60 -42t-95 -18.5l17 79q27 0 46 6.5
t29.5 18.5t14.5 19.5t9 19.5l2 6h-86z" />
    <glyph glyph-name="Ncaron" unicode="&#x147;" horiz-adv-x="758" 
d="M278 442h-2l-91 -442h-165l148 700h161l193 -440h3l90 440h165l-148 -700h-162zM587 764h-200l-84 132h116l72 -93l112 93h123z" />
    <glyph glyph-name="ncaron" unicode="&#x148;" horiz-adv-x="614" 
d="M254 508l-11 -55h2q68 74 188 74q71 0 107 -38.5t36 -97.5q0 -22 -10 -72l-67 -319h-152l62 294q7 37 7 47q0 84 -74 84q-93 0 -122 -139l-61 -286h-152l108 508h139zM474 568h-201l-83 132h115l73 -92l112 92h123z" />
    <glyph glyph-name="Omacron" unicode="&#x14c;" horiz-adv-x="792" 
d="M364 -20q-80 0 -139.5 22.5t-91.5 54t-51.5 74.5t-24.5 74.5t-5 63.5q0 55 13.5 113.5t45.5 120t79 109t120.5 78t163.5 30.5q146 0 226.5 -76t80.5 -213q0 -55 -13 -113.5t-44.5 -120t-77.5 -109t-119.5 -78t-162.5 -30.5zM377 116q49 0 89 20.5t65 51.5t42 71t23.5 77
t6.5 72q0 176 -148 176q-61 0 -107 -29.5t-70.5 -76.5t-36 -94t-11.5 -92q0 -176 147 -176zM313 766l18 86h383l-18 -86h-383z" />
    <glyph glyph-name="omacron" unicode="&#x14d;" horiz-adv-x="631" 
d="M276 -19q-61 0 -107 15t-72 37.5t-42 54.5t-21 60t-5 60q0 39 9.5 80t33.5 84.5t59.5 77.5t93 55.5t128.5 21.5q33 0 62.5 -4t65 -18.5t61 -38.5t42.5 -67t17 -100q0 -82 -36 -153t-111.5 -118t-177.5 -47zM292 83q72 0 111.5 65t39.5 161q0 116 -105 116
q-54 0 -89.5 -39t-48.5 -88t-13 -102q0 -113 105 -113zM197 600l18 86h384l-18 -86h-384z" />
    <glyph glyph-name="Obreve" unicode="&#x14e;" horiz-adv-x="792" 
d="M364 -20q-80 0 -139.5 22.5t-91.5 54t-51.5 74.5t-24.5 74.5t-5 63.5q0 55 13.5 113.5t45.5 120t79 109t120.5 78t163.5 30.5q146 0 226.5 -76t80.5 -213q0 -55 -13 -113.5t-44.5 -120t-77.5 -109t-119.5 -78t-162.5 -30.5zM377 116q49 0 89 20.5t65 51.5t42 71t23.5 77
t6.5 72q0 176 -148 176q-61 0 -107 -29.5t-70.5 -76.5t-36 -94t-11.5 -92q0 -176 147 -176zM336 904h112q-8 -25 9.5 -46t68.5 -21q81 0 94 67h112q-18 -57 -70.5 -97.5t-150.5 -40.5q-31 0 -58 4.5t-55.5 16t-45.5 36.5t-17 60v10q0 8 1 11z" />
    <glyph glyph-name="obreve" unicode="&#x14f;" horiz-adv-x="631" 
d="M276 -19q-61 0 -107 15t-72 37.5t-42 54.5t-21 60t-5 60q0 39 9.5 80t33.5 84.5t59.5 77.5t93 55.5t128.5 21.5q33 0 62.5 -4t65 -18.5t61 -38.5t42.5 -67t17 -100q0 -82 -36 -153t-111.5 -118t-177.5 -47zM292 83q72 0 111.5 65t39.5 161q0 116 -105 116
q-54 0 -89.5 -39t-48.5 -88t-13 -102q0 -113 105 -113zM212 700h111q-5 -26 12 -46.5t67 -20.5q80 0 94 67h112q-7 -23 -20 -43.5t-37.5 -44t-66.5 -37t-97 -13.5q-30 0 -57 4.5t-56 16t-46 36.5t-17 60v10q0 8 1 11z" />
    <glyph glyph-name="Ohungarumlaut" unicode="&#x150;" horiz-adv-x="792" 
d="M364 -20q-80 0 -139.5 22.5t-91.5 54t-51.5 74.5t-24.5 74.5t-5 63.5q0 55 13.5 113.5t45.5 120t79 109t120.5 78t163.5 30.5q146 0 226.5 -76t80.5 -213q0 -55 -13 -113.5t-44.5 -120t-77.5 -109t-119.5 -78t-162.5 -30.5zM377 116q49 0 89 20.5t65 51.5t42 71t23.5 77
t6.5 72q0 176 -148 176q-61 0 -107 -29.5t-70.5 -76.5t-36 -94t-11.5 -92q0 -176 147 -176zM352 898h160l-128 -132h-116zM600 898h160l-128 -132h-116z" />
    <glyph glyph-name="ohungarumlaut" unicode="&#x151;" horiz-adv-x="631" 
d="M276 -19q-61 0 -107 15t-72 37.5t-42 54.5t-21 60t-5 60q0 39 9.5 80t33.5 84.5t59.5 77.5t93 55.5t128.5 21.5q33 0 62.5 -4t65 -18.5t61 -38.5t42.5 -67t17 -100q0 -82 -36 -153t-111.5 -118t-177.5 -47zM292 83q72 0 111.5 65t39.5 161q0 116 -105 116
q-54 0 -89.5 -39t-48.5 -88t-13 -102q0 -113 105 -113zM250 700h160l-128 -132h-116zM479 700h160l-128 -132h-116z" />
    <glyph glyph-name="OE" unicode="&#x152;" horiz-adv-x="1165" 
d="M705 700h527l-29 -136h-389l-30 -138h342l-27 -136h-342l-33 -154h397l-29 -136h-523l15 66q-92 -86 -232 -86q-60 0 -108.5 14t-79 35t-53 51.5t-33.5 57t-17.5 58.5t-7.5 49.5t-1 36.5q0 80 24.5 155t72 140t128.5 104t184 39q165 0 229 -86zM378 116q61 0 107.5 30
t71 76.5t36 94t11.5 91.5q0 176 -155 176q-54 0 -95.5 -25t-64 -60t-36.5 -79t-18 -74.5t-4 -53.5q0 -80 35 -128t112 -48z" />
    <glyph glyph-name="oe" unicode="&#x153;" horiz-adv-x="1013" 
d="M787 147h154q-31 -75 -102.5 -120.5t-175.5 -45.5q-129 0 -175 81q-74 -81 -212 -81q-61 0 -107 15t-72 37.5t-42 54.5t-21 60t-5 60q0 41 9.5 82.5t33 84.5t59 76.5t93 54.5t128.5 21q67 0 113.5 -19.5t76.5 -74.5q66 94 209 94q17 0 33.5 -1.5t40 -6.5t44 -13t41.5 -24
t36 -37.5t24.5 -54t9.5 -72.5q0 -47 -13 -95h-389q-3 -21 -3 -41q0 -99 101 -99q35 0 65.5 16t45.5 48zM292 83q66 0 108.5 60t42.5 166q0 116 -105 116q-11 0 -24 -2t-37.5 -15t-42.5 -35t-32.5 -68.5t-14.5 -108.5q0 -113 105 -113zM595 302h231q5 22 5 44q0 79 -98 79
q-45 0 -79.5 -24.5t-58.5 -98.5z" />
    <glyph glyph-name="Racute" unicode="&#x154;" horiz-adv-x="720" 
d="M22 0l148 700h339q63 0 108 -16.5t66.5 -44t30.5 -55.5t9 -59q0 -70 -43 -130.5t-114 -74.5l-1 -3q73 -25 73 -93q0 -25 -15 -99q-11 -49 -11 -80q0 -19 12 -45h-168q-11 24 -11 46q0 33 10 72q12 55 12 76t-9.5 34.5t-27.5 18.5t-30 6t-31 1h-128l-54 -254h-165z
M306 564l-37 -174h151q64 0 96 28t32 66q0 80 -103 80h-139zM446 898h158l-126 -132h-116z" />
    <glyph glyph-name="racute" unicode="&#x155;" horiz-adv-x="421" 
d="M466 517l-25 -121q-17 4 -40 4q-33 0 -65 -9t-68 -43t-52 -90q-1 -3 -12 -50l-45 -208h-152l107 508h146l-15 -72q69 83 193 83q10 0 28 -2zM287 700h160l-128 -132h-116z" />
    <glyph glyph-name="Rcommaaccent" unicode="&#x156;" horiz-adv-x="720" 
d="M22 0l148 700h339q63 0 108 -16.5t66.5 -44t30.5 -55.5t9 -59q0 -70 -43 -130.5t-114 -74.5l-1 -3q73 -25 73 -93q0 -25 -15 -99q-11 -49 -11 -80q0 -19 12 -45h-168q-11 24 -11 46q0 33 10 72q12 55 12 76t-9.5 34.5t-27.5 18.5t-30 6t-31 1h-128l-54 -254h-165z
M306 564l-37 -174h151q64 0 96 28t32 66q0 80 -103 80h-139zM179 -180l25 120h165l-25 -120q-4 -22 -13 -42.5t-29 -46t-60 -42t-95 -18.5l17 79q27 0 46 6.5t29.5 18.5t14.5 19.5t9 19.5l2 6h-86z" />
    <glyph glyph-name="rcommaaccent" unicode="&#x157;" horiz-adv-x="421" 
d="M466 517l-25 -121q-17 4 -40 4q-33 0 -65 -9t-68 -43t-52 -90q-1 -3 -12 -50l-45 -208h-152l107 508h146l-15 -72q69 83 193 83q10 0 28 -2zM30 -180l25 120h165l-25 -120q-4 -22 -13 -42.5t-29 -46t-60 -42t-95 -18.5l17 79q27 0 46 6.5t29.5 18.5t14.5 19.5t9 19.5l2 6
h-86z" />
    <glyph glyph-name="Rcaron" unicode="&#x158;" horiz-adv-x="720" 
d="M22 0l148 700h339q63 0 108 -16.5t66.5 -44t30.5 -55.5t9 -59q0 -70 -43 -130.5t-114 -74.5l-1 -3q73 -25 73 -93q0 -25 -15 -99q-11 -49 -11 -80q0 -19 12 -45h-168q-11 24 -11 46q0 33 10 72q12 55 12 76t-9.5 34.5t-27.5 18.5t-30 6t-31 1h-128l-54 -254h-165z
M306 564l-37 -174h151q64 0 96 28t32 66q0 80 -103 80h-139zM568 764h-200l-84 132h116l72 -93l112 93h123z" />
    <glyph glyph-name="rcaron" unicode="&#x159;" horiz-adv-x="421" 
d="M466 517l-25 -121q-17 4 -40 4q-33 0 -65 -9t-68 -43t-52 -90q-1 -3 -12 -50l-45 -208h-152l107 508h146l-15 -72q69 83 193 83q10 0 28 -2zM378 568h-201l-83 132h115l73 -92l112 92h123z" />
    <glyph glyph-name="Sacute" unicode="&#x15a;" horiz-adv-x="665" 
d="M30 227h168q-4 -13 -4 -32q0 -79 117 -79q45 0 75 9.5t43 25t17.5 28t4.5 26.5q0 10 -2.5 19t-8.5 16l-11 12.5t-17 11t-19 9t-23 8t-24 6.5t-27.5 6.5t-27.5 6.5q-37 9 -57.5 15.5t-51 21.5t-46.5 33t-28.5 48.5t-12.5 69.5q0 105 79 168.5t238 63.5q251 0 251 -169
q0 -22 -3 -43h-157q1 3 1 8v9q0 59 -102 59q-18 0 -36.5 -2.5t-41.5 -9.5t-37 -23t-14 -40q0 -31 26 -47t94 -32q133 -31 184.5 -70t51.5 -117q0 -116 -80 -189.5t-240 -73.5q-284 0 -284 195q0 31 5 52zM419 898h158l-126 -132h-116z" />
    <glyph glyph-name="sacute" unicode="&#x15b;" horiz-adv-x="556" 
d="M10 160h156q-1 -3 -1 -9v-9q0 -59 93 -59q35 0 62.5 17t27.5 45t-20 40t-61 21q-12 3 -43 9.5t-43.5 9.5t-36.5 11t-34 16t-23 21t-18 30.5t-5 39.5q0 75 63 129.5t195 54.5q209 0 209 -130q0 -14 -3 -29h-137q1 3 1 9v10q0 38 -75 38q-95 0 -95 -55q0 -19 11.5 -31
t24 -16t31.5 -7q11 -2 39 -6.5t38.5 -6.5l33 -6.5t31.5 -8.5l24.5 -11t22 -15t14.5 -19t11 -25t3 -31q0 -20 -3 -40t-18.5 -52t-42 -55.5t-79 -41t-124.5 -17.5q-63 0 -111 11t-84 44.5t-36 87.5v18q0 6 2 18zM354 700h160l-128 -132h-116z" />
    <glyph glyph-name="Scircumflex" unicode="&#x15c;" horiz-adv-x="665" 
d="M30 227h168q-4 -13 -4 -32q0 -79 117 -79q45 0 75 9.5t43 25t17.5 28t4.5 26.5q0 10 -2.5 19t-8.5 16l-11 12.5t-17 11t-19 9t-23 8t-24 6.5t-27.5 6.5t-27.5 6.5q-37 9 -57.5 15.5t-51 21.5t-46.5 33t-28.5 48.5t-12.5 69.5q0 105 79 168.5t238 63.5q251 0 251 -169
q0 -22 -3 -43h-157q1 3 1 8v9q0 59 -102 59q-18 0 -36.5 -2.5t-41.5 -9.5t-37 -23t-14 -40q0 -31 26 -47t94 -32q133 -31 184.5 -70t51.5 -117q0 -116 -80 -189.5t-240 -73.5q-284 0 -284 195q0 31 5 52zM369 898h200l83 -132h-114l-73 92l-113 -92h-122z" />
    <glyph glyph-name="scircumflex" unicode="&#x15d;" horiz-adv-x="556" 
d="M10 160h156q-1 -3 -1 -9v-9q0 -59 93 -59q35 0 62.5 17t27.5 45t-20 40t-61 21q-12 3 -43 9.5t-43.5 9.5t-36.5 11t-34 16t-23 21t-18 30.5t-5 39.5q0 75 63 129.5t195 54.5q209 0 209 -130q0 -14 -3 -29h-137q1 3 1 9v10q0 38 -75 38q-95 0 -95 -55q0 -19 11.5 -31
t24 -16t31.5 -7q11 -2 39 -6.5t38.5 -6.5l33 -6.5t31.5 -8.5l24.5 -11t22 -15t14.5 -19t11 -25t3 -31q0 -20 -3 -40t-18.5 -52t-42 -55.5t-79 -41t-124.5 -17.5q-63 0 -111 11t-84 44.5t-36 87.5v18q0 6 2 18zM368 660l-112 -92h-123l140 132h200l83 -132h-115z" />
    <glyph glyph-name="Scedilla" unicode="&#x15e;" horiz-adv-x="665" 
d="M30 227h168q-4 -13 -4 -32q0 -79 117 -79q45 0 75 9.5t43 25t17.5 28t4.5 26.5q0 10 -2.5 19t-8.5 16l-11 12.5t-17 11t-19 9t-23 8t-24 6.5t-27.5 6.5t-27.5 6.5q-37 9 -57.5 15.5t-51 21.5t-46.5 33t-28.5 48.5t-12.5 69.5q0 105 79 168.5t238 63.5q251 0 251 -169
q0 -22 -3 -43h-157q1 3 1 8v9q0 59 -102 59q-18 0 -36.5 -2.5t-41.5 -9.5t-37 -23t-14 -40q0 -31 26 -47t94 -32q133 -31 184.5 -70t51.5 -117q0 -116 -80 -189.5t-240 -73.5q-284 0 -284 195q0 31 5 52zM172 -232l32 62q21 -9 54 -9q57 0 57 32q0 33 -68 33q-3 0 -17 -2
l28 56q6 1 17 1h18q126 0 126 -87q0 -39 -37.5 -68.5t-121.5 -29.5q-39 0 -88 12z" />
    <glyph glyph-name="Scedilla" unicode="&#xf6c1;" horiz-adv-x="665" 
d="M30 227h168q-4 -13 -4 -32q0 -79 117 -79q45 0 75 9.5t43 25t17.5 28t4.5 26.5q0 10 -2.5 19t-8.5 16l-11 12.5t-17 11t-19 9t-23 8t-24 6.5t-27.5 6.5t-27.5 6.5q-37 9 -57.5 15.5t-51 21.5t-46.5 33t-28.5 48.5t-12.5 69.5q0 105 79 168.5t238 63.5q251 0 251 -169
q0 -22 -3 -43h-157q1 3 1 8v9q0 59 -102 59q-18 0 -36.5 -2.5t-41.5 -9.5t-37 -23t-14 -40q0 -31 26 -47t94 -32q133 -31 184.5 -70t51.5 -117q0 -116 -80 -189.5t-240 -73.5q-284 0 -284 195q0 31 5 52zM172 -232l32 62q21 -9 54 -9q57 0 57 32q0 33 -68 33q-3 0 -17 -2
l28 56q6 1 17 1h18q126 0 126 -87q0 -39 -37.5 -68.5t-121.5 -29.5q-39 0 -88 12z" />
    <glyph glyph-name="scedilla" unicode="&#x15f;" horiz-adv-x="556" 
d="M10 160h156q-1 -3 -1 -9v-9q0 -59 93 -59q35 0 62.5 17t27.5 45t-20 40t-61 21q-12 3 -43 9.5t-43.5 9.5t-36.5 11t-34 16t-23 21t-18 30.5t-5 39.5q0 75 63 129.5t195 54.5q209 0 209 -130q0 -14 -3 -29h-137q1 3 1 9v10q0 38 -75 38q-95 0 -95 -55q0 -19 11.5 -31
t24 -16t31.5 -7q11 -2 39 -6.5t38.5 -6.5l33 -6.5t31.5 -8.5l24.5 -11t22 -15t14.5 -19t11 -25t3 -31q0 -20 -3 -40t-18.5 -52t-42 -55.5t-79 -41t-124.5 -17.5q-63 0 -111 11t-84 44.5t-36 87.5v18q0 6 2 18zM108 -228l32 62q21 -9 54 -9q57 0 57 32t-51 32q-29 0 -34 -1
l28 56q6 1 17 1h18q126 0 126 -87q0 -39 -37.5 -68.5t-121.5 -29.5q-39 0 -88 12z" />
    <glyph glyph-name="scedilla" unicode="&#xf6c2;" horiz-adv-x="556" 
d="M10 160h156q-1 -3 -1 -9v-9q0 -59 93 -59q35 0 62.5 17t27.5 45t-20 40t-61 21q-12 3 -43 9.5t-43.5 9.5t-36.5 11t-34 16t-23 21t-18 30.5t-5 39.5q0 75 63 129.5t195 54.5q209 0 209 -130q0 -14 -3 -29h-137q1 3 1 9v10q0 38 -75 38q-95 0 -95 -55q0 -19 11.5 -31
t24 -16t31.5 -7q11 -2 39 -6.5t38.5 -6.5l33 -6.5t31.5 -8.5l24.5 -11t22 -15t14.5 -19t11 -25t3 -31q0 -20 -3 -40t-18.5 -52t-42 -55.5t-79 -41t-124.5 -17.5q-63 0 -111 11t-84 44.5t-36 87.5v18q0 6 2 18zM108 -228l32 62q21 -9 54 -9q57 0 57 32t-51 32q-29 0 -34 -1
l28 56q6 1 17 1h18q126 0 126 -87q0 -39 -37.5 -68.5t-121.5 -29.5q-39 0 -88 12z" />
    <glyph glyph-name="Scaron" unicode="&#x160;" horiz-adv-x="665" 
d="M30 227h168q-4 -13 -4 -32q0 -79 117 -79q45 0 75 9.5t43 25t17.5 28t4.5 26.5q0 10 -2.5 19t-8.5 16l-11 12.5t-17 11t-19 9t-23 8t-24 6.5t-27.5 6.5t-27.5 6.5q-37 9 -57.5 15.5t-51 21.5t-46.5 33t-28.5 48.5t-12.5 69.5q0 105 79 168.5t238 63.5q251 0 251 -169
q0 -22 -3 -43h-157q1 3 1 8v9q0 59 -102 59q-18 0 -36.5 -2.5t-41.5 -9.5t-37 -23t-14 -40q0 -31 26 -47t94 -32q133 -31 184.5 -70t51.5 -117q0 -116 -80 -189.5t-240 -73.5q-284 0 -284 195q0 31 5 52zM541 764h-200l-84 132h116l72 -93l112 93h123z" />
    <glyph glyph-name="scaron" unicode="&#x161;" horiz-adv-x="556" 
d="M10 160h156q-1 -3 -1 -9v-9q0 -59 93 -59q35 0 62.5 17t27.5 45t-20 40t-61 21q-12 3 -43 9.5t-43.5 9.5t-36.5 11t-34 16t-23 21t-18 30.5t-5 39.5q0 75 63 129.5t195 54.5q209 0 209 -130q0 -14 -3 -29h-137q1 3 1 9v10q0 38 -75 38q-95 0 -95 -55q0 -19 11.5 -31
t24 -16t31.5 -7q11 -2 39 -6.5t38.5 -6.5l33 -6.5t31.5 -8.5l24.5 -11t22 -15t14.5 -19t11 -25t3 -31q0 -20 -3 -40t-18.5 -52t-42 -55.5t-79 -41t-124.5 -17.5q-63 0 -111 11t-84 44.5t-36 87.5v18q0 6 2 18zM445 568h-201l-83 132h115l73 -92l112 92h123z" />
    <glyph glyph-name="Tcedilla" unicode="&#x162;" horiz-adv-x="608" 
d="M290 564h-211l29 136h587l-29 -136h-211l-119 -564h-165zM132 -228l32 62q21 -9 54 -9q57 0 57 32q0 33 -68 33q-3 0 -17 -2l28 56q6 1 17 1h18q126 0 126 -87q0 -39 -37.5 -68.5t-121.5 -29.5q-39 0 -88 12z" />
    <glyph glyph-name="tcedilla" unicode="&#x163;" horiz-adv-x="383" 
d="M45 406l22 102h91l32 152h152l-32 -152h109l-22 -102h-109l-52 -244q-5 -22 -5 -34q0 -36 53 -36q18 0 48 10l-22 -102q-63 -14 -114 -14q-72 0 -98 26.5t-26 68.5q0 26 6 53l58 272h-91zM50 -228l32 62q21 -9 54 -9q57 0 57 32t-51 32q-29 0 -34 -1l28 56q6 1 17 1h18
q126 0 126 -87q0 -39 -37.5 -68.5t-121.5 -29.5q-39 0 -88 12z" />
    <glyph glyph-name="Tcaron" unicode="&#x164;" horiz-adv-x="608" 
d="M290 564h-211l29 136h587l-29 -136h-211l-119 -564h-165zM512 764h-200l-84 132h116l72 -93l112 93h123z" />
    <glyph glyph-name="tcaron" unicode="&#x165;" horiz-adv-x="625" 
d="M45 406l22 102h91l32 152h152l-32 -152h109l-22 -102h-109l-52 -244q-5 -22 -5 -34q0 -36 53 -36q18 0 48 10l-22 -102q-63 -14 -114 -14q-72 0 -98 26.5t-26 68.5q0 26 6 53l58 272h-91zM496 542l34 158h165l-34 -158q-6 -24 -11 -40t-19.5 -43t-34.5 -44.5t-56 -32.5
t-82 -18l17 79q44 2 71.5 29t34.5 64l1 6h-86z" />
    <glyph glyph-name="Utilde" unicode="&#x168;" horiz-adv-x="733" 
d="M158 700h165l-86 -408q-11 -53 -11 -76q0 -48 31 -74t86 -26q68 0 108 38t61 138l87 408h165l-92 -435q-10 -46 -21 -80t-36 -75t-58.5 -67.5t-90.5 -44.5t-131 -18q-278 0 -278 215q0 26 15 97zM628 894h93q-53 -128 -143 -128q-41 0 -94 25q-48 25 -79 25
q-38 0 -53 -40h-93q19 47 55.5 86t87.5 39q46 0 92 -24q52 -27 81 -27q19 0 33 12.5t20 31.5z" />
    <glyph glyph-name="utilde" unicode="&#x169;" horiz-adv-x="609" 
d="M355 0l12 56h-3q-74 -75 -187 -75q-37 0 -64.5 11.5t-41.5 27.5t-22.5 36.5t-10.5 34t-2 26.5q0 43 6 73l68 318h152l-62 -294q-7 -37 -7 -46q0 -34 16.5 -59.5t58.5 -25.5q94 0 121 140l61 285h152l-109 -508h-138zM525 700h93q-53 -128 -143 -128q-27 0 -43 5t-51 22
q-52 24 -79 24q-40 0 -53 -41h-93q20 53 57.5 89.5t85.5 36.5q39 0 90 -24q49 -27 83 -27q39 0 53 43z" />
    <glyph glyph-name="Umacron" unicode="&#x16a;" horiz-adv-x="733" 
d="M158 700h165l-86 -408q-11 -53 -11 -76q0 -48 31 -74t86 -26q68 0 108 38t61 138l87 408h165l-92 -435q-10 -46 -21 -80t-36 -75t-58.5 -67.5t-90.5 -44.5t-131 -18q-278 0 -278 215q0 26 15 97zM284 766l18 86h383l-18 -86h-383z" />
    <glyph glyph-name="umacron" unicode="&#x16b;" horiz-adv-x="609" 
d="M355 0l12 56h-3q-74 -75 -187 -75q-37 0 -64.5 11.5t-41.5 27.5t-22.5 36.5t-10.5 34t-2 26.5q0 43 6 73l68 318h152l-62 -294q-7 -37 -7 -46q0 -34 16.5 -59.5t58.5 -25.5q94 0 121 140l61 285h152l-109 -508h-138zM186 600l18 86h384l-18 -86h-384z" />
    <glyph glyph-name="Ubreve" unicode="&#x16c;" horiz-adv-x="733" 
d="M158 700h165l-86 -408q-11 -53 -11 -76q0 -48 31 -74t86 -26q68 0 108 38t61 138l87 408h165l-92 -435q-10 -46 -21 -80t-36 -75t-58.5 -67.5t-90.5 -44.5t-131 -18q-278 0 -278 215q0 26 15 97zM306 904h112q-8 -25 9.5 -46t68.5 -21q81 0 94 67h112
q-18 -57 -70.5 -97.5t-150.5 -40.5q-31 0 -58 4.5t-55.5 16t-45.5 36.5t-17 60v10q0 8 1 11z" />
    <glyph glyph-name="ubreve" unicode="&#x16d;" horiz-adv-x="609" 
d="M355 0l12 56h-3q-74 -75 -187 -75q-37 0 -64.5 11.5t-41.5 27.5t-22.5 36.5t-10.5 34t-2 26.5q0 43 6 73l68 318h152l-62 -294q-7 -37 -7 -46q0 -34 16.5 -59.5t58.5 -25.5q94 0 121 140l61 285h152l-109 -508h-138zM201 700h111q-5 -26 12 -46.5t67 -20.5q80 0 94 67
h112q-7 -23 -20 -43.5t-37.5 -44t-66.5 -37t-97 -13.5q-30 0 -57 4.5t-56 16t-46 36.5t-17 60v10q0 8 1 11z" />
    <glyph glyph-name="Uring" unicode="&#x16e;" horiz-adv-x="733" 
d="M158 700h165l-86 -408q-11 -53 -11 -76q0 -48 31 -74t86 -26q68 0 108 38t61 138l87 408h165l-92 -435q-10 -46 -21 -80t-36 -75t-58.5 -67.5t-90.5 -44.5t-131 -18q-278 0 -278 215q0 26 15 97zM373 863q0 41 28.5 69.5t69.5 28.5t69.5 -28.5t28.5 -69.5t-28.5 -69.5
t-69.5 -28.5t-69.5 28.5t-28.5 69.5zM427 863q0 -18 13 -31t31 -13t31 13t13 31t-13 31t-31 13t-31 -13t-13 -31z" />
    <glyph glyph-name="uring" unicode="&#x16f;" horiz-adv-x="609" 
d="M355 0l12 56h-3q-74 -75 -187 -75q-37 0 -64.5 11.5t-41.5 27.5t-22.5 36.5t-10.5 34t-2 26.5q0 43 6 73l68 318h152l-62 -294q-7 -37 -7 -46q0 -34 16.5 -59.5t58.5 -25.5q94 0 121 140l61 285h152l-109 -508h-138zM270 648q0 41 28.5 69.5t69.5 28.5t69.5 -28.5
t28.5 -69.5t-28.5 -69.5t-69.5 -28.5t-69.5 28.5t-28.5 69.5zM324 648q0 -18 13 -31t31 -13t31 13t13 31t-13 31t-31 13t-31 -13t-13 -31z" />
    <glyph glyph-name="Uhungarumlaut" unicode="&#x170;" horiz-adv-x="733" 
d="M158 700h165l-86 -408q-11 -53 -11 -76q0 -48 31 -74t86 -26q68 0 108 38t61 138l87 408h165l-92 -435q-10 -46 -21 -80t-36 -75t-58.5 -67.5t-90.5 -44.5t-131 -18q-278 0 -278 215q0 26 15 97zM349 898h160l-128 -132h-116zM597 898h160l-128 -132h-116z" />
    <glyph glyph-name="uhungarumlaut" unicode="&#x171;" horiz-adv-x="609" 
d="M355 0l12 56h-3q-74 -75 -187 -75q-37 0 -64.5 11.5t-41.5 27.5t-22.5 36.5t-10.5 34t-2 26.5q0 43 6 73l68 318h152l-62 -294q-7 -37 -7 -46q0 -34 16.5 -59.5t58.5 -25.5q94 0 121 140l61 285h152l-109 -508h-138zM270 700h160l-128 -132h-116zM499 700h160l-128 -132
h-116z" />
    <glyph glyph-name="Uogonek" unicode="&#x172;" horiz-adv-x="733" 
d="M158 700h165l-86 -408q-11 -53 -11 -76q0 -48 31 -74t86 -26q68 0 108 38t61 138l87 408h165l-92 -435q-10 -46 -21 -80t-36 -75t-58.5 -67.5t-90.5 -44.5t-131 -18q-278 0 -278 215q0 26 15 97zM279 -19h96q-44 -28 -72 -69t-28 -80q0 -15 5 -24q12 -21 37 -21
q29 0 46 19t21 43h89q-17 -55 -55 -89q-53 -48 -130 -48q-51 0 -88 25.5t-37 76.5q0 50 34 94.5t82 72.5z" />
    <glyph glyph-name="uogonek" unicode="&#x173;" horiz-adv-x="609" 
d="M355 0l12 56h-3q-74 -75 -187 -75q-37 0 -64.5 11.5t-41.5 27.5t-22.5 36.5t-10.5 34t-2 26.5q0 43 6 73l68 318h152l-62 -294q-7 -37 -7 -46q0 -34 16.5 -59.5t58.5 -25.5q94 0 121 140l61 285h152l-109 -508h-138zM361 0h96q-44 -28 -72 -69t-28 -80q0 -15 5 -24
q12 -21 37 -21q29 0 46 19t21 43h89q-17 -55 -55 -89q-53 -48 -130 -48q-51 0 -88 25.5t-37 76.5q0 50 34 94.5t82 72.5z" />
    <glyph glyph-name="Ydieresis" unicode="&#x178;" horiz-adv-x="640" 
d="M358 410l208 290h184l-340 -436l-56 -264h-165l56 264l-159 436h180zM232 766l22 106h142l-22 -106h-142zM480 766l22 106h142l-22 -106h-142z" />
    <glyph glyph-name="Zacute" unicode="&#x179;" horiz-adv-x="635" 
d="M436 564h-327l31 136h542l-27 -127l-442 -437h375l-30 -136h-585l31 146zM404 898h158l-126 -132h-116z" />
    <glyph glyph-name="zacute" unicode="&#x17a;" horiz-adv-x="512" 
d="M80 406l22 102h425l-23 -109l-320 -297h271l-23 -102h-459l22 107l327 299h-242zM332 700h160l-128 -132h-116z" />
    <glyph glyph-name="Zdotaccent" unicode="&#x17b;" horiz-adv-x="635" 
d="M436 564h-327l31 136h542l-27 -127l-442 -437h375l-30 -136h-585l31 146zM342 766l22 106h165l-22 -106h-165z" />
    <glyph glyph-name="zdotaccent" unicode="&#x17c;" horiz-adv-x="512" 
d="M80 406l22 102h425l-23 -109l-320 -297h271l-23 -102h-459l22 107l327 299h-242zM246 581l25 119h158l-25 -119h-158z" />
    <glyph glyph-name="Zcaron" unicode="&#x17d;" horiz-adv-x="635" 
d="M436 564h-327l31 136h542l-27 -127l-442 -437h375l-30 -136h-585l31 146zM526 764h-200l-84 132h116l72 -93l112 93h123z" />
    <glyph glyph-name="zcaron" unicode="&#x17e;" horiz-adv-x="512" 
d="M80 406l22 102h425l-23 -109l-320 -297h271l-23 -102h-459l22 107l327 299h-242zM424 568h-201l-83 132h115l73 -92l112 92h123z" />
    <glyph glyph-name="Schwa" unicode="&#x18f;" horiz-adv-x="785" 
d="M298 495h-200q40 100 134 162.5t247 62.5q73 0 128 -18.5t86 -46t50.5 -66.5t25.5 -73.5t6 -73.5q0 -63 -15.5 -126.5t-50.5 -124.5t-85.5 -107.5t-125 -75t-164.5 -28.5q-22 0 -41 1.5t-49.5 7.5t-54.5 17t-50.5 32t-44.5 50t-30 73.5t-12 99.5q0 59 8 96l5 26h505
q4 28 4 49q0 29 -5.5 54.5t-19 50t-39.5 38.5t-63 14q-47 0 -89.5 -24.5t-59.5 -69.5zM550 275h-302q-2 -14 -2 -21q0 -143 113 -143q146 0 191 164z" />
    <glyph glyph-name="florin" unicode="&#x192;" horiz-adv-x="650" 
d="M447 508h115l-21 -102h-115l-91 -431q-9 -44 -26.5 -76t-36 -49t-43 -27t-43 -12.5t-40.5 -2.5q-51 0 -89 7l21 102q14 -2 15 -2q44 0 64.5 16.5t28.5 58.5l88 416h-93l21 102h93l9 44q10 50 29 82.5t48 48t58.5 21t71.5 5.5q54 0 90 -9l-20 -99q-30 6 -61 6
q-53 0 -65 -61z" />
    <glyph glyph-name="cyrObar" unicode="&#x19f;" horiz-adv-x="792" 
d="M364 -20q-80 0 -139.5 22.5t-91.5 54t-51.5 74.5t-24.5 74.5t-5 63.5q0 55 13.5 113.5t45.5 120t79 109t120.5 78t163.5 30.5q146 0 226.5 -76t80.5 -213q0 -55 -13 -113.5t-44.5 -120t-77.5 -109t-119.5 -78t-162.5 -30.5zM582 287h-352q-2 -28 4 -56t21 -55t46.5 -43.5
t75.5 -16.5q84 0 133.5 50t71.5 121zM256 423h347q0 27 -5.5 51t-19.5 51t-45.5 43t-77.5 16q-84 0 -132 -49t-67 -112z" />
    <glyph glyph-name="cyrObar" unicode="&#x4e8;" horiz-adv-x="792" 
d="M364 -20q-80 0 -139.5 22.5t-91.5 54t-51.5 74.5t-24.5 74.5t-5 63.5q0 55 13.5 113.5t45.5 120t79 109t120.5 78t163.5 30.5q146 0 226.5 -76t80.5 -213q0 -55 -13 -113.5t-44.5 -120t-77.5 -109t-119.5 -78t-162.5 -30.5zM582 287h-352q-2 -28 4 -56t21 -55t46.5 -43.5
t75.5 -16.5q84 0 133.5 50t71.5 121zM256 423h347q0 27 -5.5 51t-19.5 51t-45.5 43t-77.5 16q-84 0 -132 -49t-67 -112z" />
    <glyph glyph-name="Icaron" unicode="&#x1cf;" horiz-adv-x="311" 
d="M168 700h165l-148 -700h-165zM364 764h-200l-84 132h116l72 -93l112 93h123z" />
    <glyph glyph-name="icaron" unicode="&#x1d0;" horiz-adv-x="273" 
d="M114 508h152l-107 -508h-152zM304 568h-201l-83 132h115l73 -92l112 92h123z" />
    <glyph glyph-name="eturn" unicode="&#x1dd;" horiz-adv-x="628" 
d="M229 361h-154q67 166 277 166q61 0 106.5 -15.5t71 -38t41 -54t20 -58t4.5 -55.5q0 -38 -9 -78.5t-32.5 -85.5t-58.5 -80t-93 -58t-129 -23q-127 0 -185 57t-58 149q0 42 19 98h388q4 17 4 41q0 99 -102 99q-37 0 -68 -17.5t-42 -46.5zM420 206h-232q-4 -17 -4 -42
q0 -81 99 -81q34 0 61 13.5t42 35t22.5 39t11.5 35.5z" />
    <glyph glyph-name="Gcaron" unicode="&#x1e6;" horiz-adv-x="787" 
d="M454 380h297l-81 -380h-123l13 59h-2q-38 -45 -92 -62t-127 -17q-142 0 -215.5 79.5t-73.5 226.5q0 58 12.5 115.5t44 116t78 102.5t120.5 72t166 28q81 0 142 -22t95 -58t48 -79t8 -88h-172v19q0 47 -36.5 69.5t-87.5 22.5q-112 0 -176 -82.5t-64 -201.5
q0 -88 41.5 -136t119.5 -48q67 0 113.5 39t63.5 98h-140zM602 764h-200l-84 132h116l72 -93l112 93h123z" />
    <glyph glyph-name="gcaron" unicode="&#x1e7;" horiz-adv-x="637" 
d="M19 -40h148q2 -55 90 -55q16 0 28.5 3t31.5 13t34.5 36t23.5 66l8 37h-3q-22 -22 -65 -35t-83 -13q-84 0 -140 51t-56 159q0 133 76.5 219t190.5 86q122 0 169 -75h3l12 56h143l-98 -461q-11 -50 -30 -90t-39 -65t-48 -43t-48.5 -26.5t-49 -13.5t-42 -5.5t-34.5 -0.5
q-26 0 -45 1t-48.5 5.5t-50 15t-40.5 27t-29.5 44.5t-8.5 64zM293 114q52 0 87 36.5t47.5 79t12.5 82.5q0 55 -27.5 84t-71.5 29q-67 0 -107 -63.5t-40 -142.5q0 -49 27 -77t72 -28zM486 568h-201l-83 132h115l73 -92l112 92h123z" />
    <glyph glyph-name="Scommaaccent" unicode="&#x218;" horiz-adv-x="665" 
d="M30 227h168q-4 -13 -4 -32q0 -79 117 -79q45 0 75 9.5t43 25t17.5 28t4.5 26.5q0 10 -2.5 19t-8.5 16l-11 12.5t-17 11t-19 9t-23 8t-24 6.5t-27.5 6.5t-27.5 6.5q-37 9 -57.5 15.5t-51 21.5t-46.5 33t-28.5 48.5t-12.5 69.5q0 105 79 168.5t238 63.5q251 0 251 -169
q0 -22 -3 -43h-157q1 3 1 8v9q0 59 -102 59q-18 0 -36.5 -2.5t-41.5 -9.5t-37 -23t-14 -40q0 -31 26 -47t94 -32q133 -31 184.5 -70t51.5 -117q0 -116 -80 -189.5t-240 -73.5q-284 0 -284 195q0 31 5 52zM152 -180l25 120h165l-25 -120q-4 -22 -13 -42.5t-29 -46t-60 -42
t-95 -18.5l17 79q27 0 46 6.5t29.5 18.5t14.5 19.5t9 19.5l2 6h-86z" />
    <glyph glyph-name="scommaaccent" unicode="&#x219;" horiz-adv-x="556" 
d="M10 160h156q-1 -3 -1 -9v-9q0 -59 93 -59q35 0 62.5 17t27.5 45t-20 40t-61 21q-12 3 -43 9.5t-43.5 9.5t-36.5 11t-34 16t-23 21t-18 30.5t-5 39.5q0 75 63 129.5t195 54.5q209 0 209 -130q0 -14 -3 -29h-137q1 3 1 9v10q0 38 -75 38q-95 0 -95 -55q0 -19 11.5 -31
t24 -16t31.5 -7q11 -2 39 -6.5t38.5 -6.5l33 -6.5t31.5 -8.5l24.5 -11t22 -15t14.5 -19t11 -25t3 -31q0 -20 -3 -40t-18.5 -52t-42 -55.5t-79 -41t-124.5 -17.5q-63 0 -111 11t-84 44.5t-36 87.5v18q0 6 2 18zM97 -180l25 120h165l-25 -120q-4 -22 -13 -42.5t-29 -46
t-60 -42t-95 -18.5l17 79q27 0 46 6.5t29.5 18.5t14.5 19.5t9 19.5l2 6h-86z" />
    <glyph glyph-name="Tcommaaccent" unicode="&#x21a;" horiz-adv-x="608" 
d="M290 564h-211l29 136h587l-29 -136h-211l-119 -564h-165zM123 -180l25 120h165l-25 -120q-4 -22 -13 -42.5t-29 -46t-60 -42t-95 -18.5l17 79q27 0 46 6.5t29.5 18.5t14.5 19.5t9 19.5l2 6h-86z" />
    <glyph glyph-name="tcommaaccent" unicode="&#x21b;" horiz-adv-x="383" 
d="M45 406l22 102h91l32 152h152l-32 -152h109l-22 -102h-109l-52 -244q-5 -22 -5 -34q0 -36 53 -36q18 0 48 10l-22 -102q-63 -14 -114 -14q-72 0 -98 26.5t-26 68.5q0 26 6 53l58 272h-91zM93 -180l25 120h165l-25 -120q-4 -22 -13 -42.5t-29 -46t-60 -42t-95 -18.5l17 79
q27 0 46 6.5t29.5 18.5t14.5 19.5t9 19.5l2 6h-86z" />
    <glyph glyph-name="Ecedilla" unicode="&#x228;" horiz-adv-x="655" 
d="M275 425h342l-27 -136h-344l-32 -153h397l-28 -136h-563l148 700h554l-28 -136h-390zM175 -228l32 62q21 -9 54 -9q57 0 57 32t-51 32q-29 0 -34 -1l28 56q6 1 17 1h18q126 0 126 -87q0 -39 -37.5 -68.5t-121.5 -29.5q-39 0 -88 12z" />
    <glyph glyph-name="ecedilla" unicode="&#x229;" horiz-adv-x="628" 
d="M396 147h154q-67 -166 -277 -166q-61 0 -106.5 15.5t-71 38t-41 54t-20 58t-4.5 55.5q0 38 9 78.5t32.5 85.5t58.5 80t93 58t129 23q59 0 104.5 -13.5t71 -34.5t41.5 -50t21 -55.5t5 -55.5q0 -34 -19 -95h-388q-4 -17 -4 -41q0 -99 102 -99q37 0 68 17.5t42 46.5z
M205 302h232q4 20 4 44q0 79 -99 79q-105 0 -137 -123zM149 -228l32 62q21 -9 54 -9q57 0 57 32t-51 32q-29 0 -34 -1l28 56q6 1 17 1h18q126 0 126 -87q0 -39 -37.5 -68.5t-121.5 -29.5q-39 0 -88 12z" />
    <glyph glyph-name="schwa" unicode="&#x259;" horiz-adv-x="628" 
d="M229 361h-154q67 166 277 166q61 0 106.5 -15.5t71 -38t41 -54t20 -58t4.5 -55.5q0 -38 -9 -78.5t-32.5 -85.5t-58.5 -80t-93 -58t-129 -23q-127 0 -185 57t-58 149q0 42 19 98h388q4 17 4 41q0 99 -102 99q-37 0 -68 -17.5t-42 -46.5zM420 206h-232q-4 -17 -4 -42
q0 -81 99 -81q34 0 61 13.5t42 35t22.5 39t11.5 35.5z" />
    <glyph glyph-name="cyrobar" unicode="&#x275;" horiz-adv-x="631" 
d="M354 527q61 0 107 -15t72 -37.5t42 -54.5t21 -60t5 -60q0 -51 -16.5 -102.5t-52 -102t-101.5 -82.5t-154 -32q-34 0 -63.5 4t-65 18.5t-60.5 38.5t-42 67t-17 100q0 82 36 153t111.5 118t177.5 47zM205 305h238v7q0 113 -105 113q-58 0 -90 -38t-43 -82zM429 215h-240
q-2 -14 -2 -19q0 -113 105 -113q58 0 93 40t44 92z" />
    <glyph glyph-name="cyrobar" unicode="&#x4e9;" horiz-adv-x="631" 
d="M354 527q61 0 107 -15t72 -37.5t42 -54.5t21 -60t5 -60q0 -51 -16.5 -102.5t-52 -102t-101.5 -82.5t-154 -32q-34 0 -63.5 4t-65 18.5t-60.5 38.5t-42 67t-17 100q0 82 36 153t111.5 118t177.5 47zM205 305h238v7q0 113 -105 113q-58 0 -90 -38t-43 -82zM429 215h-240
q-2 -14 -2 -19q0 -113 105 -113q58 0 93 40t44 92z" />
    <glyph glyph-name="prime" unicode="&#x2b9;" horiz-adv-x="300" 
d="M399 700l-175 -192h-66l69 192h172z" />
    <glyph glyph-name="dblprime" unicode="&#x2ba;" horiz-adv-x="532" 
d="M399 700l-175 -192h-66l69 192h172zM631 700l-175 -192h-66l69 192h172z" />
    <glyph glyph-name="afii57929" unicode="&#x2bc;" horiz-adv-x="377" 
d="M167 542l34 158h165l-34 -158q-6 -24 -11 -40t-19.5 -43t-34.5 -44.5t-56 -32.5t-82 -18l17 79q44 2 71.5 29t34.5 64l1 6h-86z" />
    <glyph glyph-name="afii64937" unicode="&#x2bd;" horiz-adv-x="383" 
d="M331 542h-86l-1 -6q-8 -50 14 -72q23 -20 52 -20l-16 -79q-43 0 -81 22q-53 31 -53 98q0 25 9 70l31 145h165z" />
    <glyph glyph-name="circumflex" unicode="&#x2c6;" horiz-adv-x="523" 
d="M352 660l-112 -92h-123l140 132h200l83 -132h-115z" />
    <glyph glyph-name="caron" unicode="&#x2c7;" horiz-adv-x="523" 
d="M429 568h-201l-83 132h115l73 -92l112 92h123z" />
    <glyph glyph-name="breve" unicode="&#x2d8;" horiz-adv-x="496" 
d="M145 700h111q-5 -26 12 -46.5t67 -20.5q80 0 94 67h112q-7 -23 -20 -43.5t-37.5 -44t-66.5 -37t-97 -13.5q-30 0 -57 4.5t-56 16t-46 36.5t-17 60v10q0 8 1 11z" />
    <glyph glyph-name="dotaccent" unicode="&#x2d9;" horiz-adv-x="257" 
d="M119 581l25 119h158l-25 -119h-158z" />
    <glyph glyph-name="ring" unicode="&#x2da;" horiz-adv-x="296" 
d="M114 648q0 41 28.5 69.5t69.5 28.5t69.5 -28.5t28.5 -69.5t-28.5 -69.5t-69.5 -28.5t-69.5 28.5t-28.5 69.5zM168 648q0 -18 13 -31t31 -13t31 13t13 31t-13 31t-31 13t-31 -13t-13 -31z" />
    <glyph glyph-name="ogonek" unicode="&#x2db;" horiz-adv-x="263" 
d="M136 0h96q-44 -28 -72 -69t-28 -80q0 -15 5 -24q12 -21 37 -21q29 0 46 19t21 43h89q-17 -55 -55 -89q-53 -48 -130 -48q-51 0 -88 25.5t-37 76.5q0 50 34 94.5t82 72.5z" />
    <glyph glyph-name="tilde" unicode="&#x2dc;" horiz-adv-x="537" 
d="M489 700h93q-53 -128 -143 -128q-27 0 -43 5t-51 22q-52 24 -79 24q-40 0 -53 -41h-93q20 53 57.5 89.5t85.5 36.5q39 0 90 -24q49 -27 83 -27q39 0 53 43z" />
    <glyph glyph-name="hungarumlaut" unicode="&#x2dd;" horiz-adv-x="552" 
d="M211 700h160l-128 -132h-116zM440 700h160l-128 -132h-116z" />
    <glyph glyph-name="accent" unicode="&#x301;" 
d="M-248 700h160l-128 -132h-116z" />
    <glyph glyph-name="accent" unicode="&#xf400;" 
d="M-248 700h160l-128 -132h-116z" />
    <glyph glyph-name="uni0313" unicode="&#x313;" horiz-adv-x="377" 
d="M167 542l34 158h165l-34 -158q-6 -24 -11 -40t-19.5 -43t-34.5 -44.5t-56 -32.5t-82 -18l17 79q44 2 71.5 29t34.5 64l1 6h-86z" />
    <glyph glyph-name="uni0315" unicode="&#x315;" horiz-adv-x="377" 
d="M167 542l34 158h165l-34 -158q-6 -24 -11 -40t-19.5 -43t-34.5 -44.5t-56 -32.5t-82 -18l17 79q44 2 71.5 29t34.5 64l1 6h-86z" />
    <glyph glyph-name="uni0326" unicode="&#x326;" horiz-adv-x="313" 
d="M-24 -180l25 120h165l-25 -120q-4 -22 -13 -42.5t-29 -46t-60 -42t-95 -18.5l17 79q27 0 46 6.5t29.5 18.5t14.5 19.5t9 19.5l2 6h-86z" />
    <glyph glyph-name="iotasubnosp" unicode="&#x345;" 
d="M-614 -94l11 55h151l-4 -20q-6 -23 18 -25q1 0 25 2l-21 -102q-42 -5 -77 -5q-55 0 -77 12q-29 20 -29 57q0 4 1.5 13t1.5 13z" />
    <glyph glyph-name="iotasub" unicode="&#x37a;" horiz-adv-x="260" 
d="M-20 -94l11 55h151l-4 -20q-6 -23 18 -25q1 0 25 2l-21 -102q-42 -5 -77 -5q-55 0 -77 12q-29 20 -29 57q0 4 1.5 13t1.5 13z" />
    <glyph glyph-name="tonos" unicode="&#x384;" horiz-adv-x="280" 
d="M116 568l105 158h168l-153 -158h-120z" />
    <glyph glyph-name="dieresistonos" unicode="&#x385;" horiz-adv-x="560" 
d="M248 568l93 158h150l-149 -158h-94zM609 582h-136l25 118h136zM225 582h-136l25 118h136z" />
    <glyph glyph-name="Alphatonos" unicode="&#x386;" horiz-adv-x="820" 
d="M164 568l105 158h168l-153 -158h-120zM541 517l-148 -267h183zM83 0l411 700h167l114 -700h-171l-17 131h-254l-73 -131h-177z" />
    <glyph glyph-name="anoteleia" unicode="&#x387;" horiz-adv-x="250" 
d="M191 189h-165l33 158h165z" />
    <glyph glyph-name="Epsilontonos" unicode="&#x388;" horiz-adv-x="890" 
d="M86 568l105 158h168l-153 -158h-120zM532 564l-30 -142h343l-28 -129h-343l-33 -157h399l-28 -136h-564l149 700h553l-28 -136h-390z" />
    <glyph glyph-name="Etatonos" unicode="&#x389;" horiz-adv-x="970" 
d="M86 568l105 158h168l-153 -158h-120zM741 301h-256l-65 -301h-164l149 700h164l-56 -263h256l56 263h164l-149 -700h-164z" />
    <glyph glyph-name="Iotatonos" unicode="&#x38a;" horiz-adv-x="550" 
d="M86 568l105 158h168l-153 -158h-120zM256 0l149 700h164l-149 -700h-164z" />
    <glyph glyph-name="Omicrontonos" unicode="&#x38c;" horiz-adv-x="970" 
d="M86 568l105 158h168l-153 -158h-120zM555 116q112 -1 176 106q50 85 50 194q0 168 -148 168q-115 0 -175 -106q-50 -87 -50 -194q0 -84 39 -126t108 -42zM542 -19q-149 0 -231 76t-81 212q0 89 31.5 174t89.5 150q113 127 301 127q145 0 226 -76.5t81 -212.5
q-2 -188 -119 -324q-60 -69 -131 -97.5t-167 -28.5z" />
    <glyph glyph-name="Upsilontonos" unicode="&#x38e;" horiz-adv-x="930" 
d="M86 568l105 158h168l-153 -158h-120zM550 700l91 -290l209 290h184l-339 -436l-56 -264h-164l56 264l-161 436h180z" />
    <glyph glyph-name="Omegatonos" unicode="&#x38f;" horiz-adv-x="990" 
d="M86 568l105 158h168l-153 -158h-120zM475 0h-300l29 136h174l4 19q-59 21 -93.5 73.5t-34.5 131.5q0 156 107 258q106 103 307 103q149 0 235 -70q87 -69 87 -197q0 -113 -67 -193q-69 -81 -169 -106l-4 -19h174l-29 -136h-300l52 243q77 10 121 61t44 127
q-1 71 -44.5 112t-116.5 42q-103 0 -162 -59q-58 -58 -57 -146q0 -52 25.5 -90t69.5 -47z" />
    <glyph glyph-name="iotadieresistonos" unicode="&#x390;" horiz-adv-x="280" 
d="M108 568l93 158h150l-149 -158h-94zM469 582h-136l25 118h136zM85 582h-136l25 118h136zM34 129l81 379h152l-74 -350q-3 -11 -3 -25q0 -17 7.5 -24t25.5 -7h10l-22 -102q-6 0 -30 -1.5t-38 -1.5q-64 0 -86 21q-26 23 -26 71q-1 25 3 40z" />
    <glyph glyph-name="Alpha" unicode="&#x391;" horiz-adv-x="677" 
d="M348 700h167l114 -700h-171l-17 131h-254l-73 -131h-177zM247 250h183l-35 267z" />
    <glyph glyph-name="Beta" unicode="&#x392;" horiz-adv-x="728" 
d="M168 700h352q186 0 186 -148q0 -35 -12 -69t-48.5 -67t-92.5 -46l-1 -2q50 -11 83 -46t33 -99q0 -101 -80 -162t-234 -61h-334zM304 564l-29 -136h152q35 0 67 17.5t32 59.5q0 27 -20 43t-54 16h-148zM247 292l-33 -156h170q41 0 75 20t34 63q0 42 -24 57.5t-71 15.5
h-151z" />
    <glyph glyph-name="Gamma" unicode="&#x393;" horiz-adv-x="551" 
d="M304 564l-119 -564h-165l148 700h470l-30 -136h-304z" />
    <glyph glyph-name="Delta" unicode="&#x394;" horiz-adv-x="672" 
d="M346 700h167l114 -700h-691zM442 136l-49 381l-210 -381h259z" />
    <glyph glyph-name="Delta" unicode="&#x2206;" horiz-adv-x="672" 
d="M346 700h167l114 -700h-691zM442 136l-49 381l-210 -381h259z" />
    <glyph glyph-name="Epsilon" unicode="&#x395;" horiz-adv-x="655" 
d="M275 425h342l-27 -136h-344l-32 -153h397l-28 -136h-563l148 700h554l-28 -136h-390z" />
    <glyph glyph-name="Zeta" unicode="&#x396;" horiz-adv-x="635" 
d="M436 564h-327l31 136h542l-27 -127l-442 -437h375l-30 -136h-585l31 146z" />
    <glyph glyph-name="Eta" unicode="&#x397;" horiz-adv-x="732" 
d="M248 301l-63 -301h-165l148 700h165l-57 -263h256l57 263h165l-148 -700h-165l63 301h-256z" />
    <glyph glyph-name="Theta" unicode="&#x398;" horiz-adv-x="792" 
d="M278 288l28 129h251l-28 -129h-251zM378 116q112 -1 176 106q50 85 50 194q0 168 -148 168q-116 -1 -175 -106q-50 -87 -50 -194q0 -84 39 -126t108 -42zM365 -19q-149 0 -230.5 76t-81.5 212q-1 88 30.5 173t90.5 151q111 126 301 127q145 0 226 -76.5t81 -212.5
q0 -186 -119 -324q-60 -69 -131 -97.5t-167 -28.5z" />
    <glyph glyph-name="Iota" unicode="&#x399;" horiz-adv-x="311" 
d="M168 700h165l-148 -700h-165z" />
    <glyph glyph-name="Kappa" unicode="&#x39a;" horiz-adv-x="713" 
d="M271 405l322 295h208l-343 -309l205 -391h-188l-147 305l-96 -83l-47 -222h-165l148 700h165z" />
    <glyph glyph-name="Lambda" unicode="&#x39b;" horiz-adv-x="630" 
d="M396 0l-36 500l-242 -500h-182l375 700h180l94 -700h-189z" />
    <glyph glyph-name="Mu" unicode="&#x39c;" horiz-adv-x="944" 
d="M357 0l-64 508h-2l-106 -508h-165l148 700h239l61 -481l252 481h246l-148 -700h-165l110 508h-3l-268 -508h-135z" />
    <glyph glyph-name="Nu" unicode="&#x39d;" horiz-adv-x="758" 
d="M278 442h-2l-91 -442h-165l148 700h161l193 -440h3l90 440h165l-148 -700h-162z" />
    <glyph glyph-name="Xi" unicode="&#x39e;" horiz-adv-x="583" 
d="M105 558l30 142h500l-30 -142h-500zM94 290l28 136h411l-28 -136h-411zM-30 0l30 142h534l-30 -142h-534z" />
    <glyph glyph-name="Omicron" unicode="&#x39f;" horiz-adv-x="792" 
d="M364 -20q-80 0 -139.5 22.5t-91.5 54t-51.5 74.5t-24.5 74.5t-5 63.5q0 55 13.5 113.5t45.5 120t79 109t120.5 78t163.5 30.5q146 0 226.5 -76t80.5 -213q0 -55 -13 -113.5t-44.5 -120t-77.5 -109t-119.5 -78t-162.5 -30.5zM377 116q49 0 89 20.5t65 51.5t42 71t23.5 77
t6.5 72q0 176 -148 176q-61 0 -107 -29.5t-70.5 -76.5t-36 -94t-11.5 -92q0 -176 147 -176z" />
    <glyph glyph-name="Pi" unicode="&#x3a0;" horiz-adv-x="740" 
d="M304 564l-119 -564h-165l148 700h594l-148 -700h-165l119 564h-264z" />
    <glyph glyph-name="Rho" unicode="&#x3a1;" horiz-adv-x="685" 
d="M168 700h327q29 0 54 -3t56.5 -15t53.5 -31.5t37.5 -56t15.5 -85.5q0 -28 -5 -56.5t-24.5 -69t-52 -70.5t-94 -51.5t-143.5 -21.5h-157l-51 -240h-165zM304 564l-40 -188h130q78 0 110.5 29.5t32.5 73.5q0 47 -26 66t-77 19h-130z" />
    <glyph glyph-name="Sigma" unicode="&#x3a3;" horiz-adv-x="620" 
d="M139 700h533l-29 -136h-337l148 -196l-258 -232h370l-29 -136h-559l28 136l258 232l-154 196z" />
    <glyph glyph-name="Tau" unicode="&#x3a4;" horiz-adv-x="608" 
d="M290 564h-211l29 136h587l-29 -136h-211l-119 -564h-165z" />
    <glyph glyph-name="Upsilon" unicode="&#x3a5;" horiz-adv-x="640" 
d="M358 410l208 290h184l-340 -436l-56 -264h-165l56 264l-159 436h180z" />
    <glyph glyph-name="Phi" unicode="&#x3a6;" horiz-adv-x="860" 
d="M575 488h-13l-56 -262h23q65 0 104 40.5t39 112.5q0 53 -25.5 81t-71.5 28zM329 226h13l56 262h-23q-66 0 -104.5 -41t-38.5 -112q-1 -54 24.5 -81.5t72.5 -27.5zM458 0h-164l20 93h-27q-119 -1 -177 69q-57 71 -56 177q-1 79 37 141.5t104 98.5q78 40 184 42h47l17 79
h164l-17 -79h27q118 0 175 -70q58 -70 58 -176q0 -80 -38 -142.5t-103 -97.5q-76 -42 -184 -42h-47z" />
    <glyph glyph-name="Chi" unicode="&#x3a7;" horiz-adv-x="685" 
d="M344 236l-190 -236h-208l325 364l-154 336h188l85 -221l171 221h201l-299 -340l169 -360h-196z" />
    <glyph glyph-name="Psi" unicode="&#x3a8;" horiz-adv-x="860" 
d="M457 0h-164l42 197q-115 1 -186 54q-69 53 -69 143q0 51 17 125l39 181h164l-37 -174q-13 -56 -13 -93q0 -50 31 -76t83 -24l78 367h164l-78 -367q41 -1 80 18t62.5 58t40.5 117l37 174h164l-47 -221q-21 -98 -53 -144q-32 -45 -78 -75q-91 -58 -235 -63z" />
    <glyph glyph-name="Omega" unicode="&#x3a9;" horiz-adv-x="800" 
d="M285 0h-299l28 136h174l4 19q-59 21 -93.5 73.5t-34.5 131.5q0 156 107 258q106 103 307 103q149 0 235 -70q87 -69 87 -197q0 -113 -67 -193q-69 -81 -169 -106l-4 -19h174l-29 -136h-300l52 243q77 10 121 61t44 127q0 71 -44 112.5t-117 41.5q-103 0 -162 -59
q-57 -58 -57 -146q0 -52 25.5 -90t69.5 -47z" />
    <glyph glyph-name="Omega" unicode="&#x2126;" horiz-adv-x="800" 
d="M285 0h-299l28 136h174l4 19q-59 21 -93.5 73.5t-34.5 131.5q0 156 107 258q106 103 307 103q149 0 235 -70q87 -69 87 -197q0 -113 -67 -193q-69 -81 -169 -106l-4 -19h174l-29 -136h-300l52 243q77 10 121 61t44 127q0 71 -44 112.5t-117 41.5q-103 0 -162 -59
q-57 -58 -57 -146q0 -52 25.5 -90t69.5 -47z" />
    <glyph glyph-name="Iotadieresis" unicode="&#x3aa;" horiz-adv-x="314" 
d="M450 742h-152l25 118h152zM222 742h-152l25 118h152zM20 0l149 700h164l-149 -700h-164z" />
    <glyph glyph-name="Upsilondieresis" unicode="&#x3ab;" horiz-adv-x="645" 
d="M646 742h-152l25 118h152zM358 742h-152l25 118h152zM265 700l91 -290l209 290h184l-339 -436l-56 -264h-164l56 264l-161 436h180z" />
    <glyph glyph-name="alphatonos" unicode="&#x3ac;" horiz-adv-x="680" 
d="M430 212l20 50l-6 55q-6 50 -32 79t-66 29q-59 0 -100 -47q-57 -66 -57 -175q0 -120 96 -120q53 0 94 42q29 31 51 87zM552 508h155l-102 -240q-10 -73 -10 -152q0 -70 10 -116h-156q-4 14 -2 27q0 33 3 49h-2q-29 -44 -75 -68q-58 -26 -128 -26q-102 1 -158 55.5
t-56 162.5q0 75 28 143t79 115q78 69 186 69q137 0 194 -97h2zM316 568l105 158h168l-153 -158h-120z" />
    <glyph glyph-name="epsilontonos" unicode="&#x3ad;" horiz-adv-x="568" 
d="M384 170h144q-42 -188 -273 -188q-243 0 -243 145q-1 53 33 90t102 49v3q-72 18 -72 92q0 70 70 118t197 48q213 0 213 -149q0 -5 -0.5 -10.5t-1.5 -12t-1 -10.5h-140q0 2 1 7t1 8q0 29 -23 47t-67 18q-99 -1 -99 -67q0 -22 18 -35.5t48 -13.5h63l-21 -95h-69
q-45 0 -69.5 -17t-24.5 -47q0 -31 24 -49t69 -18q50 0 81 23.5t40 63.5zM260 568l105 158h168l-153 -158h-120z" />
    <glyph glyph-name="etatonos" unicode="&#x3ae;" horiz-adv-x="620" 
d="M465 -184h-152l101 478q7 41 7 47q0 82 -72 84q-49 0 -79 -34t-45 -105l-61 -286h-152l74 350q7 29 0.5 42.5t-30.5 13.5h-10l22 102q32 4 72 4q76 0 92 -61q70 74 198 76q77 -1 116 -40q34 -38 35 -96q0 -26 -10 -72zM286 568l105 158h168l-153 -158h-120z" />
    <glyph glyph-name="iotatonos" unicode="&#x3af;" horiz-adv-x="280" 
d="M34 129l81 379h152l-74 -350q-3 -11 -3 -25q0 -17 7.5 -24t25.5 -7h10l-22 -102q-6 0 -30 -1.5t-38 -1.5q-64 0 -86 21q-26 23 -26 71q-1 25 3 40zM116 568l105 158h168l-153 -158h-120z" />
    <glyph glyph-name="upsilondieresistonos" unicode="&#x3b0;" horiz-adv-x="640" 
d="M110 508h152l-38 -179q-14 -66 -18 -93q-3 -27 -3 -49q0 -49 22.5 -76.5t59.5 -27.5q52 0 94 51q32 41 53 117q22 75 22 146q0 55 -18 111l155 12q21 -52 21 -112q0 -90 -32 -183q-31 -91 -81 -145q-89 -98 -247 -98q-96 0 -150 50.5t-53 138.5q-1 48 20 146zM288 568
l93 158h150l-149 -158h-94zM649 582h-136l25 118h136zM265 582h-136l25 118h136z" />
    <glyph glyph-name="alpha" unicode="&#x3b1;" horiz-adv-x="680" 
d="M430 212l20 50l-6 55q-6 50 -32 79t-66 29q-59 0 -100 -47q-57 -66 -57 -175q0 -120 96 -120q53 0 94 42q29 31 51 87zM552 508h155l-102 -240q-10 -73 -10 -152q0 -70 10 -116h-156q-4 14 -2 27q0 33 3 49h-2q-29 -44 -75 -68q-58 -26 -128 -26q-102 1 -158 55.5
t-56 162.5q0 75 28 143t79 115q78 69 186 69q137 0 194 -97h2z" />
    <glyph glyph-name="beta" unicode="&#x3b2;" horiz-adv-x="640" 
d="M260 479l-73 -342q29 -54 106 -54q67 0 108.5 39.5t41.5 107.5q-2 107 -117 107h-40l21 102h40q64 0 97 29t33 79q0 31 -23 50t-65 20q-49 0 -80 -27q-31 -25 -49 -111zM121 -184h-153l137 651q27 133 102.5 192.5t211.5 59.5q103 0 158 -40.5t55 -113.5q0 -63 -40 -112
t-110 -61v-2q57 -8 87.5 -46.5t31.5 -101.5q0 -111 -78 -186q-77 -74 -211 -74q-95 0 -145 53z" />
    <glyph glyph-name="gamma" unicode="&#x3b3;" horiz-adv-x="560" 
d="M239 412l33 -197l176 293h165l-299 -468l-48 -224h-152l48 224l-63 320q-11 46 -48 46h-16l22 102q38 6 58 6q57 -1 86 -23.5t38 -78.5z" />
    <glyph glyph-name="delta" unicode="&#x3b4;" horiz-adv-x="632" 
d="M286 83q59 0 95 39q25 27 40.5 74t15.5 99q0 106 -101 108q-90 0 -127 -98q-23 -56 -21 -116q0 -106 98 -106zM606 559h-152q0 1 0.5 5t0.5 8q0 45 -74 45q-40 0 -62.5 -16.5t-22.5 -43.5q-1 -8 1 -16q2 -5 156 -50q142 -43 142 -202q0 -121 -79 -210q-86 -97 -242 -97
q-120 0 -181.5 55.5t-61.5 158.5q0 106 54 181q54 76 152 96v2q-37 4 -59.5 29t-21.5 60q0 73 65 114t186 41q95 -1 149 -33.5t54 -92.5q0 -19 -4 -34z" />
    <glyph glyph-name="epsilon" unicode="&#x3b5;" horiz-adv-x="568" 
d="M384 170h144q-42 -188 -273 -188q-243 0 -243 145q-1 53 33 90t102 49v3q-72 18 -72 92q0 70 70 118t197 48q213 0 213 -149q0 -5 -0.5 -10.5t-1.5 -12t-1 -10.5h-140q0 2 1 7t1 8q0 29 -23 47t-67 18q-99 -1 -99 -67q0 -22 18 -35.5t48 -13.5h63l-21 -95h-69
q-45 0 -69.5 -17t-24.5 -47q0 -31 24 -49t69 -18q50 0 81 23.5t40 63.5z" />
    <glyph glyph-name="zeta" unicode="&#x3b6;" horiz-adv-x="500" 
d="M148 598l22 102h414l-22 -102q-105 -10 -194 -71t-141 -158q-45 -85 -45 -151q0 -59 28 -88t95 -28h37q123 -1 123 -114q0 -83 -56 -127.5t-160 -44.5h-83l22 104h51q70 0 70 51q0 16 -11.5 22.5t-44.5 6.5h-52q-88 0 -132.5 50t-44.5 140q0 101 61 206q81 143 219 200v2
h-156z" />
    <glyph glyph-name="eta" unicode="&#x3b7;" horiz-adv-x="620" 
d="M465 -184h-152l101 478q7 41 7 47q0 82 -72 84q-49 0 -79 -34t-45 -105l-61 -286h-152l74 350q7 29 0.5 42.5t-30.5 13.5h-10l22 102q32 4 72 4q76 0 92 -61q70 74 198 76q77 -1 116 -40q34 -38 35 -96q0 -26 -10 -72z" />
    <glyph glyph-name="theta" unicode="&#x3b8;" horiz-adv-x="632" 
d="M230 405h232q7 49 7 86q0 126 -78 126q-52 0 -95.5 -58t-65.5 -154zM445 303h-233q-9 -46 -9 -91q0 -129 78 -129q52 0 96.5 59t67.5 161zM264 -18q-110 0 -166 71q-54 73 -53 183q0 116 42 226q44 111 110 174q87 83 208 83q98 0 159 -64q62 -63 63 -195
q0 -115 -43 -223q-42 -109 -109 -173q-86 -82 -211 -82z" />
    <glyph glyph-name="iota" unicode="&#x3b9;" horiz-adv-x="280" 
d="M34 129l81 379h152l-74 -350q-3 -11 -3 -25q0 -17 7.5 -24t25.5 -7h10l-22 -102q-6 0 -30 -1.5t-38 -1.5q-64 0 -86 21q-26 23 -26 71q-1 25 3 40z" />
    <glyph glyph-name="kappa" unicode="&#x3ba;" horiz-adv-x="537" 
d="M222 300l197 208h174l-253 -249l156 -259h-171l-118 225h-3l-45 -225h-152l109 508h152l-48 -208h2z" />
    <glyph glyph-name="lambda" unicode="&#x3bb;" horiz-adv-x="580" 
d="M312 314l-184 -314h-182l336 517l-4 35q-4 28 -17 39t-40 11q-18 0 -33 -4l22 102q36 6 72 6q67 0 103 -29.5t45 -98.5l51 -430q3 -26 12.5 -36t33.5 -10h16l-22 -102q-11 -1 -30.5 -3t-27.5 -2q-63 0 -93.5 23.5t-35.5 77.5z" />
    <glyph glyph-name="nu" unicode="&#x3bd;" horiz-adv-x="520" 
d="M216 508l32 -346l121 229q37 73 37 101q0 2 -1 7t-1 9l159 12q0 -4 0.5 -10t0.5 -9q0 -22 -7 -43q-6 -23 -43 -88l-208 -370h-168l-85 508h163z" />
    <glyph glyph-name="xi" unicode="&#x3be;" horiz-adv-x="480" 
d="M93 598l22 102h442l-22 -102h-136q-68 0 -104.5 -31.5t-36.5 -86.5q0 -79 103 -78h98l-21 -102h-98q-81 -1 -126 -34.5t-45 -90.5q0 -40 23.5 -57t82.5 -16h28q123 -1 123 -114q0 -83 -56 -127.5t-160 -44.5h-83l22 104h51q70 0 70 51q0 16 -11.5 22.5t-44.5 6.5h-22
q-94 0 -138 34t-43 108q0 81 47 137t132 71l1 2q-87 18 -87 111q-1 50 25.5 85.5t68.5 47.5v2h-105z" />
    <glyph glyph-name="omicron" unicode="&#x3bf;" horiz-adv-x="631" 
d="M276 -19q-61 0 -107 15t-72 37.5t-42 54.5t-21 60t-5 60q0 39 9.5 80t33.5 84.5t59.5 77.5t93 55.5t128.5 21.5q33 0 62.5 -4t65 -18.5t61 -38.5t42.5 -67t17 -100q0 -82 -36 -153t-111.5 -118t-177.5 -47zM292 83q72 0 111.5 65t39.5 161q0 116 -105 116
q-54 0 -89.5 -39t-48.5 -88t-13 -102q0 -113 105 -113z" />
    <glyph glyph-name="pi" unicode="&#x3c0;" horiz-adv-x="640" 
d="M39 0l86 406q-54 1 -88 -21l22 102q38 21 108 21h516l-22 -102h-70l-52 -248q-3 -13 -3 -25q0 -31 33 -31h10l-22 -102q-31 -4 -68 -4q-62 0 -86 22q-26 24 -26 71q0 27 3 40l59 277h-162l-86 -406h-152z" />
    <glyph glyph-name="rho" unicode="&#x3c1;" horiz-adv-x="640" 
d="M294 85q59 0 99 47q25 30 41 80t17 95q0 58 -26.5 87.5t-73.5 30.5q-90 0 -130 -104q-26 -62 -24 -118q-1 -56 24 -87t73 -31zM119 -184h-151l92 437q18 82 44.5 131t70.5 83q78 60 207 60q105 0 165.5 -53.5t61.5 -152.5q0 -69 -25 -136.5t-67 -115.5q-79 -85 -193 -85
q-116 0 -155 68z" />
    <glyph glyph-name="sigma1" unicode="&#x3c2;" horiz-adv-x="580" 
d="M569 327h-146q0 2 0.5 7.5t0.5 9.5q0 38 -20.5 59.5t-60.5 21.5q-88 0 -127 -92q-27 -64 -27 -122q-1 -57 23.5 -83.5t74.5 -25.5h83q123 -1 123 -114q0 -83 -55.5 -127t-160.5 -45h-83l22 104h51q70 0 70 51q0 16 -11 22.5t-37 6.5h-39q-219 0 -219 207q0 103 49 184
q82 136 261 136q111 0 170 -45t59 -130q0 -6 -0.5 -14t-0.5 -11z" />
    <glyph glyph-name="sigma" unicode="&#x3c3;" horiz-adv-x="640" 
d="M288 83q95 0 135 106q22 63 22 120q0 116 -103 116q-92 0 -131 -105q-22 -55 -22 -124q-1 -56 25 -85t74 -28zM689 508l-22 -102h-88q24 -45 24 -103q0 -125 -81 -220q-88 -101 -246 -101q-118 0 -182 56t-63 166q-2 127 80 221q88 102 246 102q60 0 117 -19h215z" />
    <glyph glyph-name="tau" unicode="&#x3c4;" horiz-adv-x="500" 
d="M152 129l59 277h-53q-76 0 -121 -22l21 102q45 21 127 22h358l-22 -102h-158l-52 -248q-3 -11 -3 -25q0 -17 7.5 -24.5t25.5 -6.5h10l-22 -102q-6 0 -30 -1.5t-38 -1.5q-64 0 -86 21q-26 23 -26 71q0 29 3 40z" />
    <glyph glyph-name="upsilon" unicode="&#x3c5;" horiz-adv-x="640" 
d="M110 508h152l-38 -179q-14 -66 -18 -93q-3 -27 -3 -49q0 -49 22.5 -76.5t59.5 -27.5q52 0 94 51q32 41 53 117q22 75 22 146q0 55 -18 111l155 12q21 -52 21 -112q0 -90 -32 -183q-31 -91 -81 -145q-89 -98 -247 -98q-96 0 -150 50.5t-53 138.5q-1 48 20 146z" />
    <glyph glyph-name="phi" unicode="&#x3c6;" horiz-adv-x="820" 
d="M519 406l-64 -304q86 -2 135 55q47 54 47 136q0 57 -31.5 85.5t-86.5 27.5zM394 -184h-152l39 184q-104 -2 -177 52q-73 55 -73 165q-1 127 92 209q87 76 216 82l-22 -102q-60 -15 -96 -65.5t-36 -119.5q0 -118 118 -119l86 406h152q119 -1 184 -56t66 -155
q0 -61 -24.5 -118t-65.5 -96q-94 -88 -268 -83z" />
    <glyph glyph-name="chi" unicode="&#x3c7;" horiz-adv-x="540" 
d="M250 412l29 -97l141 193h165l-243 -320l71 -240q7 -28 44 -30h16l-21 -102q-31 -6 -59 -6q-57 0 -85 21.5t-45 80.5l-40 138l-166 -234h-170l278 372l-57 181q-12 36 -51 37h-16l22 102q38 6 58 6q50 0 79 -19q30 -18 50 -83z" />
    <glyph glyph-name="psi" unicode="&#x3c8;" horiz-adv-x="840" 
d="M404 -184h-152l39 184q-114 -4 -177.5 46t-62.5 140q0 53 18 131l41 191h152l-38 -179q-17 -78 -17 -119q0 -53 27.5 -81t78.5 -27l127 598h152l-127 -598q63 1 110 48q37 37 58 101.5t21 139.5q0 60 -16 117l155 12q19 -54 19 -119q0 -94 -30.5 -175.5t-81.5 -132.5
q-92 -93 -257 -93z" />
    <glyph glyph-name="omega" unicode="&#x3c9;" horiz-adv-x="800" 
d="M316 194l22 103h142l-22 -103q-7 -34 -7 -55q0 -27 11 -42t34 -14q31 -1 58 30q25 27 40 83q16 52 16 98q-1 55 -27 88t-70 36l22 102q97 1 165 -59t68 -173q-2 -85 -35 -156q-34 -71 -90 -109q-61 -41 -146 -41q-60 0 -92 27t-30 75h-2q-20 -49 -63 -75.5t-103 -26.5
q-85 0 -133.5 58.5t-48.5 155.5q0 142 90 229q94 94 244 95l-22 -102q-69 -8 -104 -60q-25 -32 -38 -84q-13 -51 -12 -97q0 -94 55 -94q53 0 78 111z" />
    <glyph glyph-name="iotadieresis" unicode="&#x3ca;" horiz-adv-x="280" 
d="M34 129l81 379h152l-74 -350q-3 -11 -3 -25q0 -17 7.5 -24t25.5 -7h10l-22 -102q-6 0 -30 -1.5t-38 -1.5q-64 0 -86 21q-26 23 -26 71q-1 25 3 40zM429 582h-152l25 118h152zM141 582h-152l25 118h152z" />
    <glyph glyph-name="upsilondieresis" unicode="&#x3cb;" horiz-adv-x="640" 
d="M110 508h152l-38 -179q-14 -66 -18 -93q-3 -27 -3 -49q0 -49 22.5 -76.5t59.5 -27.5q52 0 94 51q32 41 53 117q22 75 22 146q0 55 -18 111l155 12q21 -52 21 -112q0 -90 -32 -183q-31 -91 -81 -145q-89 -98 -247 -98q-96 0 -150 50.5t-53 138.5q-1 48 20 146zM609 582
h-152l25 118h152zM321 582h-152l25 118h152z" />
    <glyph glyph-name="omicrontonos" unicode="&#x3cc;" horiz-adv-x="631" 
d="M276 -19q-61 0 -107 15t-72 37.5t-42 54.5t-21 60t-5 60q0 39 9.5 80t33.5 84.5t59.5 77.5t93 55.5t128.5 21.5q33 0 62.5 -4t65 -18.5t61 -38.5t42.5 -67t17 -100q0 -82 -36 -153t-111.5 -118t-177.5 -47zM292 83q72 0 111.5 65t39.5 161q0 116 -105 116
q-54 0 -89.5 -39t-48.5 -88t-13 -102q0 -113 105 -113zM292 568l105 158h168l-153 -158h-120z" />
    <glyph glyph-name="upsilontonos" unicode="&#x3cd;" horiz-adv-x="640" 
d="M110 508h152l-38 -179q-14 -66 -18 -93q-3 -27 -3 -49q0 -49 22.5 -76.5t59.5 -27.5q52 0 94 51q32 41 53 117q22 75 22 146q0 55 -18 111l155 12q21 -52 21 -112q0 -90 -32 -183q-31 -91 -81 -145q-89 -98 -247 -98q-96 0 -150 50.5t-53 138.5q-1 48 20 146zM296 568
l105 158h168l-153 -158h-120z" />
    <glyph glyph-name="omegatonos" unicode="&#x3ce;" horiz-adv-x="800" 
d="M316 194l22 103h142l-22 -103q-7 -34 -7 -55q0 -27 11 -42t34 -14q31 -1 58 30q25 27 40 83q16 52 16 98q-1 55 -27 88t-70 36l22 102q97 1 165 -59t68 -173q-2 -85 -35 -156q-34 -71 -90 -109q-61 -41 -146 -41q-60 0 -92 27t-30 75h-2q-20 -49 -63 -75.5t-103 -26.5
q-85 0 -133.5 58.5t-48.5 155.5q0 142 90 229q94 94 244 95l-22 -102q-69 -8 -104 -60q-25 -32 -38 -84q-13 -51 -12 -97q0 -94 55 -94q53 0 78 111zM376 568l105 158h168l-153 -158h-120z" />
    <glyph glyph-name="beta1" unicode="&#x3d0;" horiz-adv-x="660" 
d="M228 390l167 64q88 32 88 105q0 27 -16.5 42.5t-46.5 15.5q-82 -1 -132 -81q-36 -55 -60 -146zM263 313l-60 -25q-7 -32 -7 -79q0 -126 105 -126q69 0 114 46t46 116q0 92 -103 92q-37 0 -95 -24zM489 400v-3q62 -8 96 -47.5t34 -102.5q0 -117 -86 -191t-238 -74
q-127 0 -192 66t-65 188q-1 81 25 163.5t76 151.5q120 168 323 168q88 0 133.5 -37t45.5 -104q-1 -65 -41.5 -111t-110.5 -67z" />
    <glyph glyph-name="theta1" unicode="&#x3d1;" horiz-adv-x="640" 
d="M392 508h61q0 2 2 19t2 26q0 30 -15 47t-40 17q-32 0 -49 -17.5t-17 -45.5q0 -25 13.5 -35.5t42.5 -10.5zM48 319h-15l21 102q8 0 44 2.5t50 2.5q87 0 89 -85q0 -23 -9 -68l-13 -63q-3 -11 -3 -40q0 -87 69 -87q41 0 70.5 33.5t50.5 111.5q21 81 35 178h-45
q-209 -1 -209 134q0 82 61.5 130.5t173.5 48.5q188 0 188 -182q0 -7 -0.5 -16t-0.5 -13h68l-22 -102h-56q-18 -118 -47 -199q-81 -225 -286 -225q-101 0 -154.5 39t-53.5 113q-2 37 8 74l12 57l4 23q0 31 -30 31z" />
    <glyph glyph-name="Upsilon1" unicode="&#x3d2;" horiz-adv-x="700" 
d="M383 410q57 115 160 196q107 83 237 94l-29 -136q-103 -23 -179 -93q-52 -49 -92 -116q-41 -71 -54 -131l-48 -224h-164l48 224q6 28 6 60q0 35 -7 69q-12 70 -41 118q-50 73 -140 93l29 136q121 -6 198 -94q68 -82 76 -196z" />
    <glyph glyph-name="Upsilon1tonos" unicode="&#x3d3;" horiz-adv-x="950" 
d="M633 410q57 115 160 196q107 83 237 94l-29 -136q-103 -23 -179 -93q-52 -49 -92 -116q-41 -71 -54 -131l-48 -224h-164l48 224q6 28 6 60q0 35 -7 69q-12 70 -41 118q-50 73 -140 93l29 136q121 -6 198 -94q68 -82 76 -196zM86 568l105 158h168l-153 -158h-120z" />
    <glyph glyph-name="Upsilon1dieresis" unicode="&#x3d4;" horiz-adv-x="700" 
d="M383 410q57 115 160 196q107 83 237 94l-29 -136q-103 -23 -179 -93q-52 -49 -92 -116q-41 -71 -54 -131l-48 -224h-164l48 224q6 28 6 60q0 35 -7 69q-12 70 -41 118q-50 73 -140 93l29 136q121 -6 198 -94q68 -82 76 -196zM677 762h-152l25 118h152zM389 762h-152
l25 118h152z" />
    <glyph glyph-name="phi1" unicode="&#x3d5;" horiz-adv-x="854" 
d="M258 -185l36 171q-263 6 -263 225q0 61 22.5 115.5t66.5 99t118.5 70t169.5 24.5l38 180h152l-38 -180q69 1 120 -15.5t77.5 -40.5t42.5 -58t19.5 -59t3.5 -53q0 -39 -10.5 -78t-38 -80.5t-69 -73t-108.5 -53t-151 -23.5l-36 -171h-152zM327 88l70 330h-26
q-79 0 -132.5 -58t-53.5 -149q0 -120 142 -123zM527 418l-70 -330q54 -1 96 18t66.5 50.5t37 67.5t12.5 74q0 120 -142 120z" />
    <glyph glyph-name="pi1" unicode="&#x3d6;" horiz-adv-x="780" 
d="M315 194l14 63h122l-14 -63q-7 -29 -7 -53q0 -58 43 -58q40 0 65 70q21 61 21 121q0 57 -27 93.5t-69 38.5h-106q-64 -7 -104 -60q-53 -70 -53 -184q0 -40 10.5 -60t32.5 -19q25 0 41.5 24t30.5 87zM195 508h618l-22 -102h-146v-2q70 -34 72 -140q0 -50 -16.5 -101.5
t-43.5 -87.5q-69 -93 -188 -93q-52 0 -82 27t-30 75h-2q-19 -48 -60 -74.5t-96 -27.5q-72 0 -114.5 51t-42.5 136q0 84 42 145.5t113 89.5v2h-29q-76 0 -121 -22l21 102q48 22 127 22z" />
    <glyph glyph-name="Stigma" unicode="&#x3da;" horiz-adv-x="720" 
d="M739 462h-164q0 1 0.5 8t0.5 13q0 46 -31.5 73t-88.5 28q-106 0 -168 -87q-60 -87 -60 -207q-1 -73 33.5 -114t99.5 -40h127q153 -1 153 -132q-1 -90 -57 -139t-159 -49h-97l22 104h51q70 0 70 51q0 16 -11 22.5t-37 6.5h-79q-142 0 -218 74.5t-76 208.5q0 194 114 316
q114 121 297 121q138 0 209 -53.5t72 -153.5q0 -15 -3 -51z" />
    <glyph glyph-name="Digamma" unicode="&#x3dc;" horiz-adv-x="600" 
d="M307 564l-34 -160h291l-29 -136h-291l-62 -292q-19 -86 -64 -126.5t-133 -40.5q-40 0 -89 7l21 102q4 0 11.5 -1t10.5 -1q36 0 54.5 15.5t27.5 59.5l151 709h508l-29 -136h-344z" />
    <glyph glyph-name="Koppa" unicode="&#x3de;" horiz-adv-x="580" 
d="M355 211h-345l229 489h164l-174 -374h345l-239 -510h-164z" />
    <glyph glyph-name="Sampi" unicode="&#x3e0;" horiz-adv-x="900" 
d="M145 111l-70 96l333 275q-134 84 -323 82l29 136q328 1 512 -174q185 -176 185 -467q-2 -106 -25 -243h-164q19 92 21 202q0 116 -29 200l-332 -273l-73 92l354 292q-21 34 -61 77z" />
    <glyph glyph-name="kappa1" unicode="&#x3f0;" horiz-adv-x="640" 
d="M250 254l234 254h165l-56 -65q-31 -66 -50 -138q-29 -103 -29 -153q0 -51 51 -50h16l-22 -102q-33 -5 -63 -5q-135 0 -135 120q0 71 36 149h-2l-245 -264h-164l66 74q27 64 48 139q28 110 28 144q0 49 -56 49h-15l22 102q48 6 76 6q58 0 90.5 -28.5t32.5 -84.5
q0 -51 -30 -147h2z" />
    <glyph glyph-name="rho1" unicode="&#x3f1;" horiz-adv-x="640" 
d="M294 83q95 0 135 106q22 63 22 120q0 116 -103 116q-92 0 -131 -105q-22 -55 -22 -124q-1 -56 25 -85t74 -28zM469 -219h-124q-1 12 -157 44q-87 19 -127 69t-40 152q-2 226 90 357q88 124 252 124q122 0 184 -58.5t62 -165.5q0 -127 -81 -220q-86 -101 -242 -101
q-117 0 -141 81h-2q-1 -7 -1 -25q0 -55 41 -87q12 -9 34 -17q21 -7 122 -19q141 -16 130 -134z" />
    <glyph glyph-name="sigmalunate" unicode="&#x3f2;" horiz-adv-x="460" 
d="M493 508l-23 -109q-55 26 -116 26q-96 0 -139 -97q-25 -54 -25 -121q-1 -64 26.5 -94t87.5 -30q62 0 108 26l-23 -109q-59 -18 -117 -18q-114 0 -177 57t-63 159q0 98 43 176q80 153 269 153q73 0 149 -19z" />
    <glyph glyph-name="yot" unicode="&#x3f3;" horiz-adv-x="274" 
d="M115 508h152l-113 -533q-9 -44 -26.5 -76t-36 -49t-43 -27t-43 -12.5t-40.5 -2.5q-53 0 -88 7l21 102q14 -2 15 -2q42 0 62.5 16.5t29.5 58.5zM130 581l26 119h152l-26 -119h-152z" />
    <glyph glyph-name="afii10023" unicode="&#x401;" horiz-adv-x="655" 
d="M275 425h342l-27 -136h-344l-32 -153h397l-28 -136h-563l148 700h554l-28 -136h-390zM268 766l22 106h142l-22 -106h-142zM516 766l22 106h142l-22 -106h-142z" />
    <glyph glyph-name="afii10051" unicode="&#x402;" horiz-adv-x="917" 
d="M483 279l-59 -279h-165l119 564h-211l29 136h587l-29 -136h-211l-31 -149q120 8 158 8q214 0 214 -182q0 -114 -78.5 -187.5t-201.5 -73.5q-44 0 -89 15l26 124q21 -7 45 -7q60 0 90 28t30 66q0 81 -110 81q-57 0 -113 -8z" />
    <glyph glyph-name="afii10052" unicode="&#x403;" horiz-adv-x="551" 
d="M304 564l-119 -564h-165l148 700h470l-30 -136h-304zM362 898h158l-126 -132h-116z" />
    <glyph glyph-name="afii10053" unicode="&#x404;" horiz-adv-x="747" 
d="M555 425l-28 -136h-297l-3 -21q0 -72 38 -112t107 -40q52 0 99 27t61 71h169q-11 -32 -27 -61.5t-45.5 -62t-66.5 -56t-92.5 -39t-120.5 -15.5q-150 0 -225 79.5t-75 205.5q0 52 10.5 107.5t40 119.5t73.5 113t119 82t169 33q74 0 130 -15t86 -36.5t48 -52t23 -54
t5 -49.5v-27h-165q0 43 -31.5 70.5t-100.5 27.5q-72 0 -129.5 -44.5t-71.5 -114.5h300z" />
    <glyph glyph-name="afii10054" unicode="&#x405;" horiz-adv-x="665" 
d="M30 227h168q-4 -13 -4 -32q0 -79 117 -79q45 0 75 9.5t43 25t17.5 28t4.5 26.5q0 10 -2.5 19t-8.5 16l-11 12.5t-17 11t-19 9t-23 8t-24 6.5t-27.5 6.5t-27.5 6.5q-37 9 -57.5 15.5t-51 21.5t-46.5 33t-28.5 48.5t-12.5 69.5q0 105 79 168.5t238 63.5q251 0 251 -169
q0 -22 -3 -43h-157q1 3 1 8v9q0 59 -102 59q-18 0 -36.5 -2.5t-41.5 -9.5t-37 -23t-14 -40q0 -31 26 -47t94 -32q133 -31 184.5 -70t51.5 -117q0 -116 -80 -189.5t-240 -73.5q-284 0 -284 195q0 31 5 52z" />
    <glyph glyph-name="afii10055" unicode="&#x406;" horiz-adv-x="311" 
d="M168 700h165l-148 -700h-165z" />
    <glyph glyph-name="afii10056" unicode="&#x407;" horiz-adv-x="352" 
d="M191 700h165l-149 -700h-165zM138 766l22 106h122l-22 -106h-122zM315 766l22 106h122l-22 -106h-122z" />
    <glyph glyph-name="afii10057" unicode="&#x408;" horiz-adv-x="577" 
d="M22 258h165l-6 -28q-6 -26 -6 -39q0 -75 67 -75q48 0 68 26t33 88l100 470h165l-95 -447q-9 -41 -15.5 -65.5t-20.5 -61t-33.5 -59t-48.5 -44.5t-71 -32.5t-96 -10.5q-62 0 -106 15.5t-66.5 43.5t-32.5 58.5t-10 66.5q0 34 9 94z" />
    <glyph glyph-name="afii10058" unicode="&#x409;" horiz-adv-x="1201" 
d="M13 0l29 136q18 -2 28 -2q30 0 49.5 5.5t45.5 26.5t48 71t40 129l76 334h518l-54 -254h175q54 0 93 -11.5t60 -28.5t33 -42t15 -45.5t3 -46.5q0 -71 -24.5 -124t-58.5 -80t-79.5 -43.5t-76 -20.5t-60.5 -4h-339l119 564h-197l-56 -244q-12 -50 -23.5 -86t-37.5 -84.5
t-59.5 -79t-89 -52.5t-125.5 -22q-29 0 -52 4zM765 310l-37 -174h141q125 0 125 114q0 35 -23 47.5t-70 12.5h-136z" />
    <glyph glyph-name="afii10059" unicode="&#x40a;" horiz-adv-x="1123" 
d="M251 310l-66 -310h-165l148 700h165l-54 -254h255l54 254h165l-54 -254h144q47 0 83.5 -7t75 -26.5t60 -62t21.5 -106.5q0 -102 -79.5 -173t-231.5 -71h-332l66 310h-255zM671 310l-37 -174h157q42 0 79.5 22.5t37.5 67.5q0 44 -25.5 64t-77.5 20h-134z" />
    <glyph glyph-name="afii10060" unicode="&#x40b;" horiz-adv-x="906" 
d="M827 0h-165l36 169q6 25 6 54q0 37 -23.5 50.5t-79.5 13.5q-57 0 -117 -8l-59 -279h-165l119 564h-212l29 136h588l-29 -136h-211l-31 -149q87 8 158 8q209 0 209 -142q0 -30 -8 -67z" />
    <glyph glyph-name="afii10061" unicode="&#x40c;" horiz-adv-x="671" 
d="M271 402l286 298h200l-338 -336l208 -364h-192l-177 346h-2l-71 -346h-165l148 700h165l-65 -298h3zM422 898h158l-126 -132h-116z" />
    <glyph glyph-name="afii10062" unicode="&#x40e;" horiz-adv-x="639" 
d="M371 353l197 347h181l-346 -557q-20 -32 -37 -53t-47 -48t-72 -41t-94 -14q-51 0 -103 13l28 136q36 -11 74 -11t61.5 16t44.5 52l-159 507h179zM259 904h112q-8 -25 9.5 -46t68.5 -21q81 0 94 67h112q-18 -57 -70.5 -97.5t-150.5 -40.5q-31 0 -58 4.5t-55.5 16
t-45.5 36.5t-17 60v10q0 8 1 11z" />
    <glyph glyph-name="afii10145" unicode="&#x40f;" horiz-adv-x="749" 
d="M534 136l119 564h165l-148 -700h-225l-48 -226h-145l48 226h-225l148 700h165l-119 -564h265z" />
    <glyph glyph-name="afii10017" unicode="&#x410;" horiz-adv-x="677" 
d="M348 700h167l114 -700h-171l-17 131h-254l-73 -131h-177zM247 250h183l-35 267z" />
    <glyph glyph-name="afii10018" unicode="&#x411;" horiz-adv-x="707" 
d="M304 564l-25 -121h168h28t35.5 -4t43.5 -10.5t40.5 -21.5t37.5 -36t24.5 -55.5t10.5 -77.5q0 -100 -81 -169t-231 -69h-335l148 700h545l-29 -136h-380zM250 307l-36 -171h160q61 0 89.5 30.5t28.5 59.5q0 81 -104 81h-138z" />
    <glyph glyph-name="afii10019" unicode="&#x412;" horiz-adv-x="728" 
d="M168 700h352q186 0 186 -148q0 -35 -12 -69t-48.5 -67t-92.5 -46l-1 -2q50 -11 83 -46t33 -99q0 -101 -80 -162t-234 -61h-334zM304 564l-29 -136h152q35 0 67 17.5t32 59.5q0 27 -20 43t-54 16h-148zM247 292l-33 -156h170q41 0 75 20t34 63q0 42 -24 57.5t-71 15.5
h-151z" />
    <glyph glyph-name="afii10020" unicode="&#x413;" horiz-adv-x="551" 
d="M304 564l-119 -564h-165l148 700h470l-30 -136h-304z" />
    <glyph glyph-name="afii10021" unicode="&#x414;" horiz-adv-x="793" 
d="M656 136h99l-70 -294h-145l33 158h-474l-34 -158h-145l55 294h68q136 141 189 402l33 162h510zM581 564h-188l-16 -83q-42 -214 -154 -345h268z" />
    <glyph glyph-name="afii10022" unicode="&#x415;" horiz-adv-x="655" 
d="M275 425h342l-27 -136h-344l-32 -153h397l-28 -136h-563l148 700h554l-28 -136h-390z" />
    <glyph glyph-name="afii10024" unicode="&#x416;" horiz-adv-x="980" 
d="M357 0l70 321h-2l-276 -321h-212l347 381l-190 319h194l156 -289h2l59 289h165l-63 -289h2l266 289h206l-328 -339l189 -361h-200l-152 321h-3l-65 -321h-165z" />
    <glyph glyph-name="afii10025" unicode="&#x417;" horiz-adv-x="725" 
d="M31 241h161q-3 -11 -3 -20q0 -105 147 -105q80 0 119 31t39 76q0 24 -10 39t-28 21t-32 8t-34 2h-99l27 129h82q71 0 98.5 26.5t27.5 63.5q0 72 -118 72q-75 0 -110 -34t-43 -77h-167q54 247 357 247q137 0 198 -49.5t61 -126.5q0 -71 -42.5 -119t-112.5 -63v-2
q20 -3 39 -11.5t39 -24t32.5 -43t12.5 -62.5q0 -25 -6 -51t-28 -61.5t-57.5 -62t-102.5 -45.5t-155 -19q-276 0 -296 166q-2 20 -2 30q0 11 2 31q3 29 4 34z" />
    <glyph glyph-name="afii10026" unicode="&#x418;" horiz-adv-x="755" 
d="M238 248l361 452h178l-148 -700h-165l96 457l-362 -457h-178l148 700h165z" />
    <glyph glyph-name="afii10027" unicode="&#x419;" horiz-adv-x="755" 
d="M238 248l361 452h178l-148 -700h-165l96 457l-362 -457h-178l148 700h165zM301 872h111q-7 -27 11 -47t69 -20q77 0 94 67h111q-18 -57 -70 -97.5t-151 -40.5q-50 0 -86.5 10.5t-53 27t-27 35.5t-9 36t0.5 29z" />
    <glyph glyph-name="afii10028" unicode="&#x41a;" horiz-adv-x="671" 
d="M271 402l286 298h200l-338 -336l208 -364h-192l-177 346h-2l-71 -346h-165l148 700h165l-65 -298h3z" />
    <glyph glyph-name="afii10029" unicode="&#x41b;" horiz-adv-x="771" 
d="M-41 0l30 136q18 -2 28 -2q29 0 51.5 7.5t48.5 30t47.5 71.5t36.5 123l69 334h523l-148 -700h-165l119 564h-200l-53 -244q-11 -47 -23 -84t-38 -84.5t-60 -79t-90.5 -54t-126.5 -22.5q-28 0 -49 4z" />
    <glyph glyph-name="afii10030" unicode="&#x41c;" horiz-adv-x="944" 
d="M357 0l-64 508h-2l-106 -508h-165l148 700h239l61 -481l252 481h246l-148 -700h-165l110 508h-3l-268 -508h-135z" />
    <glyph glyph-name="afii10031" unicode="&#x41d;" horiz-adv-x="732" 
d="M248 301l-63 -301h-165l148 700h165l-57 -263h256l57 263h165l-148 -700h-165l63 301h-256z" />
    <glyph glyph-name="afii10032" unicode="&#x41e;" horiz-adv-x="792" 
d="M364 -20q-80 0 -139.5 22.5t-91.5 54t-51.5 74.5t-24.5 74.5t-5 63.5q0 55 13.5 113.5t45.5 120t79 109t120.5 78t163.5 30.5q146 0 226.5 -76t80.5 -213q0 -55 -13 -113.5t-44.5 -120t-77.5 -109t-119.5 -78t-162.5 -30.5zM377 116q49 0 89 20.5t65 51.5t42 71t23.5 77
t6.5 72q0 176 -148 176q-61 0 -107 -29.5t-70.5 -76.5t-36 -94t-11.5 -92q0 -176 147 -176z" />
    <glyph glyph-name="afii10033" unicode="&#x41f;" horiz-adv-x="740" 
d="M304 564l-119 -564h-165l148 700h594l-148 -700h-165l119 564h-264z" />
    <glyph glyph-name="afii10034" unicode="&#x420;" horiz-adv-x="685" 
d="M168 700h327q29 0 54 -3t56.5 -15t53.5 -31.5t37.5 -56t15.5 -85.5q0 -28 -5 -56.5t-24.5 -69t-52 -70.5t-94 -51.5t-143.5 -21.5h-157l-51 -240h-165zM304 564l-40 -188h130q78 0 110.5 29.5t32.5 73.5q0 47 -26 66t-77 19h-130z" />
    <glyph glyph-name="afii10035" unicode="&#x421;" horiz-adv-x="729" 
d="M538 247h164q-13 -46 -36.5 -88t-64 -85t-106.5 -68.5t-149 -25.5q-146 0 -220 79.5t-74 205.5q0 52 10.5 107.5t39 119.5t72 113t117.5 82t167 33q39 0 73.5 -4t75 -17t69 -34.5t48 -60.5t19.5 -91q0 -34 -3 -51h-163q1 3 1 10v11q0 101 -127 101q-47 0 -86 -20.5
t-63.5 -52t-41 -71.5t-23.5 -77.5t-7 -72.5q0 -47 11.5 -81.5t26.5 -51.5t35.5 -27t33.5 -12t26 -2q125 0 175 131z" />
    <glyph glyph-name="afii10036" unicode="&#x422;" horiz-adv-x="608" 
d="M290 564h-211l29 136h587l-29 -136h-211l-119 -564h-165z" />
    <glyph glyph-name="afii10037" unicode="&#x423;" horiz-adv-x="639" 
d="M371 353l197 347h181l-346 -557q-20 -32 -37 -53t-47 -48t-72 -41t-94 -14q-51 0 -103 13l28 136q36 -11 74 -11t61.5 16t44.5 52l-159 507h179z" />
    <glyph glyph-name="afii10038" unicode="&#x424;" horiz-adv-x="942" 
d="M328 -26l21 99h-26q-17 0 -36.5 2.5t-54.5 9.5t-65.5 24t-59.5 42.5t-46 70t-17 100.5q0 63 25.5 119.5t73.5 101.5t126 71.5t175 26.5h25l20 99h165l-20 -99h27q25 0 52 -3t70.5 -17.5t76 -39t57 -74t24.5 -115.5q0 -147 -112.5 -233t-287.5 -86h-27l-21 -99h-165z
M392 209l63 296h-11q-12 0 -26 -1.5t-42.5 -6t-52.5 -17t-48.5 -31.5t-38.5 -52t-14 -76q0 -112 156 -112h14zM528 209h14q20 0 41 2t55.5 13t60 29t45 54.5t19.5 85.5q0 112 -157 112h-15z" />
    <glyph glyph-name="afii10039" unicode="&#x425;" horiz-adv-x="685" 
d="M344 236l-190 -236h-208l325 364l-154 336h188l85 -221l171 221h201l-299 -340l169 -360h-196z" />
    <glyph glyph-name="afii10040" unicode="&#x426;" horiz-adv-x="789" 
d="M214 136h272l120 564h165l-120 -564h99l-71 -294h-145l34 158h-548l149 700h165z" />
    <glyph glyph-name="afii10041" unicode="&#x427;" horiz-adv-x="684" 
d="M138 700h165l-37 -169q-6 -25 -6 -52q0 -28 17.5 -43.5t39.5 -19t58 -3.5q48 0 106 8l60 279h165l-149 -700h-165l61 285q-58 -8 -148 -8q-37 0 -65 3t-57.5 12.5t-48.5 26t-31.5 46t-12.5 69.5q0 48 8 79z" />
    <glyph glyph-name="afii10042" unicode="&#x428;" horiz-adv-x="1081" 
d="M214 136h220l119 564h165l-119 -564h220l119 564h165l-148 -700h-935l148 700h165z" />
    <glyph glyph-name="afii10043" unicode="&#x429;" horiz-adv-x="1121" 
d="M214 136h220l119 564h165l-119 -564h220l119 564h165l-119 -564h99l-69 -288h-145l32 152h-881l148 700h165z" />
    <glyph glyph-name="afii10044" unicode="&#x42a;" horiz-adv-x="774" 
d="M404 700l-54 -254h145q239 0 239 -202q0 -102 -80.5 -173t-229.5 -71h-333l119 564h-131l29 136h296zM322 310l-37 -174h157q39 0 78 21.5t39 68.5q0 84 -103 84h-134z" />
    <glyph glyph-name="afii10045" unicode="&#x42b;" horiz-adv-x="961" 
d="M333 700l-53 -254h145q239 0 239 -202q0 -102 -79 -173t-232 -71h-333l148 700h165zM251 310l-37 -174h157q20 0 44 5.5t49 27.5t25 57q0 84 -103 84h-135zM818 700h165l-148 -700h-165z" />
    <glyph glyph-name="afii10046" unicode="&#x42c;" horiz-adv-x="703" 
d="M333 700l-54 -254h145q239 0 239 -202q0 -102 -79.5 -173t-231.5 -71h-332l148 700h165zM251 310l-37 -174h157q20 0 43.5 5.5t48.5 27.5t25 57q0 44 -25.5 64t-77.5 20h-134z" />
    <glyph glyph-name="afii10047" unicode="&#x42d;" horiz-adv-x="777" 
d="M261 467h-174q7 30 20 59.5t41 66t65 63.5t97 45.5t134 18.5q22 0 36 -0.5t51 -5.5t63.5 -15t61.5 -31.5t56.5 -51t37.5 -78t16 -109.5q0 -207 -113.5 -328t-306.5 -121q-79 0 -138 17.5t-90.5 42.5t-51 59t-24.5 60.5t-5 54.5q0 19 3 38h168q-1 -3 -1 -9v-9
q0 -57 39 -87.5t108 -30.5q45 0 81.5 13.5t57.5 32.5t36 44.5t21 43t9 34.5h-267l28 136h266q2 14 2 20q0 144 -154 144q-130 0 -173 -117z" />
    <glyph glyph-name="afii10048" unicode="&#x42e;" horiz-adv-x="1086" 
d="M277 435h97q16 53 45.5 100.5t76 90.5t116.5 68.5t156 25.5q21 0 40 -1.5t51.5 -7.5t59.5 -17t57 -33t51 -51.5t34.5 -75.5t13.5 -103q0 -89 -28 -170t-79.5 -144t-132 -100t-177.5 -37q-87 0 -151 26.5t-97.5 70.5t-48.5 91.5t-15 100.5v30h-98l-63 -299h-165l148 700
h165zM671 116q104 0 165 87t61 205q0 176 -148 176q-101 0 -163 -82t-62 -210q0 -176 147 -176z" />
    <glyph glyph-name="afii10049" unicode="&#x42f;" horiz-adv-x="710" 
d="M470 242h-98l-184 -242h-192l221 258q-60 9 -99.5 56.5t-39.5 138.5q0 117 87 182t214 65h353l-148 -700h-165zM538 564h-146q-18 0 -38 -4.5t-44 -15t-39 -33.5t-15 -56q0 -24 11.5 -41t29.5 -24t32.5 -9.5t28.5 -2.5h141z" />
    <glyph glyph-name="afii10065" unicode="&#x430;" horiz-adv-x="608" 
d="M236 344h-159q49 183 287 183q204 0 204 -134q0 -13 -9 -56l-51 -232q-9 -36 -9 -59q0 -31 17 -33v-13h-159l-3 50h-3q-72 -69 -175 -69q-26 0 -48.5 4t-50 16t-44 39.5t-16.5 68.5q0 32 10 58.5t24 44.5t38.5 32.5t43.5 22t49.5 14t46 9t43.5 5.5q11 1 33 3.5t31 4
t24.5 5t22 8.5t14.5 13t10.5 20t2.5 28q0 20 -15 34t-49 14q-93 0 -110 -81zM382 210l8 32q-21 -10 -107 -27q-20 -4 -35 -8.5t-33.5 -14t-29 -26.5t-10.5 -40q0 -43 69 -43q30 0 55.5 12.5t39 28t24.5 37t14 31t5 18.5z" />
    <glyph glyph-name="afii10066" unicode="&#x431;" horiz-adv-x="622" 
d="M538 747h123q-12 -44 -34.5 -72.5t-57 -42.5t-64.5 -20t-79.5 -12.5t-80.5 -13.5q-79 -19 -126.5 -66t-76.5 -147h3q28 61 86.5 107.5t149.5 46.5q108 0 160.5 -67.5t52.5 -164.5q0 -131 -86.5 -222.5t-230.5 -91.5q-24 0 -44 2t-51.5 9.5t-56 24t-47.5 42t-36 68.5
t-13 99q0 67 14.5 134.5t43.5 132.5t80 116t117 76q67 24 126.5 29t86.5 7.5t41 25.5zM191 240q-4 -25 -4 -57q0 -100 90 -100q53 0 91 38.5t53 87t15 95.5q0 18 -3 35t-11 38.5t-28 34.5t-49 13q-64 0 -103.5 -55t-50.5 -130z" />
    <glyph glyph-name="afii10067" unicode="&#x432;" horiz-adv-x="581" 
d="M116 508h294q142 0 142 -106q0 -57 -36.5 -92t-85.5 -44l-1 -3q38 -5 68.5 -30.5t30.5 -77.5q0 -155 -220 -155h-301zM246 406l-21 -99h78q95 0 95 62q0 37 -70 37h-82zM205 214l-24 -112h94q99 0 99 60q0 52 -78 52h-91z" />
    <glyph glyph-name="afii10068" unicode="&#x433;" horiz-adv-x="462" 
d="M246 406l-87 -406h-152l109 508h389l-23 -102h-236z" />
    <glyph glyph-name="afii10069" unicode="&#x434;" horiz-adv-x="676" 
d="M-33 102h67q107 125 145 312l20 94h436l-87 -406h84l-58 -234h-130l29 132h-390l-28 -132h-130zM461 406h-143l-12 -53q-35 -153 -114 -251h204z" />
    <glyph glyph-name="afii10070" unicode="&#x435;" horiz-adv-x="628" 
d="M396 147h154q-67 -166 -277 -166q-61 0 -106.5 15.5t-71 38t-41 54t-20 58t-4.5 55.5q0 38 9 78.5t32.5 85.5t58.5 80t93 58t129 23q59 0 104.5 -13.5t71 -34.5t41.5 -50t21 -55.5t5 -55.5q0 -34 -19 -95h-388q-4 -17 -4 -41q0 -99 102 -99q37 0 68 17.5t42 46.5z
M205 302h232q4 20 4 44q0 79 -99 79q-105 0 -137 -123z" />
    <glyph glyph-name="afii10072" unicode="&#x436;" horiz-adv-x="773" 
d="M261 0l51 227h-3l-189 -227h-183l255 274l-134 234h167l100 -211h2l43 211h145l-48 -211h3l183 211h173l-236 -248l142 -260h-176l-101 227h-2l-46 -227h-146z" />
    <glyph glyph-name="afii10073" unicode="&#x437;" horiz-adv-x="572" 
d="M5 170h144q-3 -10 -3 -21q0 -31 28 -48.5t68 -17.5q18 0 35.5 3t37 10t32 22.5t12.5 38.5q0 58 -82 58h-57l19 93h70q34 0 55.5 19t21.5 44q0 54 -80 54q-91 0 -112 -80h-148q39 182 278 182q70 0 116.5 -12t67.5 -34t28.5 -43t7.5 -49q0 -53 -34 -82t-83 -38v-3
q90 -23 90 -105q0 -21 -5 -42t-22.5 -47t-46 -45t-81 -32.5t-121.5 -13.5q-240 0 -240 156q0 20 4 33z" />
    <glyph glyph-name="afii10074" unicode="&#x438;" horiz-adv-x="642" 
d="M197 178l258 330h180l-109 -508h-152l71 330l-258 -330h-180l109 508h152z" />
    <glyph glyph-name="afii10075" unicode="&#x439;" horiz-adv-x="642" 
d="M197 178l258 330h180l-109 -508h-152l71 330l-258 -330h-180l109 508h152zM212 700h112q-8 -24 8 -45.5t71 -21.5q34 0 61 16.5t33 50.5h111q-11 -43 -39.5 -73t-65 -43t-63.5 -17.5t-52 -4.5q-58 0 -97.5 14t-56 37t-21 44.5t-1.5 42.5z" />
    <glyph glyph-name="afii10076" unicode="&#x43a;" horiz-adv-x="537" 
d="M222 300l197 208h174l-253 -249l156 -259h-171l-118 225h-3l-45 -225h-152l109 508h152l-48 -208h2z" />
    <glyph glyph-name="afii10077" unicode="&#x43b;" horiz-adv-x="628" 
d="M-42 -2l23 105q16 -2 23 -2q48 0 77 38.5t56 151.5l50 217h434l-109 -508h-152l87 406h-137l-25 -114q-17 -79 -39 -134.5t-44 -87.5t-52 -49.5t-57 -23t-65 -5.5q-36 0 -70 6z" />
    <glyph glyph-name="afii10078" unicode="&#x43c;" horiz-adv-x="792" 
d="M292 0l-63 350h-2l-2 -26l-69 -324h-149l109 508h202l58 -344h3l190 344h216l-109 -508h-149l69 324l9 26h-3l-197 -350h-113z" />
    <glyph glyph-name="afii10079" unicode="&#x43d;" horiz-adv-x="610" 
d="M205 215l-46 -215h-152l109 508h152l-41 -191h183l41 191h152l-109 -508h-152l46 215h-183z" />
    <glyph glyph-name="afii10080" unicode="&#x43e;" horiz-adv-x="631" 
d="M276 -19q-61 0 -107 15t-72 37.5t-42 54.5t-21 60t-5 60q0 39 9.5 80t33.5 84.5t59.5 77.5t93 55.5t128.5 21.5q33 0 62.5 -4t65 -18.5t61 -38.5t42.5 -67t17 -100q0 -82 -36 -153t-111.5 -118t-177.5 -47zM292 83q72 0 111.5 65t39.5 161q0 116 -105 116
q-54 0 -89.5 -39t-48.5 -88t-13 -102q0 -113 105 -113z" />
    <glyph glyph-name="afii10081" unicode="&#x43f;" horiz-adv-x="623" 
d="M246 406l-87 -406h-152l109 508h500l-109 -508h-152l87 406h-196z" />
    <glyph glyph-name="afii10082" unicode="&#x440;" horiz-adv-x="637" 
d="M117 508h134l-12 -52h3q73 71 179 71q93 0 140 -57.5t47 -144.5q0 -43 -10 -88.5t-32.5 -91.5t-55 -81.5t-81.5 -58t-107 -22.5q-111 0 -151 69l-51 -237h-152zM205 262q-7 -33 -7 -59q0 -52 24 -85t73 -33q51 0 88 38t52 86.5t15 97.5q0 66 -29.5 92t-68.5 26
q-45 0 -87 -35.5t-60 -127.5z" />
    <glyph glyph-name="afii10083" unicode="&#x441;" horiz-adv-x="596" 
d="M397 192h150q-5 -21 -14 -43.5t-30 -54.5t-49.5 -55.5t-76.5 -40.5t-106 -17q-121 0 -181 60.5t-60 156.5q0 42 9 84.5t32 87.5t57.5 79t89.5 56t124 22q67 0 114.5 -15.5t71 -42t33.5 -53.5t10 -58v-16q0 -10 -1 -15h-146q1 3 1 8v9q0 81 -83 81q-40 0 -71 -21.5
t-48.5 -56.5t-26 -72.5t-8.5 -74.5q0 -39 10.5 -65t28.5 -36t31 -13t29 -3q84 0 110 109z" />
    <glyph glyph-name="afii10084" unicode="&#x442;" horiz-adv-x="512" 
d="M213 406h-168l22 102h488l-22 -102h-168l-87 -406h-152z" />
    <glyph glyph-name="afii10085" unicode="&#x443;" horiz-adv-x="555" 
d="M2 -185l22 102q14 -7 48 -7q19 0 32.5 5t24.5 18t16 21t15 27l14 25l-116 502h163l67 -344l163 344h161l-290 -535q-51 -92 -96 -129.5t-119 -37.5q-69 0 -105 9z" />
    <glyph glyph-name="afii10086" unicode="&#x444;" horiz-adv-x="854" 
d="M258 -185l36 171q-263 6 -263 225q0 61 22.5 115.5t66.5 99t118.5 70t169.5 24.5l38 180h152l-38 -180q69 1 120 -15.5t77.5 -40.5t42.5 -58t19.5 -59t3.5 -53q0 -39 -10.5 -78t-38 -80.5t-69 -73t-108.5 -53t-151 -23.5l-36 -171h-152zM327 88l70 330h-26
q-79 0 -132.5 -58t-53.5 -149q0 -120 142 -123zM527 418l-70 -330q54 -1 96 18t66.5 50.5t37 67.5t12.5 74q0 120 -142 120z" />
    <glyph glyph-name="afii10087" unicode="&#x445;" horiz-adv-x="541" 
d="M292 363l114 145h183l-233 -251l126 -257h-161l-68 153l-125 -153h-182l246 270l-125 238h166z" />
    <glyph glyph-name="afii10088" unicode="&#x446;" horiz-adv-x="649" 
d="M181 102h188l87 406h152l-87 -406h84l-58 -234h-130l28 132h-438l109 508h152z" />
    <glyph glyph-name="afii10089" unicode="&#x447;" horiz-adv-x="563" 
d="M92 508h152l-32 -148q-4 -15 -4 -29q0 -20 11.5 -30t25.5 -11.5t41 -1.5q39 0 72 4l46 216h152l-108 -508h-152l40 190q-3 0 -39 -2t-59 -2q-62 0 -102 9.5t-56.5 28t-21.5 35t-5 41.5q0 29 5 53z" />
    <glyph glyph-name="afii10090" unicode="&#x448;" horiz-adv-x="909" 
d="M181 102h165l87 406h152l-87 -406h165l87 406h152l-109 -508h-786l109 508h152z" />
    <glyph glyph-name="afii10091" unicode="&#x449;" horiz-adv-x="943" 
d="M181 102h165l87 406h152l-87 -406h165l87 406h152l-87 -406h83l-57 -234h-131l29 132h-732l109 508h152z" />
    <glyph glyph-name="afii10092" unicode="&#x44a;" horiz-adv-x="642" 
d="M67 508h285l-39 -181h94q28 0 47 -1t48.5 -8.5t47.5 -21t31.5 -40.5t13.5 -65q0 -23 -5 -46t-20 -50t-38.5 -47.5t-64.5 -34t-94 -13.5h-282l87 406h-133zM291 225l-26 -123h67q105 0 105 66q0 57 -81 57h-65z" />
    <glyph glyph-name="afii10093" unicode="&#x44b;" horiz-adv-x="796" 
d="M116 508h152l-39 -181h94q28 0 47 -1t48.5 -8.5t47.5 -21t31.5 -40.5t13.5 -65q0 -23 -5 -46t-20 -50t-38.5 -47.5t-64.5 -34t-94 -13.5h-282zM207 225l-26 -123h67q105 0 105 66q0 57 -81 57h-65zM637 508h152l-109 -508h-152z" />
    <glyph glyph-name="afii10094" unicode="&#x44c;" horiz-adv-x="557" 
d="M114 508h152l-40 -180h97q28 0 46.5 -1t48 -8.5t47.5 -21t31.5 -40.5t13.5 -66q0 -23 -5 -46t-20 -50t-38.5 -47.5t-64.5 -34t-94 -13.5h-281zM206 226l-28 -124h69q105 0 105 66q0 58 -81 58h-65z" />
    <glyph glyph-name="afii10095" unicode="&#x44d;" horiz-adv-x="618" 
d="M230 206l20 102h176q3 14 3 28q0 12 -2 22t-9.5 28t-29.5 28.5t-56 10.5q-35 0 -62 -11t-42 -28.5t-22.5 -31.5t-11.5 -28h-139q8 34 25 65t48.5 64t86 52.5t125.5 19.5q61 0 107 -14.5t72 -36t42 -51.5t21 -56.5t5 -56.5q0 -40 -9.5 -82t-33.5 -87.5t-60.5 -80.5
t-96.5 -58t-135 -23q-233 0 -233 185q0 8 2 26h142q-1 -3 -1 -11v-10q0 -9 2.5 -19.5t11 -28t32 -29t58.5 -11.5q50 0 84 27t57 96h-177z" />
    <glyph glyph-name="afii10096" unicode="&#x44e;" horiz-adv-x="868" 
d="M227 317h63q30 90 104.5 150t199.5 60q60 0 105 -15t71 -37.5t42 -54.5t21 -60.5t5 -60.5q0 -38 -9.5 -79t-33.5 -84.5t-59.5 -77t-92 -55.5t-125.5 -22q-61 0 -107.5 15.5t-72.5 38.5t-42 55.5t-20.5 62t-3.5 62.5h-67l-46 -215h-152l109 508h152zM533 83q41 0 72 24.5
t46 62t22 73t7 66.5q0 116 -101 116q-41 0 -71.5 -22t-46.5 -58t-23.5 -73.5t-7.5 -75.5t12 -63t31 -34.5t32.5 -12.5t27.5 -3z" />
    <glyph glyph-name="afii10097" unicode="&#x44f;" horiz-adv-x="583" 
d="M305 176l-132 -176h-182l167 187q-44 4 -75.5 35.5t-31.5 92.5q0 79 57 136t169 57h299l-109 -508h-152l38 176h-48zM402 406h-80q-35 0 -59 -8t-34.5 -20.5t-14.5 -23t-4 -20.5q0 -56 80 -56h85z" />
    <glyph glyph-name="afii10071" unicode="&#x451;" horiz-adv-x="628" 
d="M396 147h154q-67 -166 -277 -166q-61 0 -106.5 15.5t-71 38t-41 54t-20 58t-4.5 55.5q0 38 9 78.5t32.5 85.5t58.5 80t93 58t129 23q59 0 104.5 -13.5t71 -34.5t41.5 -50t21 -55.5t5 -55.5q0 -34 -19 -95h-388q-4 -17 -4 -41q0 -99 102 -99q37 0 68 17.5t42 46.5z
M205 302h232q4 20 4 44q0 79 -99 79q-105 0 -137 -123zM192 581l26 119h152l-26 -119h-152zM474 581l26 119h152l-26 -119h-152z" />
    <glyph glyph-name="afii10099" unicode="&#x452;" horiz-adv-x="640" 
d="M326 700l-13 -59h238l-16 -80h-238l-27 -128q80 74 172 74q17 0 30 -1t37 -9.5t40 -23.5t28.5 -46t12.5 -74q0 -83 -28 -206.5t-71 -194.5q-47 -77 -108 -107t-148 -30l21 102h17q41 0 73.5 48t49 115t24.5 123t8 88q0 101 -73 101q-57 0 -83.5 -38t-41.5 -106l-53 -248
h-152l120 561h-79l16 80h79l13 59h152z" />
    <glyph glyph-name="afii10100" unicode="&#x453;" horiz-adv-x="462" 
d="M246 406l-87 -406h-152l109 508h389l-23 -102h-236zM307 700h160l-128 -132h-116z" />
    <glyph glyph-name="afii10101" unicode="&#x454;" horiz-adv-x="597" 
d="M400 310l-20 -102h-195q-2 -14 -2 -16q0 -18 4 -34.5t13.5 -34.5t29.5 -29t49 -11q83 0 117 78h143q-26 -58 -58 -96t-68.5 -55t-68 -23t-72.5 -6q-245 0 -245 214q0 46 10 90t34 88.5t60 78t92.5 54.5t126.5 21q31 0 59 -3.5t59.5 -15t53.5 -30t37 -51.5t15 -77h-141
q0 75 -93 75q-6 0 -15 -1t-29 -7.5t-36.5 -17t-34 -34t-25.5 -55.5h200z" />
    <glyph glyph-name="afii10102" unicode="&#x455;" horiz-adv-x="556" 
d="M10 160h156q-1 -3 -1 -9v-9q0 -59 93 -59q35 0 62.5 17t27.5 45t-20 40t-61 21q-12 3 -43 9.5t-43.5 9.5t-36.5 11t-34 16t-23 21t-18 30.5t-5 39.5q0 75 63 129.5t195 54.5q209 0 209 -130q0 -14 -3 -29h-137q1 3 1 9v10q0 38 -75 38q-95 0 -95 -55q0 -19 11.5 -31
t24 -16t31.5 -7q11 -2 39 -6.5t38.5 -6.5l33 -6.5t31.5 -8.5l24.5 -11t22 -15t14.5 -19t11 -25t3 -31q0 -20 -3 -40t-18.5 -52t-42 -55.5t-79 -41t-124.5 -17.5q-63 0 -111 11t-84 44.5t-36 87.5v18q0 6 2 18z" />
    <glyph glyph-name="afii10103" unicode="&#x456;" horiz-adv-x="274" 
d="M115 508h152l-108 -508h-152zM130 581l26 119h152l-26 -119h-152z" />
    <glyph glyph-name="afii10104" unicode="&#x457;" horiz-adv-x="360" 
d="M160 508h152l-108 -508h-152zM98 581l25 119h122l-25 -119h-122zM283 581l25 119h122l-25 -119h-122z" />
    <glyph glyph-name="afii10105" unicode="&#x458;" horiz-adv-x="274" 
d="M115 508h152l-113 -533q-9 -44 -26.5 -76t-36 -49t-43 -27t-43 -12.5t-40.5 -2.5q-53 0 -88 7l21 102q14 -2 15 -2q42 0 62.5 16.5t29.5 58.5zM130 581l26 119h152l-26 -119h-152z" />
    <glyph glyph-name="afii10106" unicode="&#x459;" horiz-adv-x="911" 
d="M-42 -2l22 105q16 -2 24 -2q48 0 77.5 38.5t55.5 151.5l50 217h433l-40 -181h96q27 0 46 -1.5t48 -9t47.5 -21t32.5 -40.5t14 -64q0 -34 -11.5 -65.5t-35.5 -61t-69 -47t-106 -17.5h-282l86 406h-136l-25 -114q-17 -79 -39 -134.5t-44 -87.5t-52 -49.5t-57 -23t-65 -5.5
q-36 0 -70 6zM559 225l-27 -123h69q105 0 105 66q0 57 -81 57h-66z" />
    <glyph glyph-name="afii10107" unicode="&#x45a;" horiz-adv-x="893" 
d="M206 220l-47 -220h-152l108 508h152l-40 -186h183l40 186h152l-40 -180h96q20 0 33 -0.5t34.5 -3.5t36.5 -8t32 -15t27.5 -24t17.5 -36t7 -50q0 -34 -11 -65.5t-35 -61t-69.5 -47t-106.5 -17.5h-282l47 220h-183zM542 226l-28 -124h68q105 0 105 66q0 58 -81 58h-64z" />
    <glyph glyph-name="afii10108" unicode="&#x45b;" horiz-adv-x="631" 
d="M326 700l-13 -59h238l-16 -80h-238l-25 -118q64 64 169 64q12 0 25 -1t37 -9t41.5 -21t31 -40.5t13.5 -64.5q0 -29 -9 -72l-63 -299h-152l54 256q8 38 8 54q0 26 -7.5 43t-20.5 23.5t-22.5 8.5t-22.5 2q-52 0 -80.5 -34.5t-43.5 -104.5l-53 -248h-152l120 561h-92l16 80
h92l13 59h152z" />
    <glyph glyph-name="afii10109" unicode="&#x45c;" horiz-adv-x="537" 
d="M222 300l197 208h174l-253 -249l156 -259h-171l-118 225h-3l-45 -225h-152l109 508h152l-48 -208h2zM345 700h160l-128 -132h-116z" />
    <glyph glyph-name="afii10110" unicode="&#x45e;" horiz-adv-x="555" 
d="M174 700h111q-5 -26 12 -46.5t67 -20.5q80 0 94 67h112q-7 -23 -20 -43.5t-37.5 -44t-66.5 -37t-97 -13.5q-30 0 -57 4.5t-56 16t-46 36.5t-17 60v10q0 8 1 11zM2 -185l22 102q14 -7 48 -7q19 0 32.5 5t24.5 18t16 21t15 27l14 25l-116 502h163l67 -344l163 344h161
l-290 -535q-51 -92 -96 -129.5t-119 -37.5q-69 0 -105 9z" />
    <glyph glyph-name="afii10193" unicode="&#x45f;" horiz-adv-x="621" 
d="M375 102l87 406h152l-107 -508h-184l-40 -185h-132l40 185h-184l108 508h152l-87 -406h195z" />
    <glyph glyph-name="cyrOmega" unicode="&#x460;" horiz-adv-x="960" 
d="M406 271l30 142h164l-30 -142q-11 -53 -11 -83q0 -73 56 -73q67 0 114 92q46 94 46 188q-1 79 -34.5 129t-95.5 59l29 136q126 -2 202 -78q77 -77 77 -212q-2 -75 -25 -159q-22 -83 -63 -145q-94 -143 -246 -145q-75 0 -115.5 36t-37.5 104h-2q-25 -66 -81.5 -103
t-131.5 -37q-99 0 -151 72q-53 74 -53 191q-1 102 35.5 196.5t100.5 160.5q111 114 289 119l-29 -136q-89 -7 -145 -81q-73 -95 -73 -251q0 -136 70 -136q77 -2 111 156z" />
    <glyph glyph-name="cyromega" unicode="&#x461;" horiz-adv-x="800" 
d="M316 194l22 103h142l-22 -103q-7 -34 -7 -55q0 -27 11 -42t34 -14q31 -1 58 30q25 27 40 83q16 52 16 98q-1 55 -27 88t-70 36l22 102q97 1 165 -59t68 -173q-2 -85 -35 -156q-34 -71 -90 -109q-61 -41 -146 -41q-99 0 -118 69q-6 13 -4 33h-2q-20 -49 -63 -75.5
t-103 -26.5q-85 0 -133.5 58.5t-48.5 155.5q0 142 90 229q94 94 244 95l-22 -102q-69 -8 -104 -60q-25 -32 -38 -84q-13 -51 -12 -97q0 -94 55 -94q53 0 78 111z" />
    <glyph glyph-name="afii10146" unicode="&#x462;" horiz-adv-x="782" 
d="M412 700l-11 -50h180l-26 -120h-180l-17 -84h145q239 0 239 -202q0 -102 -80.5 -173t-229.5 -71h-333l111 530h-131l26 120h131l11 50h165zM330 310l-37 -174h157q39 0 78 21.5t39 68.5q0 84 -103 84h-134z" />
    <glyph glyph-name="afii10194" unicode="&#x463;" horiz-adv-x="642" 
d="M67 508h133l41 192h152l-41 -192h150l-22 -102h-150l-17 -79h94q28 0 47 -1t48.5 -8.5t47.5 -21t31.5 -40.5t13.5 -65q0 -23 -5 -46t-20 -50t-38.5 -47.5t-64.5 -34t-94 -13.5h-282l87 406h-133zM291 225l-26 -123h67q105 0 105 66q0 57 -81 57h-65z" />
    <glyph glyph-name="cyriotE" unicode="&#x464;" horiz-adv-x="1048" 
d="M20 0l148 700h165l-58 -275h98q25 102 102 182q110 113 287 113q136 0 207 -46q91 -62 85 -188h-165q-2 44 -31 69q-35 29 -101 29q-109 0 -168 -87q-23 -31 -33 -72h300l-28 -136h-297q-3 -18 -3 -36q0 -56 31 -91q38 -46 114 -46q59 -1 109 33q39 30 51 65h169
q-37 -108 -127.5 -170.5t-224.5 -62.5q-135 0 -206 62q-100 80 -94 246h-104l-61 -289h-165z" />
    <glyph glyph-name="cyriote" unicode="&#x465;" horiz-adv-x="860" 
d="M7 0l109 508h152l-43 -198h82q27 103 107 160q75 55 199 57q103 0 162 -42q62 -48 62 -135h-141q0 29 -16 48q-25 27 -75 27q-64 0 -102 -41q-32 -32 -40 -74h200l-20 -102h-195q-2 -16 -2 -21q0 -43 19 -68q25 -37 77 -36q49 0 83 30q23 22 34 48h143q-41 -92 -95 -130
q-64 -49 -172 -49q-116 0 -171 45q-72 55 -74 168q-1 6 0 13h-87l-44 -208h-152z" />
    <glyph glyph-name="cyrYuslit" unicode="&#x466;" horiz-adv-x="760" 
d="M509 162h-55l-34 -162h-166l34 162h-67l-95 -162h-190l445 700h167l168 -700h-171zM430 527l-144 -245h198z" />
    <glyph glyph-name="cyryuslit" unicode="&#x467;" horiz-adv-x="720" 
d="M468 145h-41l-31 -145h-152l31 145h-53l-102 -145h-184l384 508h168l188 -508h-158zM388 396l-118 -171h178z" />
    <glyph glyph-name="cyriotYuslit" unicode="&#x468;" horiz-adv-x="1060" 
d="M730 527l-144 -245h198zM170 700h165l-89 -418h169l266 418h167l168 -700h-171l-36 162h-55l-34 -162h-166l34 162h-67l-95 -162h-190l103 162h-119l-34 -162h-165z" />
    <glyph glyph-name="cyriotyuslit" unicode="&#x469;" horiz-adv-x="980" 
d="M648 396l-118 -171h178zM115 508h152l-60 -283h159l214 283h168l188 -508h-158l-50 145h-41l-31 -145h-152l31 145h-53l-102 -145h-184l114 145h-120l-31 -145h-152z" />
    <glyph glyph-name="cyrYusbig" unicode="&#x46a;" horiz-adv-x="940" 
d="M330 388l-171 312h792l-281 -312l226 -388h-190l-143 257h-3l-55 -257h-166l55 257h-3l-241 -257h-214zM499 390l166 190h-260z" />
    <glyph glyph-name="cyryusbig" unicode="&#x46b;" horiz-adv-x="716" 
d="M231 296l-123 212h592l-201 -212l173 -296h-162l-84 170h-2l-36 -170h-152l36 170h-2l-152 -170h-182zM359 296l98 110h-158z" />
    <glyph glyph-name="cyriotYusbig" unicode="&#x46c;" horiz-adv-x="1230" 
d="M705 580l94 -190l166 190h-260zM21 0l149 700h165l-57 -265h326l-145 265h792l-281 -312l226 -388h-190l-143 257h-3l-55 -257h-166l55 257h-3l-241 -257h-214l324 315h-307l-67 -315h-165z" />
    <glyph glyph-name="cyriotyusbig" unicode="&#x46d;" horiz-adv-x="980" 
d="M571 406l60 -110l98 110h-158zM7 0l108 508h152l-38 -181h256l-105 181h592l-201 -212l173 -296h-162l-84 170h-2l-36 -170h-152l36 170h-2l-152 -170h-182l250 247h-246l-53 -247h-152z" />
    <glyph glyph-name="cyrKsi" unicode="&#x46e;" horiz-adv-x="700" 
d="M250 473h-167q18 94 80 157q50 53 135 76l-118 174h150l101 -160l88 98q31 36 65 52q33 14 71 14q9 0 29 -2t28 -2l-18 -86h-16q-18 0 -34 -7q-22 -10 -38 -28l-48 -53q58 -14 96 -52q45 -50 45 -110q-2 -101 -80 -152q-30 -22 -75 -30v-2q49 -12 78 -35q45 -40 45 -103
q0 -52 -29.5 -98.5t-82.5 -76.5q-43 -25 -101 -36q-60 -11 -158 -11h-91q-36 0 -50 -8q-23 -12 -23 -37q0 -17 14 -26q12 -7 47 -9h272l-22 -104h-295q-70 0 -114 21q-61 33 -61 118q2 89 76 143q55 38 133 38h136q74 0 113 16q58 24 58 71q0 41 -37 60q-21 10 -67 10h-99
l27 129h82q44 -1 73 11q53 22 53 79q0 34 -31 54q-33 18 -87 18q-56 0 -94 -23q-47 -29 -59 -88z" />
    <glyph glyph-name="cyrksi" unicode="&#x46f;" horiz-adv-x="560" 
d="M184 345h-148q17 81 83 132q39 29 83 40l-111 183h136l87 -173l91 111q29 38 65 54q25 10 67 12q9 0 28 -2t25 -2l-17 -78h-16q-29 -1 -40 -5q-22 -7 -40 -30l-58 -70q44 -7 79 -37q36 -36 36 -87q0 -68 -59 -103q-25 -16 -58 -21v-3q38 -12 56 -25q34 -29 34 -78
q-1 -43 -28.5 -81t-77.5 -58q-59 -24 -152 -24h-65q-36 0 -50 -8q-23 -12 -23 -37q0 -17 14 -26q12 -7 47 -9h222l-22 -104h-240q-78 2 -114 21q-61 34 -61 108q0 71 70 124q48 32 122 33h82q61 0 81 10q35 13 37 49q0 29 -24 43q-20 11 -58 11h-57l19 93h70q32 -1 54.5 19
t22.5 45q-2 26 -25 42q-20 11 -55 11q-51 0 -82 -28q-19 -18 -25 -35q-5 -12 -5 -17z" />
    <glyph glyph-name="cyrPsi" unicode="&#x470;" horiz-adv-x="860" 
d="M457 0h-164l42 197q-115 1 -186 54q-69 53 -69 143q0 51 17 125l39 181h164l-37 -174q-13 -56 -13 -93q0 -50 31 -76t83 -24l78 367h164l-78 -367q41 -1 80 18t62.5 58t40.5 117l37 174h164l-47 -221q-21 -98 -53 -144q-32 -45 -78 -75q-91 -58 -235 -63z" />
    <glyph glyph-name="cyrpsi" unicode="&#x471;" horiz-adv-x="840" 
d="M404 -184h-152l39 184q-114 -4 -177.5 46t-62.5 140q0 53 18 131l41 191h152l-38 -179q-17 -78 -17 -119q0 -53 27.5 -81t78.5 -27l127 598h152l-127 -598q63 1 110 48q37 37 58 101.5t21 139.5q0 60 -16 117l155 12q19 -54 19 -119q0 -94 -30.5 -175.5t-81.5 -132.5
q-92 -93 -257 -93z" />
    <glyph glyph-name="afii10147" unicode="&#x472;" horiz-adv-x="1062" 
d="M392 406h338q0 88 -31 131q-39 47 -109 47q-113 0 -170 -106q-15 -24 -28 -72zM714 306h-341q-8 -97 35 -146q35 -46 104 -44q106 0 168 105q20 33 34 85zM0 206l42 200h171q25 105 99 187q112 127 297 127q129 0 203 -60q106 -87 95 -254h177l-42 -200h-120l21 100h-51
q-25 -111 -101 -199q-109 -126 -292 -126q-138 2 -207 59q-47 38 -72.5 99t-25.5 133q0 23 1 34h-54l-21 -100h-120z" />
    <glyph glyph-name="afii10195" unicode="&#x473;" horiz-adv-x="912" 
d="M345 300h241v9q-1 53 -20 80q-27 36 -83 36q-59 0 -95 -42q-30 -35 -43 -83zM574 220h-243q-1 -8 -1 -24q0 -54 22 -80q23 -33 77 -33q60 0 98 42q31 34 47 95zM754 120l21 100h-41q-20 -79 -71 -137q-86 -101 -246 -101q-124 0 -182 57q-63 57 -63 165q-1 2 1 16h-50
l-21 -100h-119l37 180h166q18 69 66 125q86 102 246 102q117 0 183 -57q62 -58 63 -167v-2q0 -1 168 -1l-38 -180h-120z" />
    <glyph glyph-name="afii10148" unicode="&#x474;" horiz-adv-x="731" 
d="M305 200l151 329q28 61 62.5 101t71.5 56.5t64.5 21.5t63.5 5q54 0 103 -13l-28 -136q-36 11 -74 11q-39 0 -65 -18.5t-48 -62.5l-249 -494h-183l-88 700h172z" />
    <glyph glyph-name="afii10196" unicode="&#x475;" horiz-adv-x="582" 
d="M238 165l85 169l30 57t31.5 48t41 42t52.5 25t70 11q46 0 81 -9l-22 -102q-14 7 -48 7q-19 0 -32.5 -5t-24.5 -18t-16 -21t-15 -27l-194 -342h-147l-85 508h162z" />
    <glyph glyph-name="cyrIzhitsadblgrave" unicode="&#x476;" horiz-adv-x="740" 
d="M356 898h150l98 -132h-110zM128 898h150l98 -132h-110zM257 700l67 -500l161 329q46 95 100 137q60 47 147 47q43 0 93 -13l-29 -136q-38 10 -57 10q-34 0 -60 -20q-24 -20 -43 -57l-257 -497h-190l-104 700h172z" />
    <glyph glyph-name="cyrizhitsadblgrave" unicode="&#x477;" horiz-adv-x="554" 
d="M234 700h140l88 -132h-100zM25 700h140l88 -132h-100zM210 508l41 -356l115 246q31 68 78 95q40 21 97 21q29 -2 57 -6l-22 -102h-16q-22 0 -42 -13q-17 -11 -35 -46l-184 -347h-168l-86 508h165z" />
    <glyph glyph-name="cyrUk" unicode="&#x478;" horiz-adv-x="1320" 
d="M768 -184l22 102q19 -7 48 -7q25 0 43 12t45 59l14 24l-116 502h163l67 -344l163 344h161l-290 -534q-56 -101 -102 -134t-113 -33q-55 0 -105 9zM378 116q112 -1 176 106q50 85 50 194q0 168 -148 168q-116 -1 -175 -106q-50 -87 -50 -194q0 -84 39 -126t108 -42z
M365 -19q-149 0 -230.5 76t-81.5 212q-1 88 30.5 173t90.5 151q111 126 301 127q145 0 226 -76.5t81 -212.5q0 -186 -119 -324q-60 -69 -131 -97.5t-167 -28.5z" />
    <glyph glyph-name="cyruk" unicode="&#x479;" horiz-adv-x="1120" 
d="M567 -184l22 102q19 -7 48 -7q25 0 43 12t45 59l14 24l-116 502h163l67 -344l163 344h161l-290 -534q-56 -101 -102 -134q-47 -33 -113 -33q-55 0 -105 9zM287 83q95 0 135 106q22 63 22 120q0 116 -103 116q-92 0 -131 -105q-22 -55 -22 -124q-1 -56 25 -85t74 -28z
M275 -18q-118 0 -181.5 56t-63.5 166q0 129 80 221q88 102 246 102q122 0 183.5 -58t62.5 -166q0 -127 -81 -220q-88 -101 -246 -101z" />
    <glyph glyph-name="cyrroundOmega" unicode="&#x47a;" horiz-adv-x="876" 
d="M352 195h146l-14 -69q95 4 153 100q50 86 50 190q0 73 -38 119q-31 33 -70 39l-15 -69h-146l15 69q-98 -6 -153 -100q-50 -85 -50 -190q0 -76 38 -119q28 -34 70 -39zM454 -14l-16 -75h-146l16 75q-99 5 -156 54q-100 79 -100 229q0 87 31 173q31 88 90 151
q115 124 290 122l16 75h146l-16 -75q91 -5 156 -55q100 -82 100 -229q0 -85 -32 -175t-89 -149q-115 -123 -290 -121z" />
    <glyph glyph-name="cyrroundomega" unicode="&#x47b;" horiz-adv-x="762" 
d="M280 88l8 40h132l-8 -40q28 -2 56 11q57 23 84 87q22 53 22 114q0 51 -25 84q-25 29 -67 34l-9 -40h-132l9 40q-30 0 -56 -11q-59 -24 -84 -87q-22 -52 -22 -114q0 -55 25 -84q24 -32 67 -34zM379 -65h-132l11 52q-104 2 -162 58q-66 57 -66 163q0 60 21 117t59 98
q52 58 130 81q52 16 132 16l11 52h132l-11 -52q98 -2 162 -59q66 -63 66 -163q0 -60 -21.5 -117.5t-58.5 -97.5q-55 -61 -130 -81q-62 -15 -132 -15z" />
    <glyph glyph-name="cyrOmegatitlo" unicode="&#x47c;" horiz-adv-x="960" 
d="M394 766h-90q26 79 88 133q72 63 197 65q57 0 92 -15q34 -13 69 -47q42 -46 44 -47q13 -10 39 -9h34l-17 -80h-42q-42 0 -69 23q-9 7 -19.5 20t-21 27.5t-12.5 16.5q-41 41 -110 41q-72 0 -121 -40q-43 -33 -61 -88zM511 726h-70q11 39 37 70q38 44 93 44q49 0 74 -33.5
t16 -80.5h-70q8 24 -0.5 44t-28.5 20q-19 0 -33 -19q-13 -18 -18 -45zM463 115h-2q-25 -66 -81.5 -103t-131.5 -37q-98 0 -151 72q-53 74 -53 191q0 184 114 309t291 127l-29 -136q-93 -11 -145 -89q-53 -79 -53 -203q0 -136 70 -136q77 0 111 156l30 142h164l-30 -142
q-11 -54 -11 -85q0 -32 14 -51.5t42 -19.5q67 0 114 92q42 86 42 168q0 74 -40.5 118t-105.5 50l29 136q136 -1 216 -74q79 -72 79 -199q0 -150 -86 -281q-96 -145 -244 -145q-124 0 -148 95q-6 24 -5 45z" />
    <glyph glyph-name="cyromegatitlo" unicode="&#x47d;" horiz-adv-x="800" 
d="M286 598h-90q30 84 88 133q74 67 197 69q100 0 161 -62q4 -4 13 -16t17.5 -22t13.5 -13q12 -9 39 -9h34l-17 -80h-42q-42 0 -69 23q-18 13 -33 36q-13 24 -20 32q-36 41 -110 41q-69 0 -121 -40q-42 -35 -61 -92zM403 548h-70q11 46 38 76q39 48 95 48q50 0 73 -35
t14 -89h-70q5 17 5 30q0 19 -8 31.5t-23 12.5q-22 0 -35 -22q-14 -20 -19 -52zM318 194l22 103h142l-22 -103q-7 -32 -7 -55q0 -25 9 -38q11 -18 36 -18q31 -2 58 30q25 29 40.5 74.5t15.5 86.5q0 54 -29.5 87.5t-77.5 36.5l22 102q113 2 178 -65q65 -65 65 -167
q-1 -77 -34.5 -143t-90.5 -102q-62 -41 -146 -41q-60 0 -92 27t-30 75h-2q-20 -49 -63 -75.5t-103 -26.5q-85 1 -134 59t-48 155q0 132 87 215q87 84 237 89l-22 -102q-62 -8 -97 -55q-47 -62 -47 -166q-1 -94 55 -94q53 0 78 111z" />
    <glyph glyph-name="cyrOt" unicode="&#x47e;" horiz-adv-x="960" 
d="M521 812h-128l18 86h384l-18 -86h-128l-10 -46h-128zM403 266l30 142h164l-30 -142q-11 -53 -11 -83q0 -73 56 -73q67 0 114 92q46 94 46 188q-1 79 -34.5 129t-95.5 59l29 136q126 -2 202 -78q77 -77 77 -212q-2 -75 -25 -159q-22 -83 -63 -145q-94 -143 -246 -145
q-75 0 -115.5 36t-37.5 104h-2q-25 -66 -81.5 -103t-131.5 -37q-98 0 -151 72q-53 74 -53 191q-1 102 35.5 196.5t100.5 160.5q111 114 289 119l-29 -136q-89 -7 -145 -81q-73 -95 -73 -251q0 -136 70 -136q77 -2 111 156z" />
    <glyph glyph-name="cyrot" unicode="&#x47f;" horiz-adv-x="800" 
d="M403 614h-132l18 86h384l-18 -86h-132l-10 -46h-120zM316 194l22 103h142l-22 -103q-7 -31 -7 -55q0 -56 45 -56q31 -1 58 30q25 27 40 83q16 52 16 98q-1 55 -27 88t-70 36l22 102q97 1 165 -59t68 -173q-2 -85 -35 -156q-34 -71 -90 -109q-61 -41 -146 -41
q-60 0 -92 27t-30 75h-2q-20 -49 -63 -75.5t-103 -26.5q-85 0 -133.5 58.5t-48.5 155.5q0 142 90 229q94 94 244 95l-22 -102q-69 -8 -104 -60q-25 -32 -38 -84q-13 -51 -12 -97q0 -94 55 -94q53 0 78 111z" />
    <glyph glyph-name="cyrKoppa" unicode="&#x480;" horiz-adv-x="720" 
d="M740 462h-164q0 1 0.5 8t0.5 13q0 49 -33.5 75t-92.5 26q-102 0 -162 -89t-60 -205q-1 -85 33 -130t105 -44q111 -1 159 94h164l-79 -367h-164l40 187h-2q-55 -49 -154 -49q-140 0 -210 79t-70 205q-1 182 104 319q105 136 307 136q138 0 209.5 -56t71.5 -165
q0 -1 -3 -37z" />
    <glyph glyph-name="cyrkoppa" unicode="&#x481;" horiz-adv-x="580" 
d="M569 327h-146q0 2 0.5 7.5t0.5 9.5q0 38 -20.5 59.5t-60.5 21.5q-88 -2 -128 -92q-26 -60 -26 -135q0 -115 86 -115q44 0 77 29t46 80h150l-75 -349h-150l37 173h-2q-41 -35 -109 -35q-104 0 -161 53t-57 162q0 111 49 195q80 136 261 136q111 0 170 -45t59 -130
q0 -6 -0.5 -14t-0.5 -11z" />
    <glyph glyph-name="cyrthousandsign" unicode="&#x482;" horiz-adv-x="492" 
d="M275 232l86 103l81 -67l-86 -103l74 -64l-61 -72l-74 63l-54 -62l74 -63l-60 -73l-74 64l-90 -106l-81 67l91 107l-74 64l61 70l73 -63l55 63l-74 65l60 71z" />
    <glyph glyph-name="cyrtitlo" unicode="&#x483;" 
d="M-449 554h-100l31 146h320l13 60h100l-31 -146h-320z" />
    <glyph glyph-name="cyrpalateroc" unicode="&#x484;" 
d="M-295 562h-104q25 15 39 34q29 29 28 54q0 14 -13 41q-15 33 -16 52q0 31 30 67l34 30h104q-26 -22 -38 -34q-30 -35 -30 -55q0 -13 14 -40q16 -31 15 -51q0 -36 -29 -68q-13 -16 -34 -30z" />
    <glyph glyph-name="cyrdasiapneumata" unicode="&#x485;" horiz-adv-x="3" 
d="M-334 643l-5 70q79 33 130 33q78 -2 78 -68q1 -48 -42 -81q-20 -18 -49 -29h-102v3q14 4 27 15q27 17 26 45q0 23 -26 23q-11 0 -37 -11z" />
    <glyph glyph-name="cyrpsilipneumata" unicode="&#x486;" 
d="M-107 713l-35 -70q-14 11 -33 11q-15 0 -25.5 -11t-10.5 -26q0 -25 27 -46v-3h-94q-27 10 -44 32t-17 47q0 43 32.5 71t87.5 28q47 0 112 -33z" />
    <glyph glyph-name="cyrErcrossed" unicode="&#x48e;" horiz-adv-x="685" 
d="M168 700h327q122 0 176 -63q41 -51 41 -128q0 -79 -39 -143q-31 -50 -84 -82l56 -80l-95 -69l-75 110q-39 -5 -82 -5h-157l-51 -240h-165zM304 564l-40 -188h136l-45 61l80 58l65 -92q37 35 37 84q0 32 -21 53q-24 24 -82 24h-130z" />
    <glyph glyph-name="cyrercrossed" unicode="&#x48f;" horiz-adv-x="637" 
d="M117 508h134l-12 -52h3q23 23 59 43q50 28 120 28q85 0 135 -52q52 -60 52 -150q0 -93 -37 -174q-22 -49 -64 -91l61 -76l-90 -74l-68 88q-42 -15 -88 -15q-60 0 -105 25q-27 15 -46 44l-51 -237h-152zM348 253l68 -83q34 61 34 137q0 55 -22 83q-28 35 -76 35
q-56 0 -97 -47q-26 -30 -41.5 -80t-15.5 -95q0 -56 23 -85q24 -33 74 -33q32 0 53 11l-77 94z" />
    <glyph glyph-name="afii10050" unicode="&#x490;" horiz-adv-x="550" 
d="M305 564l-120 -564h-165l149 700h315l33 158h145l-54 -294h-303z" />
    <glyph glyph-name="afii10098" unicode="&#x491;" horiz-adv-x="458" 
d="M245 406l-86 -406h-152l108 508h269l28 133h111l-43 -235h-235z" />
    <glyph glyph-name="cyrGebar" unicode="&#x492;" horiz-adv-x="613" 
d="M333 404h220l-28 -136h-220l-57 -268h-165l57 268h-120l28 136h120l63 296h469l-29 -136h-304z" />
    <glyph glyph-name="cyrgebar" unicode="&#x493;" horiz-adv-x="501" 
d="M285 406l-27 -126h150l-19 -90h-150l-41 -190h-152l41 190h-80l19 90h80l49 228h389l-23 -102h-236z" />
    <glyph glyph-name="cyrGehook" unicode="&#x494;" horiz-adv-x="730" 
d="M304 564l-35 -168q75 7 133 7q23 0 43.5 -2t60 -14.5t67 -34.5t49 -68t21.5 -110q0 -63 -17.5 -124.5t-52.5 -116.5t-83.5 -97t-115 -66.5t-142.5 -24.5q-30 0 -76 13l29 136q37 -13 68 -13q86 0 152.5 66.5t66.5 175.5q0 47 -12.5 78.5t-35 44.5t-40.5 17t-41 4
q-38 0 -103 -7l-55 -260h-165l148 700h470l-30 -136h-304z" />
    <glyph glyph-name="cyrgehook" unicode="&#x495;" horiz-adv-x="525" 
d="M246 406l-21 -99h57q212 0 212 -174q0 -31 -7.5 -68t-29 -83t-54.5 -82t-90 -60.5t-129 -24.5l22 102h16q37 0 64 36.5t38 82.5t11 91q0 35 -19 56.5t-56 21.5h-57l-44 -205h-152l109 508h389l-23 -102h-236z" />
    <glyph glyph-name="cyrZhedesc" unicode="&#x496;" horiz-adv-x="980" 
d="M357 0l70 321h-2l-276 -321h-212l347 381l-190 319h194l156 -289h2l59 289h165l-63 -289h2l266 289h206l-328 -339l118 -225h116l-71 -294h-145l34 158h-63l-152 321h-3l-65 -321h-165z" />
    <glyph glyph-name="cyrzhedesc" unicode="&#x497;" horiz-adv-x="773" 
d="M261 0l51 227h-3l-189 -227h-183l255 274l-134 234h167l100 -211h2l43 211h145l-48 -211h3l183 211h173l-236 -248l86 -158h88l-58 -234h-130l28 132h-48l-101 227h-2l-46 -227h-146z" />
    <glyph glyph-name="cyrZetail" unicode="&#x498;" horiz-adv-x="725" 
d="M31 241h161q-3 -11 -3 -20q0 -105 147 -105q80 0 119 31t39 76q0 24 -10 39t-28 21t-32 8t-34 2h-99l27 129h82q71 0 98.5 26.5t27.5 63.5q0 72 -118 72q-75 0 -110 -34t-43 -77h-167q54 247 357 247q137 0 198 -49.5t61 -126.5q0 -71 -42.5 -119t-112.5 -63v-2
q20 -4 38.5 -12t39 -23.5t33 -42.5t12.5 -63q0 -39 -16 -77t-48 -72t-87 -57t-126 -29l-42 -210h-145l42 208q-205 17 -223 164q-2 20 -2 30q0 11 2 31q3 29 4 34z" />
    <glyph glyph-name="cyrzetail" unicode="&#x499;" horiz-adv-x="572" 
d="M5 170h144q-3 -10 -3 -21q0 -31 28 -48.5t68 -17.5q18 0 35.5 3t37 10t32 22.5t12.5 38.5q0 58 -82 58h-57l19 93h70q34 0 55.5 19t21.5 44q0 54 -80 54q-91 0 -112 -80h-148q39 182 278 182q70 0 116.5 -12t67.5 -34t28.5 -43t7.5 -49q0 -53 -34 -82t-83 -38v-3
q90 -23 90 -105q0 -68 -62 -121t-157 -55l-38 -170h-132l38 168q-81 0 -123 49t-42 105q0 20 4 33z" />
    <glyph glyph-name="cyrKadesc" unicode="&#x49a;" horiz-adv-x="711" 
d="M271 402l286 298h200l-338 -336l130 -228h124l-71 -294h-145l34 158h-56l-177 346h-2l-71 -346h-165l148 700h165l-65 -298h3z" />
    <glyph glyph-name="cyrkadesc" unicode="&#x49b;" horiz-adv-x="568" 
d="M222 300l197 208h174l-253 -249l95 -157h100l-58 -234h-130l28 132h-50l-118 225h-3l-45 -225h-152l109 508h152l-48 -208h2z" />
    <glyph glyph-name="cyrKavertbar" unicode="&#x49c;" horiz-adv-x="793" 
d="M388 700l-54 -258h79l27 134h100l-27 -134l248 258h174l-320 -328l188 -372h-182l-138 306l-34 -164h-100l34 164h-80l-63 -306h-165l148 700h165z" />
    <glyph glyph-name="cyrkavertbar" unicode="&#x49d;" horiz-adv-x="682" 
d="M220 304h70l22 100h90l-22 -100l167 204h160l-215 -246l125 -262h-158l-96 222l-26 -120h-90l26 120h-69l-45 -222h-152l109 508h152z" />
    <glyph glyph-name="cyrKabar" unicode="&#x49e;" horiz-adv-x="695" 
d="M358 700l-13 -60h80l-18 -86h-80l-35 -152h3l286 298h200l-338 -336l208 -364h-192l-177 346h-2l-71 -346h-165l118 554h-98l18 86h98l13 60h165z" />
    <glyph glyph-name="cyrkabar" unicode="&#x49f;" horiz-adv-x="555" 
d="M326 700l-13 -59h238l-16 -80h-238l-59 -261h2l197 208h174l-253 -249l156 -259h-171l-118 225h-3l-45 -225h-152l120 561h-92l16 80h92l13 59h152z" />
    <glyph glyph-name="cyrKaback" unicode="&#x4a0;" horiz-adv-x="784" 
d="M379 402l286 298h200l-338 -336l208 -364h-192l-177 346h-2l-71 -346h-165l121 572h-230l27 128h395l-65 -298h3z" />
    <glyph glyph-name="cyrkaback" unicode="&#x4a1;" horiz-adv-x="602" 
d="M287 300l197 208h174l-253 -249l156 -259h-171l-118 225h-3l-45 -225h-152l88 412h-115l20 96h268l-48 -208h2z" />
    <glyph glyph-name="cyrEndesc" unicode="&#x4a2;" horiz-adv-x="772" 
d="M248 301l-63 -301h-165l148 700h165l-57 -263h256l57 263h165l-120 -564h99l-71 -294h-145l34 158h-110l63 301h-256z" />
    <glyph glyph-name="cyrendesc" unicode="&#x4a3;" horiz-adv-x="644" 
d="M205 215l-46 -215h-152l109 508h152l-41 -191h183l41 191h152l-87 -406h84l-58 -234h-130l28 132h-98l46 215h-183z" />
    <glyph glyph-name="cyrEnGe" unicode="&#x4a4;" horiz-adv-x="1037" 
d="M248 301l-63 -301h-165l148 700h165l-57 -263h256l57 263h470l-30 -136h-304l-119 -564h-165l63 301h-256z" />
    <glyph glyph-name="cyrenge" unicode="&#x4a5;" horiz-adv-x="797" 
d="M205 215l-46 -215h-152l109 508h152l-41 -191h183l41 191h389l-23 -102h-236l-87 -406h-152l46 215h-183z" />
    <glyph glyph-name="cyrPehook" unicode="&#x4a6;" horiz-adv-x="1112" 
d="M304 564l-119 -564h-165l148 700h594l-64 -304q75 7 133 7q126 0 184 -64q57 -61 57 -170q0 -76 -27.5 -152t-74.5 -134q-61 -74 -140 -106t-158 -32q-50 0 -87 13l29 136q36 -13 73 -13q116 0 177 119q30 61 30 132q0 65 -30 102q-31 33 -92 33q-38 0 -103 -7l-55 -260
h-165l119 564h-264z" />
    <glyph glyph-name="cyrpehook" unicode="&#x4a7;" horiz-adv-x="890" 
d="M246 406l-87 -406h-152l109 508h500l-43 -201h57q103 0 151 -40q61 -49 61 -154q0 -64 -29.5 -133.5t-94.5 -114.5q-41 -30 -83 -40t-103 -10l22 102h16q61 0 92 76q22 47 22 111q0 39 -13 64q-19 37 -63 37h-57l-44 -205h-152l87 406h-196z" />
    <glyph glyph-name="cyrOhook" unicode="&#x4a8;" horiz-adv-x="962" 
d="M500 718l-29 -136q-18 2 -28 2q-81 0 -135 -60q-37 -40 -55 -99.5t-18 -115.5q0 -102 57 -151q53 -47 137 -42q-49 80 -49 182q0 161 106 263q91 90 232 90q119 0 178 -68q55 -63 55 -169q0 -110 -58 -201q-66 -107 -222 -176q13 -16 41 -26q33 -11 68 -11q56 0 112 20
l-27 -126q-68 -20 -130 -20q-95 0 -159 44q-40 26 -74 71q-49 -9 -97 -9q-167 0 -254 79q-94 84 -94 228q0 95 34.5 184.5t93.5 146.5q105 102 275 102q14 0 40 -2zM601 135q94 43 138 136q34 70 34 130q0 55 -14 79q-18 35 -58 35q-48 0 -85 -37q-58 -58 -58 -176
q0 -97 43 -167z" />
    <glyph glyph-name="cyrohook" unicode="&#x4a9;" horiz-adv-x="756" 
d="M358 525l-22 -102q-2 1 -7 1h-6q-76 0 -112 -84q-21 -49 -21 -109q0 -79 39 -118q36 -34 91 -30q-27 60 -27 125q0 130 76 206q64 64 170 64q83 0 127 -42q49 -46 49 -131q0 -84 -43 -159q-56 -97 -175 -135q15 -15 37 -22q20 -7 55 -7q47 0 93 18l-22 -102
q-44 -18 -101 -18q-68 0 -121 29q-45 24 -78 76q-47 -5 -82 -5q-137 0 -197 77q-49 63 -49 166q0 77 30 141t84 106q75 57 176 57q12 0 36 -2zM447 103q55 23 86 92q24 54 24 110q0 32 -8 47q-11 24 -40 24q-44 0 -68 -57q-18 -43 -18 -99q0 -66 24 -117z" />
    <glyph glyph-name="cyrEstail" unicode="&#x4aa;" horiz-adv-x="729" 
d="M538 247h164q-13 -46 -35 -87.5t-56.5 -80t-87.5 -64.5t-117 -33l-43 -208h-145l43 217q-96 14 -152.5 91.5t-56.5 182.5q0 52 10.5 107.5t39 119.5t72 113t117.5 82t167 33q39 0 73.5 -4t75 -17t69 -34.5t48 -60.5t19.5 -91q0 -34 -3 -51h-163q1 3 1 10v11
q0 101 -127 101q-47 0 -86 -20.5t-63.5 -52t-41 -71.5t-23.5 -77.5t-7 -72.5q0 -47 11.5 -81.5t26.5 -51.5t35.5 -27t33.5 -12t26 -2q125 0 175 131z" />
    <glyph glyph-name="cyrestail" unicode="&#x4ab;" horiz-adv-x="596" 
d="M397 192h150q-59 -186 -226 -205l-40 -172h-132l40 172q-69 13 -114 67.5t-45 145.5q0 53 16 106t49.5 104.5t97.5 84t149 32.5q67 0 114.5 -15.5t71 -42t33.5 -53.5t10 -58v-16q0 -10 -1 -15h-146q1 3 1 8v9q0 81 -83 81q-40 0 -71 -21.5t-48.5 -56.5t-26 -72.5
t-8.5 -74.5q0 -117 95 -117q88 0 114 109z" />
    <glyph glyph-name="cyrTedesc" unicode="&#x4ac;" horiz-adv-x="608" 
d="M290 564h-211l29 136h587l-29 -136h-211l-91 -428h99l-71 -294h-145l34 158h-110z" />
    <glyph glyph-name="cyrtedesc" unicode="&#x4ad;" horiz-adv-x="512" 
d="M213 406h-168l22 102h488l-22 -102h-168l-65 -304h84l-58 -234h-130l28 132h-98z" />
    <glyph glyph-name="cyrstraightU" unicode="&#x4ae;" horiz-adv-x="640" 
d="M358 410l208 290h184l-340 -436l-56 -264h-165l56 264l-159 436h180z" />
    <glyph glyph-name="cyrstraightu" unicode="&#x4af;" horiz-adv-x="498" 
d="M240 175l168 333h157l-281 -498l-42 -195h-152l42 195l-87 498h162z" />
    <glyph glyph-name="cyrstraightUbar" unicode="&#x4b0;" horiz-adv-x="640" 
d="M358 410l208 290h184l-340 -436l-9 -44h141l-21 -100h-142l-25 -120h-165l25 120h-139l21 100h140l9 44l-159 436h180z" />
    <glyph glyph-name="cyrstraightubar" unicode="&#x4b1;" horiz-adv-x="498" 
d="M240 175l168 333h157l-281 -498l-2 -10h119l-19 -90h-120l-20 -95h-152l20 95h-120l19 90h121l2 10l-87 498h162z" />
    <glyph glyph-name="cyrHadesc" unicode="&#x4b2;" horiz-adv-x="685" 
d="M344 236l-190 -236h-208l325 364l-154 336h188l85 -221l171 221h201l-299 -340l105 -224h108l-71 -294h-145l34 158h-58z" />
    <glyph glyph-name="cyrhadesc" unicode="&#x4b3;" horiz-adv-x="541" 
d="M292 363l114 145h183l-233 -251l77 -155h96l-58 -234h-130l28 132h-48l-68 153l-125 -153h-182l246 270l-125 238h166z" />
    <glyph glyph-name="cyrTeTse" unicode="&#x4b4;" horiz-adv-x="940" 
d="M365 136h272l120 564h165l-120 -564h99l-71 -294h-145l34 158h-548l119 564h-211l29 136h566l-29 -136h-190z" />
    <glyph glyph-name="cyrtetse" unicode="&#x4b5;" horiz-adv-x="768" 
d="M300 102h188l87 406h152l-87 -406h84l-58 -234h-130l28 132h-438l87 406h-168l22 102h460l-22 -102h-140z" />
    <glyph glyph-name="cyrChedesc" unicode="&#x4b6;" horiz-adv-x="717" 
d="M138 700h165l-37 -169q-6 -25 -6 -52q0 -28 17.5 -43.5t39.5 -19t58 -3.5q48 0 106 8l60 279h165l-120 -564h153l-71 -294h-145l34 158h-165l61 285q-58 -8 -148 -8q-37 0 -65 3t-57.5 12.5t-48.5 26t-31.5 46t-12.5 69.5q0 48 8 79z" />
    <glyph glyph-name="cyrchedesc" unicode="&#x4b7;" horiz-adv-x="577" 
d="M92 508h152l-32 -148q-4 -15 -4 -29q0 -20 11.5 -30t25.5 -11.5t41 -1.5q39 0 72 4l46 216h152l-86 -406h100l-58 -234h-130l28 132h-114l40 190q-3 0 -39 -2t-59 -2q-62 0 -102 9.5t-56.5 28t-21.5 35t-5 41.5q0 29 5 53z" />
    <glyph glyph-name="cyrChevertbar" unicode="&#x4b8;" horiz-adv-x="724" 
d="M138 700h165l-36 -169q-6 -25 -6 -49q0 -32 20 -51t52 -17l34 162h100l-34 -162q31 1 89 7l59 279h165l-148 -700h-165l60 285q-29 -3 -88 -5l-29 -138h-100l28 135q-120 -2 -167 40t-47 117q0 48 8 79z" />
    <glyph glyph-name="cyrchevertbar" unicode="&#x4b9;" horiz-adv-x="646" 
d="M95 508h152l-32 -148q-4 -15 -4 -29q0 -45 65 -43l25 116h90l-25 -116q44 0 75 4l46 216h152l-109 -508h-152l40 188q-46 -2 -74 -2l-18 -84h-90l18 84q-201 -5 -201 100q0 31 9 67z" />
    <glyph glyph-name="cyrH" unicode="&#x4ba;" horiz-adv-x="684" 
d="M588 0h-165l41 189q6 25 6 52q0 28 -17.5 43.5t-39.5 19t-58 3.5q-48 0 -106 -8l-64 -299h-165l149 700h165l-56 -263q56 8 148 8q38 0 66 -3t57.5 -12.5t48 -26t30.5 -46t12 -69.5q0 -48 -8 -79z" />
    <glyph glyph-name="cyrh" unicode="&#x4bb;" horiz-adv-x="613" 
d="M309 700l-51 -237q64 64 175 64q19 0 38.5 -4.5t45 -16.5t42 -42t16.5 -73q0 -29 -9 -72l-68 -319h-152l63 294q6 32 6 47q0 66 -74 66q-32 0 -56.5 -14.5t-37.5 -38t-18.5 -38.5t-8.5 -30l-61 -286h-152l150 700h152z" />
    <glyph glyph-name="cyrIehook" unicode="&#x4bc;" horiz-adv-x="964" 
d="M707 205h200q-18 -51 -59.5 -97.5t-92.5 -75.5q-89 -52 -228 -52q-164 0 -239 89q-58 68 -58 185q0 32 1 43h-34q-76 0 -115 38t-39 105q0 108 83 167q61 43 145 45l-27 -128q-22 0 -39.5 -13t-17.5 -41q0 -21 12 -33t34 -12h24q21 72 58 121q71 90 143 127q88 47 213 47
q39 0 68 -3t69 -19t69 -45q76 -74 76 -223q0 -64 -15 -133h-526q-4 -20 -4 -44q0 -65 34 -100q37 -42 116 -42q67 0 112 42q21 19 37 52zM435 425h338q3 19 3 39q0 47 -24 79q-36 46 -106 46q-72 0 -125 -36q-65 -47 -86 -128z" />
    <glyph glyph-name="cyriehook" unicode="&#x4bd;" horiz-adv-x="772" 
d="M541 147h154q-32 -85 -112 -129q-66 -37 -165 -37q-114 0 -175 51q-77 63 -67 191h-26q-53 0 -85 18q-49 27 -49 87q0 79 63 124q49 34 116 34l-18 -85q-22 0 -38 -14q-17 -15 -17 -42q0 -19 11 -30q13 -13 40 -13h18q25 96 107 162q80 63 208 63q119 0 179 -57
q55 -55 55 -139q0 -57 -19 -108h-388q-5 -20 -5 -41q0 -42 23 -69q26 -30 79 -30q51 0 84 27q21 18 27 37zM350 302h232q4 15 4 35q0 44 -24 67q-22 21 -65 21q-58 0 -91 -29q-39 -32 -56 -94z" />
    <glyph glyph-name="cyrIehookogonek" unicode="&#x4be;" horiz-adv-x="964" 
d="M707 205h200q-18 -51 -59.5 -97.5t-92.5 -75.5q-74 -40 -164 -49q-28 -20 -53 -56t-25 -74q0 -22 11 -34.5t30 -12.5q29 0 45.5 19t22.5 43h89q-17 -56 -54 -89q-55 -48 -131 -48q-57 0 -91 28t-34 73q0 80 89 149q-59 1 -114 25t-88 63q-58 68 -58 184q0 33 1 44h-34
q-76 0 -115 38t-39 105q0 108 83 167q61 43 145 45l-27 -128q-22 0 -39.5 -13t-17.5 -41q0 -21 12 -33t34 -12h24q21 72 58 121q71 90 143 127q88 47 213 47q39 0 68 -3t69 -19t69 -45q76 -74 76 -223q0 -64 -15 -133h-526q-4 -20 -4 -44q0 -65 34 -100q37 -42 116 -42
q67 0 112 42q21 19 37 52zM435 425h338q3 19 3 39q0 47 -24 79q-36 46 -106 46q-72 0 -125 -36q-65 -47 -86 -128z" />
    <glyph glyph-name="cyriehookogonek" unicode="&#x4bf;" horiz-adv-x="772" 
d="M541 147h154q-32 -85 -112 -129q-48 -26 -111 -33q-79 -65 -79 -134q0 -21 11 -33t31 -12q29 0 46 19t21 43h89q-17 -55 -55 -89q-53 -48 -130 -48q-51 0 -88 25.5t-37 76.5q0 80 90 150q-76 7 -128 49q-77 63 -67 191h-26q-53 0 -85 18q-49 27 -49 87q0 79 63 124
q49 34 116 34l-18 -85q-22 0 -38 -14q-17 -15 -17 -42q0 -19 11 -30q13 -13 40 -13h18q25 96 107 162q80 63 208 63q119 0 179 -57q55 -55 55 -139q0 -55 -19 -108h-388q-5 -20 -5 -41q0 -42 23 -69q26 -30 79 -30q51 0 84 27q21 18 27 37zM350 302h232q4 15 4 34
q0 44 -24 68q-22 21 -65 21q-58 0 -91 -29q-39 -32 -56 -94z" />
    <glyph glyph-name="cyrI" unicode="&#x4c0;" horiz-adv-x="273" 
d="M157 700h152l-150 -700h-152z" />
    <glyph glyph-name="cyrZhecyrbreve" unicode="&#x4c1;" horiz-adv-x="980" 
d="M357 0l70 321h-2l-276 -321h-212l347 381l-190 319h194l156 -289h2l59 289h165l-63 -289h2l266 289h206l-328 -339l189 -361h-200l-152 321h-3l-65 -321h-165zM418 904h112q-8 -25 9.5 -46t68.5 -21q81 0 94 67h112q-18 -57 -70.5 -97.5t-150.5 -40.5q-31 0 -58 4.5
t-55.5 16t-45.5 36.5t-17 60v10q0 8 1 11z" />
    <glyph glyph-name="cyrzhecyrbreve" unicode="&#x4c2;" horiz-adv-x="773" 
d="M261 0l51 227h-3l-189 -227h-183l255 274l-134 234h167l100 -211h2l43 211h145l-48 -211h3l183 211h173l-236 -248l142 -260h-176l-101 227h-2l-46 -227h-146zM265 700h111q-5 -26 12 -46.5t67 -20.5q80 0 94 67h112q-7 -23 -20 -43.5t-37.5 -44t-66.5 -37t-97 -13.5
q-30 0 -57 4.5t-56 16t-46 36.5t-17 60v10q0 8 1 11z" />
    <glyph glyph-name="cyrKahook" unicode="&#x4c3;" horiz-adv-x="691" 
d="M271 402l286 298h200l-338 -336l165 -289h6q56 0 87 -33.5t31 -89.5q0 -76 -61.5 -125t-162.5 -47l16 75q37 0 68.5 19.5t31.5 66.5q0 11 -2.5 22t-18 24t-42.5 13h-102l-177 346h-2l-71 -346h-165l148 700h165l-65 -298h3z" />
    <glyph glyph-name="cyrkahook" unicode="&#x4c4;" horiz-adv-x="557" 
d="M222 300l197 208h174l-253 -249l114 -189h6q50 0 80.5 -33t30.5 -85q0 -47 -22 -81t-57.5 -50.5t-68.5 -23.5t-66 -7l15 70q12 0 25 2.5t31.5 9.5t30.5 25t12 44q0 59 -63 59h-83l-118 225h-3l-45 -225h-152l109 508h152l-48 -208h2z" />
    <glyph glyph-name="cyrEnhook" unicode="&#x4c7;" horiz-adv-x="732" 
d="M248 301l-63 -301h-165l148 700h165l-57 -263h256l57 263h165l-132 -625h6q56 0 87 -33.5t31 -89.5q0 -76 -61.5 -125t-162.5 -47l16 75q37 0 68.5 19.5t31.5 66.5q0 11 -2.5 22t-18 24t-42.5 13h-134l63 301h-256z" />
    <glyph glyph-name="cyrenhook" unicode="&#x4c8;" horiz-adv-x="609" 
d="M205 215l-46 -215h-152l109 508h152l-41 -191h183l41 191h152l-94 -438h6q46 0 78.5 -30t32.5 -88q0 -47 -22 -81t-57.5 -50.5t-68.5 -23.5t-66 -7l15 70q12 0 25 2.5t31.5 9.5t30.5 25t12 44q0 59 -63 59h-121l46 215h-183z" />
    <glyph glyph-name="cyrChedescleft" unicode="&#x4cb;" horiz-adv-x="684" 
d="M138 700h165l-37 -169q-6 -25 -6 -52q0 -28 17.5 -43.5t39.5 -19t58 -3.5q48 0 106 8l60 279h165l-149 -700h-132l-34 -158h-145l55 294h120l32 149q-58 -8 -148 -8q-32 0 -56 2t-56.5 11t-53 25t-35.5 47.5t-15 74.5q0 33 9 76z" />
    <glyph glyph-name="cyrchedescleft" unicode="&#x4cc;" horiz-adv-x="563" 
d="M92 508h152l-32 -148q-4 -24 -4 -33q0 -20 16.5 -29.5t61.5 -9.5q39 0 72 4l46 216h152l-108 -508h-114l-28 -132h-130l42 234h100l18 88q-3 0 -39 -2t-59 -2q-97 0 -141.5 25.5t-44.5 87.5q0 24 6 54z" />
    <glyph glyph-name="cyrEmtail" unicode="&#x4cd;" horiz-adv-x="944" 
d="M357 0l-64 508h-2l-106 -508h-165l148 700h239l61 -481l252 481h246l-132 -625h6q58 0 88 -34q30 -33 30 -89q0 -97 -97 -147q-55 -27 -127 -25l16 75q37 0 59 13q41 21 41 73q0 11 -2.5 22t-18 24t-42.5 13h-134l110 508h-3l-268 -508h-135z" />
    <glyph glyph-name="cyremtail" unicode="&#x4ce;" horiz-adv-x="794" 
d="M292 0l-63 350h-2l-2 -26l-69 -324h-149l109 508h202l58 -344h3l190 344h216l-94 -438h8q51 0 82 -33q29 -29 29 -81q0 -99 -93 -143q-51 -25 -121 -23l15 70q36 0 59 12q40 25 40 70q0 58 -63 58h-120l69 324l9 26h-3l-197 -350h-113z" />
    <glyph glyph-name="cyrAcyrbreve" unicode="&#x4d0;" horiz-adv-x="677" 
d="M348 700h167l114 -700h-171l-17 131h-254l-73 -131h-177zM247 250h183l-35 267zM255 904h112q-8 -25 9.5 -46t68.5 -21q81 0 94 67h112q-18 -57 -70.5 -97.5t-150.5 -40.5q-31 0 -58 4.5t-55.5 16t-45.5 36.5t-17 60v10q0 8 1 11z" />
    <glyph glyph-name="cyracyrbreve" unicode="&#x4d1;" horiz-adv-x="608" 
d="M201 700h111q-5 -26 12 -46.5t67 -20.5q80 0 94 67h112q-7 -23 -20 -43.5t-37.5 -44t-66.5 -37t-97 -13.5q-30 0 -57 4.5t-56 16t-46 36.5t-17 60v10q0 8 1 11zM236 344h-159q49 183 287 183q204 0 204 -134q0 -13 -9 -56l-51 -232q-9 -36 -9 -59q0 -31 17 -33v-13h-159
l-3 50h-3q-72 -69 -175 -69q-26 0 -48.5 4t-50 16t-44 39.5t-16.5 68.5q0 32 10 58.5t24 44.5t38.5 32.5t43.5 22t49.5 14t46 9t43.5 5.5q11 1 33 3.5t31 4t24.5 5t22 8.5t14.5 13t10.5 20t2.5 28q0 20 -15 34t-49 14q-93 0 -110 -81zM382 210l8 32q-21 -10 -107 -27
q-20 -4 -35 -8.5t-33.5 -14t-29 -26.5t-10.5 -40q0 -43 69 -43q30 0 55.5 12.5t39 28t24.5 37t14 31t5 18.5z" />
    <glyph glyph-name="cyrAdieresis" unicode="&#x4d2;" horiz-adv-x="677" 
d="M250 766l22 106h142l-22 -106h-142zM498 766l22 106h142l-22 -106h-142zM348 700h167l114 -700h-171l-17 131h-254l-73 -131h-177zM247 250h183l-35 267z" />
    <glyph glyph-name="cyradieresis" unicode="&#x4d3;" horiz-adv-x="608" 
d="M156 581l26 119h152l-26 -119h-152zM438 581l26 119h152l-26 -119h-152zM236 344h-159q49 183 287 183q204 0 204 -134q0 -13 -9 -56l-51 -232q-9 -36 -9 -59q0 -31 17 -33v-13h-159l-3 50h-3q-72 -69 -175 -69q-26 0 -48.5 4t-50 16t-44 39.5t-16.5 68.5q0 32 10 58.5
t24 44.5t38.5 32.5t43.5 22t49.5 14t46 9t43.5 5.5q11 1 33 3.5t31 4t24.5 5t22 8.5t14.5 13t10.5 20t2.5 28q0 20 -15 34t-49 14q-93 0 -110 -81zM382 210l8 32q-21 -10 -107 -27q-20 -4 -35 -8.5t-33.5 -14t-29 -26.5t-10.5 -40q0 -43 69 -43q30 0 55.5 12.5t39 28
t24.5 37t14 31t5 18.5z" />
    <glyph glyph-name="cyrAE" unicode="&#x4d4;" horiz-adv-x="1069" 
d="M715 425h315l-27 -136h-315l-34 -153h371l-29 -136h-536l31 144h-249l-106 -144h-206l541 700h665l-29 -136h-362zM520 280l60 284h-26l-211 -284h177z" />
    <glyph glyph-name="cyrae" unicode="&#x4d5;" horiz-adv-x="953" 
d="M726 147h153q-27 -81 -103 -123.5t-174 -42.5q-133 0 -176 83q-43 -47 -90 -65t-115 -18q-102 0 -152.5 29.5t-50.5 103.5q0 23 5.5 43t13.5 35t22.5 28t27 22t34 16.5t36 12t39 9t38 6.5t39 5.5t35.5 4.5q24 3 34.5 5t26.5 7.5t23 13t12.5 21t5.5 33.5q0 49 -75 49
q-100 0 -117 -81h-145q40 183 271 183q127 0 162 -79q56 79 175 79q15 0 26.5 -0.5t38.5 -4.5t47 -11t45.5 -22.5t42 -37t28 -56t11.5 -77.5q0 -31 -14 -95h-389q-4 -17 -4 -41q0 -99 102 -99q35 0 65.5 16t45.5 48zM374 189l10 46q-21 -14 -106 -23q-106 -12 -106 -76
q0 -53 70 -53q40 0 79.5 25t52.5 81zM535 302h231q4 20 4 44q0 79 -97 79q-104 0 -138 -123z" />
    <glyph glyph-name="cyrIecyrbreve" unicode="&#x4d6;" horiz-adv-x="655" 
d="M267 904h112q-8 -25 9.5 -46t68.5 -21q81 0 94 67h112q-18 -57 -70.5 -97.5t-150.5 -40.5q-31 0 -58 4.5t-55.5 16t-45.5 36.5t-17 60v10q0 8 1 11zM275 425h342l-27 -136h-344l-32 -153h397l-28 -136h-563l148 700h554l-28 -136h-390z" />
    <glyph glyph-name="cyriecyrbreve" unicode="&#x4d7;" horiz-adv-x="628" 
d="M211 700h111q-5 -26 12 -46.5t67 -20.5q80 0 94 67h112q-7 -23 -20 -43.5t-37.5 -44t-66.5 -37t-97 -13.5q-30 0 -57 4.5t-56 16t-46 36.5t-17 60v10q0 8 1 11zM396 147h154q-67 -166 -277 -166q-61 0 -106.5 15.5t-71 38t-41 54t-20 58t-4.5 55.5q0 38 9 78.5t32.5 85.5
t58.5 80t93 58t129 23q59 0 104.5 -13.5t71 -34.5t41.5 -50t21 -55.5t5 -55.5q0 -34 -19 -95h-388q-4 -17 -4 -41q0 -99 102 -99q37 0 68 17.5t42 46.5zM205 302h232q4 20 4 44q0 79 -99 79q-105 0 -137 -123z" />
    <glyph glyph-name="cyrinvE" unicode="&#x4d8;" horiz-adv-x="785" 
d="M298 495h-200q40 100 134 162.5t247 62.5q73 0 128 -18.5t86 -46t50.5 -66.5t25.5 -73.5t6 -73.5q0 -63 -15.5 -126.5t-50.5 -124.5t-85.5 -107.5t-125 -75t-164.5 -28.5q-22 0 -41 1.5t-49.5 7.5t-54.5 17t-50.5 32t-44.5 50t-30 73.5t-12 99.5q0 59 8 96l5 26h505
q4 28 4 49q0 29 -5.5 54.5t-19 50t-39.5 38.5t-63 14q-47 0 -89.5 -24.5t-59.5 -69.5zM550 275h-302q-2 -14 -2 -21q0 -143 113 -143q146 0 191 164z" />
    <glyph glyph-name="cyrinve" unicode="&#x4d9;" horiz-adv-x="628" 
d="M229 361h-154q67 166 277 166q61 0 106.5 -15.5t71 -38t41 -54t20 -58t4.5 -55.5q0 -38 -9 -78.5t-32.5 -85.5t-58.5 -80t-93 -58t-129 -23q-127 0 -185 57t-58 149q0 42 19 98h388q4 17 4 41q0 99 -102 99q-37 0 -68 -17.5t-42 -46.5zM420 206h-232q-4 -17 -4 -42
q0 -81 99 -81q34 0 61 13.5t42 35t22.5 39t11.5 35.5z" />
    <glyph glyph-name="cyrinvEdieresis" unicode="&#x4da;" horiz-adv-x="785" 
d="M298 495h-200q40 100 134 162.5t247 62.5q73 0 128 -18.5t86 -46t50.5 -66.5t25.5 -73.5t6 -73.5q0 -63 -15.5 -126.5t-50.5 -124.5t-85.5 -107.5t-125 -75t-164.5 -28.5q-22 0 -41 1.5t-49.5 7.5t-54.5 17t-50.5 32t-44.5 50t-30 73.5t-12 99.5q0 59 8 96l5 26h505
q4 28 4 49q0 29 -5.5 54.5t-19 50t-39.5 38.5t-63 14q-47 0 -89.5 -24.5t-59.5 -69.5zM550 275h-302q-2 -14 -2 -21q0 -143 113 -143q146 0 191 164zM304 766l22 106h142l-22 -106h-142zM552 766l22 106h142l-22 -106h-142z" />
    <glyph glyph-name="cyrinvedieresis" unicode="&#x4db;" horiz-adv-x="628" 
d="M229 361h-154q67 166 277 166q61 0 106.5 -15.5t71 -38t41 -54t20 -58t4.5 -55.5q0 -38 -9 -78.5t-32.5 -85.5t-58.5 -80t-93 -58t-129 -23q-127 0 -185 57t-58 149q0 42 19 98h388q4 17 4 41q0 99 -102 99q-37 0 -68 -17.5t-42 -46.5zM420 206h-232q-4 -17 -4 -42
q0 -81 99 -81q34 0 61 13.5t42 35t22.5 39t11.5 35.5zM166 581l26 119h152l-26 -119h-152zM448 581l26 119h152l-26 -119h-152z" />
    <glyph glyph-name="cyrZhedieresis" unicode="&#x4dc;" horiz-adv-x="980" 
d="M357 0l70 321h-2l-276 -321h-212l347 381l-190 319h194l156 -289h2l59 289h165l-63 -289h2l266 289h206l-328 -339l189 -361h-200l-152 321h-3l-65 -321h-165zM402 766l22 106h142l-22 -106h-142zM650 766l22 106h142l-22 -106h-142z" />
    <glyph glyph-name="cyrzhedieresis" unicode="&#x4dd;" horiz-adv-x="773" 
d="M261 0l51 227h-3l-189 -227h-183l255 274l-134 234h167l100 -211h2l43 211h145l-48 -211h3l183 211h173l-236 -248l142 -260h-176l-101 227h-2l-46 -227h-146zM238 581l26 119h152l-26 -119h-152zM520 581l26 119h152l-26 -119h-152z" />
    </font>
</defs>
</svg>
